G04 #@! TF.FileFunction,Copper,L1,Top,Signal*
%FSLAX46Y46*%
G04 Gerber Fmt 4.6, Leading zero omitted, Abs format (unit mm)*
G04 Created by KiCad (PCBNEW (2015-04-29 BZR 5630)-product) date Tue 21 Jul 2015 17:06:27 BST*
%MOMM*%
G01*
G04 APERTURE LIST*
%ADD10C,0.150000*%
%ADD11C,0.600000*%
%ADD12R,1.300480X3.098800*%
%ADD13R,2.032000X2.032000*%
%ADD14O,2.032000X2.032000*%
%ADD15R,1.397000X1.397000*%
%ADD16C,1.397000*%
%ADD17C,1.000000*%
%ADD18C,0.250000*%
%ADD19C,0.400000*%
%ADD20C,0.254000*%
G04 APERTURE END LIST*
D10*
D11*
X60198000Y-58293000D03*
X120650000Y-65722500D03*
X88773000Y-69596000D03*
X76263500Y-64516000D03*
X64770000Y-55118000D03*
X75946000Y-49974500D03*
X92203500Y-62738000D03*
X83440500Y-55372000D03*
X87122000Y-57150000D03*
X80075000Y-53975000D03*
X95569000Y-44894500D03*
X98569000Y-44894500D03*
X101569000Y-44894500D03*
X104569000Y-44894500D03*
X107569000Y-44894500D03*
X68389500Y-72771000D03*
X65913000Y-72771000D03*
X65976500Y-70866000D03*
X74485500Y-50609500D03*
X70231000Y-43688000D03*
X67818000Y-64897000D03*
X65595500Y-56959500D03*
X78613000Y-72834500D03*
X113601500Y-69151500D03*
X116268500Y-72834500D03*
X63627000Y-70866000D03*
X62992000Y-56197500D03*
X63055500Y-47688500D03*
X100076000Y-73596500D03*
X103505000Y-61595000D03*
X61087000Y-58039000D03*
X63182500Y-51879500D03*
X100266500Y-57531000D03*
X61277500Y-70866000D03*
X101155500Y-66357500D03*
X90106500Y-48450500D03*
X110553500Y-44894500D03*
X119951500Y-59182000D03*
X80835500Y-49212500D03*
X106553000Y-53276500D03*
X131318000Y-51689000D03*
X131572000Y-72771000D03*
X125349000Y-66103500D03*
X129413000Y-67437000D03*
D12*
X122631200Y-45415200D03*
X122631200Y-53543200D03*
X127203200Y-53543200D03*
X127203200Y-45415200D03*
X122529600Y-64008000D03*
X122529600Y-72136000D03*
X127101600Y-72136000D03*
X127101600Y-64008000D03*
D13*
X125476000Y-58039000D03*
D14*
X122936000Y-58039000D03*
D15*
X130810000Y-43738800D03*
D16*
X130810000Y-46278800D03*
X130810000Y-48818800D03*
D11*
X118935500Y-61849000D03*
X126746000Y-61404500D03*
X74930000Y-56007000D03*
X71247000Y-60960000D03*
D17*
X72756938Y-60066020D03*
X72072500Y-53340000D03*
D11*
X87947500Y-60833000D03*
X85852000Y-58674000D03*
X110236000Y-54991000D03*
X109220000Y-55753000D03*
X89027000Y-56451500D03*
X89090500Y-61976000D03*
D18*
X127101600Y-64008000D02*
X127101600Y-61760100D01*
X127101600Y-61760100D02*
X126746000Y-61404500D01*
X74930000Y-59944000D02*
X74930000Y-56007000D01*
X73914000Y-60960000D02*
X74930000Y-59944000D01*
X71247000Y-60960000D02*
X73914000Y-60960000D01*
D19*
X72756938Y-59358914D02*
X72756938Y-60066020D01*
X72072500Y-53340000D02*
X72756938Y-54024438D01*
X72756938Y-54024438D02*
X72756938Y-59358914D01*
D18*
X85852000Y-58737500D02*
X85852000Y-58674000D01*
X87947500Y-60833000D02*
X85852000Y-58737500D01*
X122631200Y-53543200D02*
X122631200Y-45415200D01*
D19*
X122631200Y-53543200D02*
X122351800Y-53543200D01*
X122351800Y-53543200D02*
X120777000Y-55118000D01*
X120777000Y-55118000D02*
X110363000Y-55118000D01*
X110363000Y-55118000D02*
X110236000Y-54991000D01*
D18*
X122529600Y-64008000D02*
X122529600Y-72136000D01*
D19*
X117475000Y-64008000D02*
X122529600Y-64008000D01*
X109220000Y-55753000D02*
X117475000Y-64008000D01*
D18*
X89090500Y-56451500D02*
X89027000Y-56451500D01*
X89090500Y-61976000D02*
X89090500Y-56451500D01*
D20*
G36*
X132741600Y-74474000D02*
X128488440Y-74474000D01*
X128488440Y-55218909D01*
X128488440Y-53828950D01*
X128488440Y-53257450D01*
X128488440Y-51867491D01*
X128488440Y-47090909D01*
X128488440Y-45700950D01*
X128488440Y-45129450D01*
X128488440Y-43739491D01*
X128391767Y-43506102D01*
X128213139Y-43327473D01*
X127979750Y-43230800D01*
X127727131Y-43230800D01*
X127488950Y-43230800D01*
X127330200Y-43389550D01*
X127330200Y-45288200D01*
X128329690Y-45288200D01*
X128488440Y-45129450D01*
X128488440Y-45700950D01*
X128329690Y-45542200D01*
X127330200Y-45542200D01*
X127330200Y-47440850D01*
X127488950Y-47599600D01*
X127727131Y-47599600D01*
X127979750Y-47599600D01*
X128213139Y-47502927D01*
X128391767Y-47324298D01*
X128488440Y-47090909D01*
X128488440Y-51867491D01*
X128391767Y-51634102D01*
X128213139Y-51455473D01*
X127979750Y-51358800D01*
X127727131Y-51358800D01*
X127488950Y-51358800D01*
X127330200Y-51517550D01*
X127330200Y-53416200D01*
X128329690Y-53416200D01*
X128488440Y-53257450D01*
X128488440Y-53828950D01*
X128329690Y-53670200D01*
X127330200Y-53670200D01*
X127330200Y-55568850D01*
X127488950Y-55727600D01*
X127727131Y-55727600D01*
X127979750Y-55727600D01*
X128213139Y-55630927D01*
X128391767Y-55452298D01*
X128488440Y-55218909D01*
X128488440Y-74474000D01*
X128386840Y-74474000D01*
X128386840Y-73811709D01*
X128386840Y-72421750D01*
X128386840Y-71850250D01*
X128386840Y-70460291D01*
X128386840Y-65683709D01*
X128386840Y-64293750D01*
X128386840Y-63722250D01*
X128386840Y-62332291D01*
X128290167Y-62098902D01*
X128111539Y-61920273D01*
X127878150Y-61823600D01*
X127625531Y-61823600D01*
X127387350Y-61823600D01*
X127228600Y-61982350D01*
X127228600Y-63881000D01*
X128228090Y-63881000D01*
X128386840Y-63722250D01*
X128386840Y-64293750D01*
X128228090Y-64135000D01*
X127228600Y-64135000D01*
X127228600Y-66033650D01*
X127387350Y-66192400D01*
X127625531Y-66192400D01*
X127878150Y-66192400D01*
X128111539Y-66095727D01*
X128290167Y-65917098D01*
X128386840Y-65683709D01*
X128386840Y-70460291D01*
X128290167Y-70226902D01*
X128111539Y-70048273D01*
X127878150Y-69951600D01*
X127625531Y-69951600D01*
X127387350Y-69951600D01*
X127228600Y-70110350D01*
X127228600Y-72009000D01*
X128228090Y-72009000D01*
X128386840Y-71850250D01*
X128386840Y-72421750D01*
X128228090Y-72263000D01*
X127228600Y-72263000D01*
X127228600Y-74161650D01*
X127387350Y-74320400D01*
X127625531Y-74320400D01*
X127878150Y-74320400D01*
X128111539Y-74223727D01*
X128290167Y-74045098D01*
X128386840Y-73811709D01*
X128386840Y-74474000D01*
X127139440Y-74474000D01*
X127139440Y-59055000D01*
X127139440Y-57023000D01*
X127092463Y-56780877D01*
X127076200Y-56756119D01*
X127076200Y-55568850D01*
X127076200Y-53670200D01*
X127076200Y-53416200D01*
X127076200Y-51517550D01*
X127076200Y-47440850D01*
X127076200Y-45542200D01*
X127076200Y-45288200D01*
X127076200Y-43389550D01*
X126917450Y-43230800D01*
X126679269Y-43230800D01*
X126426650Y-43230800D01*
X126193261Y-43327473D01*
X126014633Y-43506102D01*
X125917960Y-43739491D01*
X125917960Y-45129450D01*
X126076710Y-45288200D01*
X127076200Y-45288200D01*
X127076200Y-45542200D01*
X126076710Y-45542200D01*
X125917960Y-45700950D01*
X125917960Y-47090909D01*
X126014633Y-47324298D01*
X126193261Y-47502927D01*
X126426650Y-47599600D01*
X126679269Y-47599600D01*
X126917450Y-47599600D01*
X127076200Y-47440850D01*
X127076200Y-51517550D01*
X126917450Y-51358800D01*
X126679269Y-51358800D01*
X126426650Y-51358800D01*
X126193261Y-51455473D01*
X126014633Y-51634102D01*
X125917960Y-51867491D01*
X125917960Y-53257450D01*
X126076710Y-53416200D01*
X127076200Y-53416200D01*
X127076200Y-53670200D01*
X126076710Y-53670200D01*
X125917960Y-53828950D01*
X125917960Y-55218909D01*
X126014633Y-55452298D01*
X126193261Y-55630927D01*
X126426650Y-55727600D01*
X126679269Y-55727600D01*
X126917450Y-55727600D01*
X127076200Y-55568850D01*
X127076200Y-56756119D01*
X126952673Y-56568073D01*
X126741640Y-56425623D01*
X126492000Y-56375560D01*
X124460000Y-56375560D01*
X124217877Y-56422537D01*
X124005073Y-56562327D01*
X123928880Y-56675202D01*
X123928880Y-55092600D01*
X123928880Y-51993800D01*
X123881903Y-51751677D01*
X123742113Y-51538873D01*
X123531080Y-51396423D01*
X123391200Y-51368371D01*
X123391200Y-47590744D01*
X123523563Y-47565063D01*
X123736367Y-47425273D01*
X123878817Y-47214240D01*
X123928880Y-46964600D01*
X123928880Y-43865800D01*
X123881903Y-43623677D01*
X123742113Y-43410873D01*
X123531080Y-43268423D01*
X123281440Y-43218360D01*
X121980960Y-43218360D01*
X121738837Y-43265337D01*
X121526033Y-43405127D01*
X121383583Y-43616160D01*
X121333520Y-43865800D01*
X121333520Y-46964600D01*
X121380497Y-47206723D01*
X121520287Y-47419527D01*
X121731320Y-47561977D01*
X121871200Y-47590028D01*
X121871200Y-51367655D01*
X121738837Y-51393337D01*
X121526033Y-51533127D01*
X121383583Y-51744160D01*
X121333520Y-51993800D01*
X121333520Y-53380611D01*
X120431131Y-54283000D01*
X110850372Y-54283000D01*
X110766327Y-54198808D01*
X110422799Y-54056162D01*
X110050833Y-54055838D01*
X109707057Y-54197883D01*
X109443808Y-54460673D01*
X109301162Y-54804201D01*
X109301149Y-54818069D01*
X109034833Y-54817838D01*
X108691057Y-54959883D01*
X108427808Y-55222673D01*
X108285162Y-55566201D01*
X108284838Y-55938167D01*
X108426883Y-56281943D01*
X108689673Y-56545192D01*
X108931910Y-56645778D01*
X116884566Y-64598434D01*
X117155459Y-64779439D01*
X117155460Y-64779439D01*
X117475000Y-64843000D01*
X121231920Y-64843000D01*
X121231920Y-65557400D01*
X121278897Y-65799523D01*
X121418687Y-66012327D01*
X121629720Y-66154777D01*
X121769600Y-66182828D01*
X121769600Y-69960455D01*
X121637237Y-69986137D01*
X121424433Y-70125927D01*
X121281983Y-70336960D01*
X121231920Y-70586600D01*
X121231920Y-73685400D01*
X121278897Y-73927523D01*
X121418687Y-74140327D01*
X121629720Y-74282777D01*
X121879360Y-74332840D01*
X123179840Y-74332840D01*
X123421963Y-74285863D01*
X123634767Y-74146073D01*
X123777217Y-73935040D01*
X123827280Y-73685400D01*
X123827280Y-70586600D01*
X123780303Y-70344477D01*
X123640513Y-70131673D01*
X123429480Y-69989223D01*
X123289600Y-69961171D01*
X123289600Y-66183544D01*
X123421963Y-66157863D01*
X123634767Y-66018073D01*
X123777217Y-65807040D01*
X123827280Y-65557400D01*
X123827280Y-62458600D01*
X123780303Y-62216477D01*
X123640513Y-62003673D01*
X123429480Y-61861223D01*
X123179840Y-61811160D01*
X122809000Y-61811160D01*
X122809000Y-59525836D01*
X122809000Y-58166000D01*
X122809000Y-57912000D01*
X122809000Y-56552164D01*
X122553056Y-56433025D01*
X122071182Y-56632615D01*
X121598812Y-57070621D01*
X121330017Y-57656054D01*
X121448633Y-57912000D01*
X122809000Y-57912000D01*
X122809000Y-58166000D01*
X121448633Y-58166000D01*
X121330017Y-58421946D01*
X121598812Y-59007379D01*
X122071182Y-59445385D01*
X122553056Y-59644975D01*
X122809000Y-59525836D01*
X122809000Y-61811160D01*
X121879360Y-61811160D01*
X121637237Y-61858137D01*
X121424433Y-61997927D01*
X121281983Y-62208960D01*
X121231920Y-62458600D01*
X121231920Y-63173000D01*
X117820868Y-63173000D01*
X110600867Y-55953000D01*
X120777000Y-55953000D01*
X121096540Y-55889439D01*
X121096541Y-55889439D01*
X121367434Y-55708434D01*
X121525095Y-55550772D01*
X121731320Y-55689977D01*
X121980960Y-55740040D01*
X123281440Y-55740040D01*
X123523563Y-55693063D01*
X123736367Y-55553273D01*
X123878817Y-55342240D01*
X123928880Y-55092600D01*
X123928880Y-56675202D01*
X123897262Y-56722043D01*
X123800818Y-56632615D01*
X123318944Y-56433025D01*
X123063000Y-56552164D01*
X123063000Y-57912000D01*
X123083000Y-57912000D01*
X123083000Y-58166000D01*
X123063000Y-58166000D01*
X123063000Y-59525836D01*
X123318944Y-59644975D01*
X123800818Y-59445385D01*
X123897835Y-59355425D01*
X123999327Y-59509927D01*
X124210360Y-59652377D01*
X124460000Y-59702440D01*
X126492000Y-59702440D01*
X126734123Y-59655463D01*
X126946927Y-59515673D01*
X127089377Y-59304640D01*
X127139440Y-59055000D01*
X127139440Y-74474000D01*
X126974600Y-74474000D01*
X126974600Y-74161650D01*
X126974600Y-72263000D01*
X126974600Y-72009000D01*
X126974600Y-70110350D01*
X126974600Y-66033650D01*
X126974600Y-64135000D01*
X126974600Y-63881000D01*
X126974600Y-61982350D01*
X126815850Y-61823600D01*
X126577669Y-61823600D01*
X126325050Y-61823600D01*
X126091661Y-61920273D01*
X125913033Y-62098902D01*
X125816360Y-62332291D01*
X125816360Y-63722250D01*
X125975110Y-63881000D01*
X126974600Y-63881000D01*
X126974600Y-64135000D01*
X125975110Y-64135000D01*
X125816360Y-64293750D01*
X125816360Y-65683709D01*
X125913033Y-65917098D01*
X126091661Y-66095727D01*
X126325050Y-66192400D01*
X126577669Y-66192400D01*
X126815850Y-66192400D01*
X126974600Y-66033650D01*
X126974600Y-70110350D01*
X126815850Y-69951600D01*
X126577669Y-69951600D01*
X126325050Y-69951600D01*
X126091661Y-70048273D01*
X125913033Y-70226902D01*
X125816360Y-70460291D01*
X125816360Y-71850250D01*
X125975110Y-72009000D01*
X126974600Y-72009000D01*
X126974600Y-72263000D01*
X125975110Y-72263000D01*
X125816360Y-72421750D01*
X125816360Y-73811709D01*
X125913033Y-74045098D01*
X126091661Y-74223727D01*
X126325050Y-74320400D01*
X126577669Y-74320400D01*
X126815850Y-74320400D01*
X126974600Y-74161650D01*
X126974600Y-74474000D01*
X97028000Y-74474000D01*
X97028000Y-70612000D01*
X90025662Y-70612000D01*
X90025662Y-61790833D01*
X89883617Y-61447057D01*
X89850500Y-61413882D01*
X89850500Y-56906429D01*
X89961838Y-56638299D01*
X89962162Y-56266333D01*
X89820117Y-55922557D01*
X89557327Y-55659308D01*
X89213799Y-55516662D01*
X88841833Y-55516338D01*
X88498057Y-55658383D01*
X88234808Y-55921173D01*
X88092162Y-56264701D01*
X88091838Y-56636667D01*
X88233883Y-56980443D01*
X88330500Y-57077228D01*
X88330500Y-59979632D01*
X88134299Y-59898162D01*
X88087423Y-59898121D01*
X86787067Y-58597765D01*
X86787162Y-58488833D01*
X86645117Y-58145057D01*
X86382327Y-57881808D01*
X86038799Y-57739162D01*
X85666833Y-57738838D01*
X85323057Y-57880883D01*
X85059808Y-58143673D01*
X84917162Y-58487201D01*
X84916838Y-58859167D01*
X85058883Y-59202943D01*
X85321673Y-59466192D01*
X85636702Y-59597004D01*
X87012377Y-60972679D01*
X87012338Y-61018167D01*
X87154383Y-61361943D01*
X87417173Y-61625192D01*
X87760701Y-61767838D01*
X88132667Y-61768162D01*
X88170969Y-61752335D01*
X88155662Y-61789201D01*
X88155338Y-62161167D01*
X88297383Y-62504943D01*
X88560173Y-62768192D01*
X88903701Y-62910838D01*
X89275667Y-62911162D01*
X89619443Y-62769117D01*
X89882692Y-62506327D01*
X90025338Y-62162799D01*
X90025662Y-61790833D01*
X90025662Y-70612000D01*
X81534000Y-70612000D01*
X81534000Y-74474000D01*
X75865162Y-74474000D01*
X75865162Y-55821833D01*
X75723117Y-55478057D01*
X75460327Y-55214808D01*
X75116799Y-55072162D01*
X74744833Y-55071838D01*
X74401057Y-55213883D01*
X74137808Y-55476673D01*
X73995162Y-55820201D01*
X73994838Y-56192167D01*
X74136883Y-56535943D01*
X74170000Y-56569117D01*
X74170000Y-59629198D01*
X73892077Y-59907120D01*
X73892135Y-59841245D01*
X73719705Y-59423934D01*
X73591938Y-59295943D01*
X73591938Y-54024438D01*
X73528378Y-53704898D01*
X73528377Y-53704897D01*
X73347373Y-53434004D01*
X73207540Y-53294172D01*
X73207697Y-53115225D01*
X73035267Y-52697914D01*
X72716265Y-52378355D01*
X72299256Y-52205197D01*
X71847725Y-52204803D01*
X71430414Y-52377233D01*
X71110855Y-52696235D01*
X70937697Y-53113244D01*
X70937303Y-53564775D01*
X71109733Y-53982086D01*
X71428735Y-54301645D01*
X71845744Y-54474803D01*
X71921938Y-54474869D01*
X71921938Y-59295830D01*
X71795293Y-59422255D01*
X71622135Y-59839264D01*
X71621904Y-60103270D01*
X71433799Y-60025162D01*
X71061833Y-60024838D01*
X70718057Y-60166883D01*
X70454808Y-60429673D01*
X70312162Y-60773201D01*
X70311838Y-61145167D01*
X70453883Y-61488943D01*
X70716673Y-61752192D01*
X71060201Y-61894838D01*
X71432167Y-61895162D01*
X71775943Y-61753117D01*
X71809117Y-61720000D01*
X73914000Y-61720000D01*
X74204839Y-61662148D01*
X74451401Y-61497401D01*
X75467401Y-60481401D01*
X75632148Y-60234839D01*
X75690000Y-59944000D01*
X75690000Y-56569462D01*
X75722192Y-56537327D01*
X75864838Y-56193799D01*
X75865162Y-55821833D01*
X75865162Y-74474000D01*
X59587200Y-74474000D01*
X59587200Y-42772400D01*
X129526448Y-42772400D01*
X129514123Y-42790660D01*
X129464060Y-43040300D01*
X129464060Y-44437300D01*
X129511037Y-44679423D01*
X129650827Y-44892227D01*
X129861860Y-45034677D01*
X130111500Y-45084740D01*
X130207883Y-45084740D01*
X130055620Y-45147654D01*
X129680173Y-45522447D01*
X129476732Y-46012387D01*
X129476269Y-46542886D01*
X129678854Y-47033180D01*
X130053647Y-47408627D01*
X130391446Y-47548893D01*
X130055620Y-47687654D01*
X129680173Y-48062447D01*
X129476732Y-48552387D01*
X129476269Y-49082886D01*
X129678854Y-49573180D01*
X130053647Y-49948627D01*
X130543587Y-50152068D01*
X131074086Y-50152531D01*
X131564380Y-49949946D01*
X131939827Y-49575153D01*
X132143268Y-49085213D01*
X132143731Y-48554714D01*
X131941146Y-48064420D01*
X131566353Y-47688973D01*
X131228553Y-47548706D01*
X131564380Y-47409946D01*
X131939827Y-47035153D01*
X132143268Y-46545213D01*
X132143731Y-46014714D01*
X131941146Y-45524420D01*
X131566353Y-45148973D01*
X131411662Y-45084740D01*
X131508500Y-45084740D01*
X131750623Y-45037763D01*
X131963427Y-44897973D01*
X132105877Y-44686940D01*
X132155940Y-44437300D01*
X132155940Y-43040300D01*
X132108963Y-42798177D01*
X132092030Y-42772400D01*
X132741600Y-42772400D01*
X132741600Y-74474000D01*
X132741600Y-74474000D01*
G37*
X132741600Y-74474000D02*
X128488440Y-74474000D01*
X128488440Y-55218909D01*
X128488440Y-53828950D01*
X128488440Y-53257450D01*
X128488440Y-51867491D01*
X128488440Y-47090909D01*
X128488440Y-45700950D01*
X128488440Y-45129450D01*
X128488440Y-43739491D01*
X128391767Y-43506102D01*
X128213139Y-43327473D01*
X127979750Y-43230800D01*
X127727131Y-43230800D01*
X127488950Y-43230800D01*
X127330200Y-43389550D01*
X127330200Y-45288200D01*
X128329690Y-45288200D01*
X128488440Y-45129450D01*
X128488440Y-45700950D01*
X128329690Y-45542200D01*
X127330200Y-45542200D01*
X127330200Y-47440850D01*
X127488950Y-47599600D01*
X127727131Y-47599600D01*
X127979750Y-47599600D01*
X128213139Y-47502927D01*
X128391767Y-47324298D01*
X128488440Y-47090909D01*
X128488440Y-51867491D01*
X128391767Y-51634102D01*
X128213139Y-51455473D01*
X127979750Y-51358800D01*
X127727131Y-51358800D01*
X127488950Y-51358800D01*
X127330200Y-51517550D01*
X127330200Y-53416200D01*
X128329690Y-53416200D01*
X128488440Y-53257450D01*
X128488440Y-53828950D01*
X128329690Y-53670200D01*
X127330200Y-53670200D01*
X127330200Y-55568850D01*
X127488950Y-55727600D01*
X127727131Y-55727600D01*
X127979750Y-55727600D01*
X128213139Y-55630927D01*
X128391767Y-55452298D01*
X128488440Y-55218909D01*
X128488440Y-74474000D01*
X128386840Y-74474000D01*
X128386840Y-73811709D01*
X128386840Y-72421750D01*
X128386840Y-71850250D01*
X128386840Y-70460291D01*
X128386840Y-65683709D01*
X128386840Y-64293750D01*
X128386840Y-63722250D01*
X128386840Y-62332291D01*
X128290167Y-62098902D01*
X128111539Y-61920273D01*
X127878150Y-61823600D01*
X127625531Y-61823600D01*
X127387350Y-61823600D01*
X127228600Y-61982350D01*
X127228600Y-63881000D01*
X128228090Y-63881000D01*
X128386840Y-63722250D01*
X128386840Y-64293750D01*
X128228090Y-64135000D01*
X127228600Y-64135000D01*
X127228600Y-66033650D01*
X127387350Y-66192400D01*
X127625531Y-66192400D01*
X127878150Y-66192400D01*
X128111539Y-66095727D01*
X128290167Y-65917098D01*
X128386840Y-65683709D01*
X128386840Y-70460291D01*
X128290167Y-70226902D01*
X128111539Y-70048273D01*
X127878150Y-69951600D01*
X127625531Y-69951600D01*
X127387350Y-69951600D01*
X127228600Y-70110350D01*
X127228600Y-72009000D01*
X128228090Y-72009000D01*
X128386840Y-71850250D01*
X128386840Y-72421750D01*
X128228090Y-72263000D01*
X127228600Y-72263000D01*
X127228600Y-74161650D01*
X127387350Y-74320400D01*
X127625531Y-74320400D01*
X127878150Y-74320400D01*
X128111539Y-74223727D01*
X128290167Y-74045098D01*
X128386840Y-73811709D01*
X128386840Y-74474000D01*
X127139440Y-74474000D01*
X127139440Y-59055000D01*
X127139440Y-57023000D01*
X127092463Y-56780877D01*
X127076200Y-56756119D01*
X127076200Y-55568850D01*
X127076200Y-53670200D01*
X127076200Y-53416200D01*
X127076200Y-51517550D01*
X127076200Y-47440850D01*
X127076200Y-45542200D01*
X127076200Y-45288200D01*
X127076200Y-43389550D01*
X126917450Y-43230800D01*
X126679269Y-43230800D01*
X126426650Y-43230800D01*
X126193261Y-43327473D01*
X126014633Y-43506102D01*
X125917960Y-43739491D01*
X125917960Y-45129450D01*
X126076710Y-45288200D01*
X127076200Y-45288200D01*
X127076200Y-45542200D01*
X126076710Y-45542200D01*
X125917960Y-45700950D01*
X125917960Y-47090909D01*
X126014633Y-47324298D01*
X126193261Y-47502927D01*
X126426650Y-47599600D01*
X126679269Y-47599600D01*
X126917450Y-47599600D01*
X127076200Y-47440850D01*
X127076200Y-51517550D01*
X126917450Y-51358800D01*
X126679269Y-51358800D01*
X126426650Y-51358800D01*
X126193261Y-51455473D01*
X126014633Y-51634102D01*
X125917960Y-51867491D01*
X125917960Y-53257450D01*
X126076710Y-53416200D01*
X127076200Y-53416200D01*
X127076200Y-53670200D01*
X126076710Y-53670200D01*
X125917960Y-53828950D01*
X125917960Y-55218909D01*
X126014633Y-55452298D01*
X126193261Y-55630927D01*
X126426650Y-55727600D01*
X126679269Y-55727600D01*
X126917450Y-55727600D01*
X127076200Y-55568850D01*
X127076200Y-56756119D01*
X126952673Y-56568073D01*
X126741640Y-56425623D01*
X126492000Y-56375560D01*
X124460000Y-56375560D01*
X124217877Y-56422537D01*
X124005073Y-56562327D01*
X123928880Y-56675202D01*
X123928880Y-55092600D01*
X123928880Y-51993800D01*
X123881903Y-51751677D01*
X123742113Y-51538873D01*
X123531080Y-51396423D01*
X123391200Y-51368371D01*
X123391200Y-47590744D01*
X123523563Y-47565063D01*
X123736367Y-47425273D01*
X123878817Y-47214240D01*
X123928880Y-46964600D01*
X123928880Y-43865800D01*
X123881903Y-43623677D01*
X123742113Y-43410873D01*
X123531080Y-43268423D01*
X123281440Y-43218360D01*
X121980960Y-43218360D01*
X121738837Y-43265337D01*
X121526033Y-43405127D01*
X121383583Y-43616160D01*
X121333520Y-43865800D01*
X121333520Y-46964600D01*
X121380497Y-47206723D01*
X121520287Y-47419527D01*
X121731320Y-47561977D01*
X121871200Y-47590028D01*
X121871200Y-51367655D01*
X121738837Y-51393337D01*
X121526033Y-51533127D01*
X121383583Y-51744160D01*
X121333520Y-51993800D01*
X121333520Y-53380611D01*
X120431131Y-54283000D01*
X110850372Y-54283000D01*
X110766327Y-54198808D01*
X110422799Y-54056162D01*
X110050833Y-54055838D01*
X109707057Y-54197883D01*
X109443808Y-54460673D01*
X109301162Y-54804201D01*
X109301149Y-54818069D01*
X109034833Y-54817838D01*
X108691057Y-54959883D01*
X108427808Y-55222673D01*
X108285162Y-55566201D01*
X108284838Y-55938167D01*
X108426883Y-56281943D01*
X108689673Y-56545192D01*
X108931910Y-56645778D01*
X116884566Y-64598434D01*
X117155459Y-64779439D01*
X117155460Y-64779439D01*
X117475000Y-64843000D01*
X121231920Y-64843000D01*
X121231920Y-65557400D01*
X121278897Y-65799523D01*
X121418687Y-66012327D01*
X121629720Y-66154777D01*
X121769600Y-66182828D01*
X121769600Y-69960455D01*
X121637237Y-69986137D01*
X121424433Y-70125927D01*
X121281983Y-70336960D01*
X121231920Y-70586600D01*
X121231920Y-73685400D01*
X121278897Y-73927523D01*
X121418687Y-74140327D01*
X121629720Y-74282777D01*
X121879360Y-74332840D01*
X123179840Y-74332840D01*
X123421963Y-74285863D01*
X123634767Y-74146073D01*
X123777217Y-73935040D01*
X123827280Y-73685400D01*
X123827280Y-70586600D01*
X123780303Y-70344477D01*
X123640513Y-70131673D01*
X123429480Y-69989223D01*
X123289600Y-69961171D01*
X123289600Y-66183544D01*
X123421963Y-66157863D01*
X123634767Y-66018073D01*
X123777217Y-65807040D01*
X123827280Y-65557400D01*
X123827280Y-62458600D01*
X123780303Y-62216477D01*
X123640513Y-62003673D01*
X123429480Y-61861223D01*
X123179840Y-61811160D01*
X122809000Y-61811160D01*
X122809000Y-59525836D01*
X122809000Y-58166000D01*
X122809000Y-57912000D01*
X122809000Y-56552164D01*
X122553056Y-56433025D01*
X122071182Y-56632615D01*
X121598812Y-57070621D01*
X121330017Y-57656054D01*
X121448633Y-57912000D01*
X122809000Y-57912000D01*
X122809000Y-58166000D01*
X121448633Y-58166000D01*
X121330017Y-58421946D01*
X121598812Y-59007379D01*
X122071182Y-59445385D01*
X122553056Y-59644975D01*
X122809000Y-59525836D01*
X122809000Y-61811160D01*
X121879360Y-61811160D01*
X121637237Y-61858137D01*
X121424433Y-61997927D01*
X121281983Y-62208960D01*
X121231920Y-62458600D01*
X121231920Y-63173000D01*
X117820868Y-63173000D01*
X110600867Y-55953000D01*
X120777000Y-55953000D01*
X121096540Y-55889439D01*
X121096541Y-55889439D01*
X121367434Y-55708434D01*
X121525095Y-55550772D01*
X121731320Y-55689977D01*
X121980960Y-55740040D01*
X123281440Y-55740040D01*
X123523563Y-55693063D01*
X123736367Y-55553273D01*
X123878817Y-55342240D01*
X123928880Y-55092600D01*
X123928880Y-56675202D01*
X123897262Y-56722043D01*
X123800818Y-56632615D01*
X123318944Y-56433025D01*
X123063000Y-56552164D01*
X123063000Y-57912000D01*
X123083000Y-57912000D01*
X123083000Y-58166000D01*
X123063000Y-58166000D01*
X123063000Y-59525836D01*
X123318944Y-59644975D01*
X123800818Y-59445385D01*
X123897835Y-59355425D01*
X123999327Y-59509927D01*
X124210360Y-59652377D01*
X124460000Y-59702440D01*
X126492000Y-59702440D01*
X126734123Y-59655463D01*
X126946927Y-59515673D01*
X127089377Y-59304640D01*
X127139440Y-59055000D01*
X127139440Y-74474000D01*
X126974600Y-74474000D01*
X126974600Y-74161650D01*
X126974600Y-72263000D01*
X126974600Y-72009000D01*
X126974600Y-70110350D01*
X126974600Y-66033650D01*
X126974600Y-64135000D01*
X126974600Y-63881000D01*
X126974600Y-61982350D01*
X126815850Y-61823600D01*
X126577669Y-61823600D01*
X126325050Y-61823600D01*
X126091661Y-61920273D01*
X125913033Y-62098902D01*
X125816360Y-62332291D01*
X125816360Y-63722250D01*
X125975110Y-63881000D01*
X126974600Y-63881000D01*
X126974600Y-64135000D01*
X125975110Y-64135000D01*
X125816360Y-64293750D01*
X125816360Y-65683709D01*
X125913033Y-65917098D01*
X126091661Y-66095727D01*
X126325050Y-66192400D01*
X126577669Y-66192400D01*
X126815850Y-66192400D01*
X126974600Y-66033650D01*
X126974600Y-70110350D01*
X126815850Y-69951600D01*
X126577669Y-69951600D01*
X126325050Y-69951600D01*
X126091661Y-70048273D01*
X125913033Y-70226902D01*
X125816360Y-70460291D01*
X125816360Y-71850250D01*
X125975110Y-72009000D01*
X126974600Y-72009000D01*
X126974600Y-72263000D01*
X125975110Y-72263000D01*
X125816360Y-72421750D01*
X125816360Y-73811709D01*
X125913033Y-74045098D01*
X126091661Y-74223727D01*
X126325050Y-74320400D01*
X126577669Y-74320400D01*
X126815850Y-74320400D01*
X126974600Y-74161650D01*
X126974600Y-74474000D01*
X97028000Y-74474000D01*
X97028000Y-70612000D01*
X90025662Y-70612000D01*
X90025662Y-61790833D01*
X89883617Y-61447057D01*
X89850500Y-61413882D01*
X89850500Y-56906429D01*
X89961838Y-56638299D01*
X89962162Y-56266333D01*
X89820117Y-55922557D01*
X89557327Y-55659308D01*
X89213799Y-55516662D01*
X88841833Y-55516338D01*
X88498057Y-55658383D01*
X88234808Y-55921173D01*
X88092162Y-56264701D01*
X88091838Y-56636667D01*
X88233883Y-56980443D01*
X88330500Y-57077228D01*
X88330500Y-59979632D01*
X88134299Y-59898162D01*
X88087423Y-59898121D01*
X86787067Y-58597765D01*
X86787162Y-58488833D01*
X86645117Y-58145057D01*
X86382327Y-57881808D01*
X86038799Y-57739162D01*
X85666833Y-57738838D01*
X85323057Y-57880883D01*
X85059808Y-58143673D01*
X84917162Y-58487201D01*
X84916838Y-58859167D01*
X85058883Y-59202943D01*
X85321673Y-59466192D01*
X85636702Y-59597004D01*
X87012377Y-60972679D01*
X87012338Y-61018167D01*
X87154383Y-61361943D01*
X87417173Y-61625192D01*
X87760701Y-61767838D01*
X88132667Y-61768162D01*
X88170969Y-61752335D01*
X88155662Y-61789201D01*
X88155338Y-62161167D01*
X88297383Y-62504943D01*
X88560173Y-62768192D01*
X88903701Y-62910838D01*
X89275667Y-62911162D01*
X89619443Y-62769117D01*
X89882692Y-62506327D01*
X90025338Y-62162799D01*
X90025662Y-61790833D01*
X90025662Y-70612000D01*
X81534000Y-70612000D01*
X81534000Y-74474000D01*
X75865162Y-74474000D01*
X75865162Y-55821833D01*
X75723117Y-55478057D01*
X75460327Y-55214808D01*
X75116799Y-55072162D01*
X74744833Y-55071838D01*
X74401057Y-55213883D01*
X74137808Y-55476673D01*
X73995162Y-55820201D01*
X73994838Y-56192167D01*
X74136883Y-56535943D01*
X74170000Y-56569117D01*
X74170000Y-59629198D01*
X73892077Y-59907120D01*
X73892135Y-59841245D01*
X73719705Y-59423934D01*
X73591938Y-59295943D01*
X73591938Y-54024438D01*
X73528378Y-53704898D01*
X73528377Y-53704897D01*
X73347373Y-53434004D01*
X73207540Y-53294172D01*
X73207697Y-53115225D01*
X73035267Y-52697914D01*
X72716265Y-52378355D01*
X72299256Y-52205197D01*
X71847725Y-52204803D01*
X71430414Y-52377233D01*
X71110855Y-52696235D01*
X70937697Y-53113244D01*
X70937303Y-53564775D01*
X71109733Y-53982086D01*
X71428735Y-54301645D01*
X71845744Y-54474803D01*
X71921938Y-54474869D01*
X71921938Y-59295830D01*
X71795293Y-59422255D01*
X71622135Y-59839264D01*
X71621904Y-60103270D01*
X71433799Y-60025162D01*
X71061833Y-60024838D01*
X70718057Y-60166883D01*
X70454808Y-60429673D01*
X70312162Y-60773201D01*
X70311838Y-61145167D01*
X70453883Y-61488943D01*
X70716673Y-61752192D01*
X71060201Y-61894838D01*
X71432167Y-61895162D01*
X71775943Y-61753117D01*
X71809117Y-61720000D01*
X73914000Y-61720000D01*
X74204839Y-61662148D01*
X74451401Y-61497401D01*
X75467401Y-60481401D01*
X75632148Y-60234839D01*
X75690000Y-59944000D01*
X75690000Y-56569462D01*
X75722192Y-56537327D01*
X75864838Y-56193799D01*
X75865162Y-55821833D01*
X75865162Y-74474000D01*
X59587200Y-74474000D01*
X59587200Y-42772400D01*
X129526448Y-42772400D01*
X129514123Y-42790660D01*
X129464060Y-43040300D01*
X129464060Y-44437300D01*
X129511037Y-44679423D01*
X129650827Y-44892227D01*
X129861860Y-45034677D01*
X130111500Y-45084740D01*
X130207883Y-45084740D01*
X130055620Y-45147654D01*
X129680173Y-45522447D01*
X129476732Y-46012387D01*
X129476269Y-46542886D01*
X129678854Y-47033180D01*
X130053647Y-47408627D01*
X130391446Y-47548893D01*
X130055620Y-47687654D01*
X129680173Y-48062447D01*
X129476732Y-48552387D01*
X129476269Y-49082886D01*
X129678854Y-49573180D01*
X130053647Y-49948627D01*
X130543587Y-50152068D01*
X131074086Y-50152531D01*
X131564380Y-49949946D01*
X131939827Y-49575153D01*
X132143268Y-49085213D01*
X132143731Y-48554714D01*
X131941146Y-48064420D01*
X131566353Y-47688973D01*
X131228553Y-47548706D01*
X131564380Y-47409946D01*
X131939827Y-47035153D01*
X132143268Y-46545213D01*
X132143731Y-46014714D01*
X131941146Y-45524420D01*
X131566353Y-45148973D01*
X131411662Y-45084740D01*
X131508500Y-45084740D01*
X131750623Y-45037763D01*
X131963427Y-44897973D01*
X132105877Y-44686940D01*
X132155940Y-44437300D01*
X132155940Y-43040300D01*
X132108963Y-42798177D01*
X132092030Y-42772400D01*
X132741600Y-42772400D01*
X132741600Y-74474000D01*
M02*
