M48
;DRILL file {KiCad (2015-04-29 BZR 5630)-product} date Tue 21 Jul 2015 17:06:29 BST
;FORMAT={-:-/ absolute / inch / decimal}
FMAT,2
INCH,TZ
T1C0.016
T2C0.024
T3C0.032
T4C0.040
%
G90
G05
M72
T1
X2.37Y-2.295
X2.405Y-2.285
X2.4125Y-2.79
X2.48Y-2.2125
X2.4825Y-1.8775
X2.4875Y-2.0425
X2.505Y-2.79
X2.55Y-2.17
X2.5825Y-2.2425
X2.595Y-2.865
X2.5975Y-2.79
X2.67Y-2.555
X2.6925Y-2.865
X2.765Y-1.72
X2.805Y-2.4
X2.9325Y-1.9925
X2.95Y-2.205
X2.99Y-1.9675
X3.0025Y-2.54
X3.095Y-2.8675
X3.1526Y-2.125
X3.1825Y-1.9375
X3.2851Y-2.18
X3.38Y-2.31
X3.43Y-2.25
X3.4625Y-2.395
X3.495Y-2.74
X3.505Y-2.2225
X3.5075Y-2.44
X3.5475Y-1.9075
X3.6301Y-2.47
X3.7626Y-1.7675
X3.8807Y-1.7675
X3.94Y-2.8975
X3.9475Y-2.265
X3.9825Y-2.6125
X3.9988Y-1.7675
X4.075Y-2.425
X4.1169Y-1.7675
X4.195Y-2.0975
X4.235Y-1.7675
X4.3Y-2.195
X4.34Y-2.165
X4.3525Y-1.7675
X4.4725Y-2.7225
X4.5775Y-2.8675
X4.6825Y-2.435
X4.7225Y-2.33
X4.75Y-2.5875
X4.935Y-2.6025
X4.99Y-2.4175
X5.095Y-2.655
X5.17Y-2.035
X5.18Y-2.865
T2
X2.8375Y-2.1
X2.8644Y-2.3648
T3
X5.15Y-1.722
X5.15Y-1.822
X5.15Y-1.922
T4
X4.84Y-2.285
X4.94Y-2.285
T0
M30
