G04 #@! TF.FileFunction,Soldermask,Bot*
%FSLAX46Y46*%
G04 Gerber Fmt 4.6, Leading zero omitted, Abs format (unit mm)*
G04 Created by KiCad (PCBNEW (2015-04-29 BZR 5630)-product) date Tue 21 Jul 2015 17:06:27 BST*
%MOMM*%
G01*
G04 APERTURE LIST*
%ADD10C,0.150000*%
%ADD11R,1.200100X1.200100*%
%ADD12R,1.310000X1.620000*%
%ADD13R,1.400760X0.669240*%
%ADD14R,3.400000X1.900000*%
%ADD15R,1.150000X1.200000*%
%ADD16R,1.200000X1.150000*%
%ADD17R,1.197560X1.197560*%
%ADD18R,1.300000X0.900000*%
%ADD19R,0.900000X1.300000*%
%ADD20R,1.050000X1.460000*%
%ADD21O,3.752800X1.212800*%
%ADD22R,1.950000X1.000000*%
%ADD23R,2.400000X2.900000*%
%ADD24R,2.432000X2.432000*%
%ADD25O,2.432000X2.432000*%
%ADD26R,0.999440X1.400760*%
%ADD27R,1.695400X3.650000*%
%ADD28R,1.797000X1.797000*%
%ADD29C,1.797000*%
%ADD30R,2.297380X1.573480*%
%ADD31R,2.297380X3.774900*%
%ADD32R,3.500580X1.873200*%
%ADD33R,2.779220X0.849580*%
G04 APERTURE END LIST*
D10*
D11*
X76596240Y-47495500D03*
X76596240Y-45595500D03*
X78595220Y-46545500D03*
D12*
X79745000Y-56769000D03*
X76465000Y-56769000D03*
D11*
X71897240Y-47178000D03*
X71897240Y-45278000D03*
X73896220Y-46228000D03*
D13*
X69660000Y-52741000D03*
X69660000Y-53241000D03*
X69660000Y-53741000D03*
X69660000Y-54241000D03*
X69660000Y-54741000D03*
X69660000Y-55241000D03*
X69660000Y-55741000D03*
X69660000Y-56241000D03*
X69660000Y-56741000D03*
X69660000Y-57241000D03*
X69660000Y-57741000D03*
X69660000Y-58241000D03*
X69660000Y-58741000D03*
X69660000Y-59241000D03*
X69660000Y-59741000D03*
X69660000Y-60241000D03*
X69660000Y-60741000D03*
X69660000Y-61241000D03*
X69660000Y-61741000D03*
X69660000Y-62241000D03*
X69660000Y-62741000D03*
X69660000Y-63241000D03*
X69660000Y-63741000D03*
X69660000Y-64241000D03*
D14*
X67660000Y-67241000D03*
X67660000Y-49741000D03*
D15*
X78740000Y-68822000D03*
X78740000Y-67322000D03*
X109855000Y-51169000D03*
X109855000Y-49669000D03*
D16*
X61811600Y-65049400D03*
X60311600Y-65049400D03*
X61837000Y-61722000D03*
X60337000Y-61722000D03*
X61862400Y-59918600D03*
X60362400Y-59918600D03*
X76593000Y-51308000D03*
X78093000Y-51308000D03*
X76593000Y-52959000D03*
X78093000Y-52959000D03*
D15*
X61404500Y-53415500D03*
X61404500Y-54915500D03*
D16*
X72275000Y-65849500D03*
X73775000Y-65849500D03*
D17*
X132334000Y-65417700D03*
X132334000Y-66916300D03*
D18*
X132334000Y-68338000D03*
X132334000Y-69838000D03*
X120396000Y-64123000D03*
X120396000Y-62623000D03*
D19*
X73164000Y-48895000D03*
X74664000Y-48895000D03*
D20*
X122494000Y-61892000D03*
X123444000Y-61892000D03*
X124394000Y-61892000D03*
X124394000Y-64092000D03*
X122494000Y-64092000D03*
D21*
X95986600Y-60833000D03*
X95986600Y-62103000D03*
X95986600Y-63373000D03*
X95986600Y-64643000D03*
X95986600Y-65913000D03*
X95986600Y-67183000D03*
X95986600Y-68453000D03*
X95986600Y-69723000D03*
X82575400Y-68478400D03*
X82575400Y-67208400D03*
X82575400Y-65938400D03*
X82575400Y-64668400D03*
X82575400Y-63398400D03*
X82575400Y-62128400D03*
X82575400Y-60833000D03*
D22*
X118473200Y-50571400D03*
X118473200Y-51841400D03*
X118473200Y-53111400D03*
X118473200Y-54381400D03*
X113073200Y-54381400D03*
X113073200Y-53111400D03*
X113073200Y-51841400D03*
X113073200Y-50571400D03*
D15*
X61404500Y-48843500D03*
X61404500Y-50343500D03*
D16*
X72300400Y-62369700D03*
X73800400Y-62369700D03*
X72275000Y-64198500D03*
X73775000Y-64198500D03*
D15*
X76708000Y-67322000D03*
X76708000Y-68822000D03*
D23*
X61195200Y-44653200D03*
X65195200Y-44653200D03*
D16*
X76593000Y-54610000D03*
X78093000Y-54610000D03*
X61837000Y-63373000D03*
X60337000Y-63373000D03*
D24*
X125476000Y-58039000D03*
D25*
X122936000Y-58039000D03*
D15*
X127127000Y-63258000D03*
X127127000Y-64758000D03*
D16*
X127774000Y-53848000D03*
X129274000Y-53848000D03*
X127774000Y-52197000D03*
X129274000Y-52197000D03*
X72275000Y-67564000D03*
X73775000Y-67564000D03*
X67322000Y-44069000D03*
X68822000Y-44069000D03*
X67322000Y-45720000D03*
X68822000Y-45720000D03*
D26*
X74818240Y-52199540D03*
X73517760Y-52199540D03*
X74168000Y-54102000D03*
D27*
X106075480Y-72518840D03*
X108615480Y-72559480D03*
X108615480Y-67907600D03*
X106075480Y-67907600D03*
X108554520Y-58545160D03*
X106014520Y-58504520D03*
X106014520Y-63156400D03*
X108554520Y-63156400D03*
D18*
X103759000Y-64782000D03*
X103759000Y-66282000D03*
D28*
X130810000Y-43738800D03*
D29*
X130810000Y-46278800D03*
X130810000Y-48818800D03*
D30*
X132207000Y-57835800D03*
X132207000Y-59512200D03*
D31*
X132207000Y-62087380D03*
X132207000Y-55260620D03*
D32*
X129408300Y-61135260D03*
X129408300Y-56212740D03*
D33*
X129047620Y-57373520D03*
X129047620Y-58023760D03*
X129047620Y-58674000D03*
X129047620Y-59324240D03*
X129047620Y-59974480D03*
M02*
