G04 #@! TF.FileFunction,Legend,Top*
%FSLAX46Y46*%
G04 Gerber Fmt 4.6, Leading zero omitted, Abs format (unit mm)*
G04 Created by KiCad (PCBNEW (2015-04-29 BZR 5630)-product) date Tue 21 Jul 2015 17:06:27 BST*
%MOMM*%
G01*
G04 APERTURE LIST*
%ADD10C,0.150000*%
%ADD11C,0.300000*%
%ADD12C,0.304800*%
G04 APERTURE END LIST*
D10*
D11*
X128524286Y-73092571D02*
X129024286Y-74592571D01*
X129524286Y-73092571D01*
X130310000Y-73092571D02*
X130452857Y-73092571D01*
X130595714Y-73164000D01*
X130667143Y-73235429D01*
X130738572Y-73378286D01*
X130810000Y-73664000D01*
X130810000Y-74021143D01*
X130738572Y-74306857D01*
X130667143Y-74449714D01*
X130595714Y-74521143D01*
X130452857Y-74592571D01*
X130310000Y-74592571D01*
X130167143Y-74521143D01*
X130095714Y-74449714D01*
X130024286Y-74306857D01*
X129952857Y-74021143D01*
X129952857Y-73664000D01*
X130024286Y-73378286D01*
X130095714Y-73235429D01*
X130167143Y-73164000D01*
X130310000Y-73092571D01*
X131452857Y-74449714D02*
X131524285Y-74521143D01*
X131452857Y-74592571D01*
X131381428Y-74521143D01*
X131452857Y-74449714D01*
X131452857Y-74592571D01*
X132095714Y-73235429D02*
X132167143Y-73164000D01*
X132310000Y-73092571D01*
X132667143Y-73092571D01*
X132810000Y-73164000D01*
X132881429Y-73235429D01*
X132952857Y-73378286D01*
X132952857Y-73521143D01*
X132881429Y-73735429D01*
X132024286Y-74592571D01*
X132952857Y-74592571D01*
X81639000Y-43339857D02*
X81853286Y-43411286D01*
X81924714Y-43482714D01*
X81996143Y-43625571D01*
X81996143Y-43839857D01*
X81924714Y-43982714D01*
X81853286Y-44054143D01*
X81710428Y-44125571D01*
X81139000Y-44125571D01*
X81139000Y-42625571D01*
X81639000Y-42625571D01*
X81781857Y-42697000D01*
X81853286Y-42768429D01*
X81924714Y-42911286D01*
X81924714Y-43054143D01*
X81853286Y-43197000D01*
X81781857Y-43268429D01*
X81639000Y-43339857D01*
X81139000Y-43339857D01*
X82853286Y-44125571D02*
X82710428Y-44054143D01*
X82639000Y-43911286D01*
X82639000Y-42625571D01*
X84067571Y-43125571D02*
X84067571Y-44125571D01*
X83424714Y-43125571D02*
X83424714Y-43911286D01*
X83496142Y-44054143D01*
X83639000Y-44125571D01*
X83853285Y-44125571D01*
X83996142Y-44054143D01*
X84067571Y-43982714D01*
X85353285Y-44054143D02*
X85210428Y-44125571D01*
X84924714Y-44125571D01*
X84781857Y-44054143D01*
X84710428Y-43911286D01*
X84710428Y-43339857D01*
X84781857Y-43197000D01*
X84924714Y-43125571D01*
X85210428Y-43125571D01*
X85353285Y-43197000D01*
X85424714Y-43339857D01*
X85424714Y-43482714D01*
X84710428Y-43625571D01*
X85853285Y-43125571D02*
X86424714Y-43125571D01*
X86067571Y-42625571D02*
X86067571Y-43911286D01*
X86138999Y-44054143D01*
X86281857Y-44125571D01*
X86424714Y-44125571D01*
X87139000Y-44125571D02*
X86996142Y-44054143D01*
X86924714Y-43982714D01*
X86853285Y-43839857D01*
X86853285Y-43411286D01*
X86924714Y-43268429D01*
X86996142Y-43197000D01*
X87139000Y-43125571D01*
X87353285Y-43125571D01*
X87496142Y-43197000D01*
X87567571Y-43268429D01*
X87639000Y-43411286D01*
X87639000Y-43839857D01*
X87567571Y-43982714D01*
X87496142Y-44054143D01*
X87353285Y-44125571D01*
X87139000Y-44125571D01*
X88496143Y-44125571D02*
X88353285Y-44054143D01*
X88281857Y-43982714D01*
X88210428Y-43839857D01*
X88210428Y-43411286D01*
X88281857Y-43268429D01*
X88353285Y-43197000D01*
X88496143Y-43125571D01*
X88710428Y-43125571D01*
X88853285Y-43197000D01*
X88924714Y-43268429D01*
X88996143Y-43411286D01*
X88996143Y-43839857D01*
X88924714Y-43982714D01*
X88853285Y-44054143D01*
X88710428Y-44125571D01*
X88496143Y-44125571D01*
X89424714Y-43125571D02*
X89996143Y-43125571D01*
X89639000Y-42625571D02*
X89639000Y-43911286D01*
X89710428Y-44054143D01*
X89853286Y-44125571D01*
X89996143Y-44125571D01*
X90496143Y-44125571D02*
X90496143Y-42625571D01*
X91139000Y-44125571D02*
X91139000Y-43339857D01*
X91067571Y-43197000D01*
X90924714Y-43125571D01*
X90710429Y-43125571D01*
X90567571Y-43197000D01*
X90496143Y-43268429D01*
X92996143Y-43339857D02*
X93496143Y-43339857D01*
X93710429Y-44125571D02*
X92996143Y-44125571D01*
X92996143Y-42625571D01*
X93710429Y-42625571D01*
X94353286Y-43554143D02*
X95496143Y-43554143D01*
X96210429Y-44125571D02*
X96210429Y-42625571D01*
X96781857Y-42625571D01*
X96924715Y-42697000D01*
X96996143Y-42768429D01*
X97067572Y-42911286D01*
X97067572Y-43125571D01*
X96996143Y-43268429D01*
X96924715Y-43339857D01*
X96781857Y-43411286D01*
X96210429Y-43411286D01*
X98353286Y-44125571D02*
X98353286Y-43339857D01*
X98281857Y-43197000D01*
X98139000Y-43125571D01*
X97853286Y-43125571D01*
X97710429Y-43197000D01*
X98353286Y-44054143D02*
X98210429Y-44125571D01*
X97853286Y-44125571D01*
X97710429Y-44054143D01*
X97639000Y-43911286D01*
X97639000Y-43768429D01*
X97710429Y-43625571D01*
X97853286Y-43554143D01*
X98210429Y-43554143D01*
X98353286Y-43482714D01*
X99067572Y-43125571D02*
X99067572Y-44625571D01*
X99067572Y-43197000D02*
X99210429Y-43125571D01*
X99496143Y-43125571D01*
X99639000Y-43197000D01*
X99710429Y-43268429D01*
X99781858Y-43411286D01*
X99781858Y-43839857D01*
X99710429Y-43982714D01*
X99639000Y-44054143D01*
X99496143Y-44125571D01*
X99210429Y-44125571D01*
X99067572Y-44054143D01*
X100996143Y-44054143D02*
X100853286Y-44125571D01*
X100567572Y-44125571D01*
X100424715Y-44054143D01*
X100353286Y-43911286D01*
X100353286Y-43339857D01*
X100424715Y-43197000D01*
X100567572Y-43125571D01*
X100853286Y-43125571D01*
X100996143Y-43197000D01*
X101067572Y-43339857D01*
X101067572Y-43482714D01*
X100353286Y-43625571D01*
X101710429Y-44125571D02*
X101710429Y-43125571D01*
X101710429Y-43411286D02*
X101781857Y-43268429D01*
X101853286Y-43197000D01*
X101996143Y-43125571D01*
X102139000Y-43125571D01*
X103781857Y-44125571D02*
X103781857Y-42625571D01*
X104139000Y-42625571D01*
X104353285Y-42697000D01*
X104496143Y-42839857D01*
X104567571Y-42982714D01*
X104639000Y-43268429D01*
X104639000Y-43482714D01*
X104567571Y-43768429D01*
X104496143Y-43911286D01*
X104353285Y-44054143D01*
X104139000Y-44125571D01*
X103781857Y-44125571D01*
X105281857Y-44125571D02*
X105281857Y-43125571D01*
X105281857Y-42625571D02*
X105210428Y-42697000D01*
X105281857Y-42768429D01*
X105353285Y-42697000D01*
X105281857Y-42625571D01*
X105281857Y-42768429D01*
X105924714Y-44054143D02*
X106067571Y-44125571D01*
X106353286Y-44125571D01*
X106496143Y-44054143D01*
X106567571Y-43911286D01*
X106567571Y-43839857D01*
X106496143Y-43697000D01*
X106353286Y-43625571D01*
X106139000Y-43625571D01*
X105996143Y-43554143D01*
X105924714Y-43411286D01*
X105924714Y-43339857D01*
X105996143Y-43197000D01*
X106139000Y-43125571D01*
X106353286Y-43125571D01*
X106496143Y-43197000D01*
X107210429Y-43125571D02*
X107210429Y-44625571D01*
X107210429Y-43197000D02*
X107353286Y-43125571D01*
X107639000Y-43125571D01*
X107781857Y-43197000D01*
X107853286Y-43268429D01*
X107924715Y-43411286D01*
X107924715Y-43839857D01*
X107853286Y-43982714D01*
X107781857Y-44054143D01*
X107639000Y-44125571D01*
X107353286Y-44125571D01*
X107210429Y-44054143D01*
X108781858Y-44125571D02*
X108639000Y-44054143D01*
X108567572Y-43911286D01*
X108567572Y-42625571D01*
X109996143Y-44125571D02*
X109996143Y-43339857D01*
X109924714Y-43197000D01*
X109781857Y-43125571D01*
X109496143Y-43125571D01*
X109353286Y-43197000D01*
X109996143Y-44054143D02*
X109853286Y-44125571D01*
X109496143Y-44125571D01*
X109353286Y-44054143D01*
X109281857Y-43911286D01*
X109281857Y-43768429D01*
X109353286Y-43625571D01*
X109496143Y-43554143D01*
X109853286Y-43554143D01*
X109996143Y-43482714D01*
X110567572Y-43125571D02*
X110924715Y-44125571D01*
X111281857Y-43125571D02*
X110924715Y-44125571D01*
X110781857Y-44482714D01*
X110710429Y-44554143D01*
X110567572Y-44625571D01*
X88281858Y-45025571D02*
X89281858Y-45025571D01*
X88281858Y-46525571D01*
X89281858Y-46525571D01*
X90067572Y-46525571D02*
X89924714Y-46454143D01*
X89853286Y-46382714D01*
X89781857Y-46239857D01*
X89781857Y-45811286D01*
X89853286Y-45668429D01*
X89924714Y-45597000D01*
X90067572Y-45525571D01*
X90281857Y-45525571D01*
X90424714Y-45597000D01*
X90496143Y-45668429D01*
X90567572Y-45811286D01*
X90567572Y-46239857D01*
X90496143Y-46382714D01*
X90424714Y-46454143D01*
X90281857Y-46525571D01*
X90067572Y-46525571D01*
X91781857Y-46454143D02*
X91639000Y-46525571D01*
X91353286Y-46525571D01*
X91210429Y-46454143D01*
X91139000Y-46311286D01*
X91139000Y-45739857D01*
X91210429Y-45597000D01*
X91353286Y-45525571D01*
X91639000Y-45525571D01*
X91781857Y-45597000D01*
X91853286Y-45739857D01*
X91853286Y-45882714D01*
X91139000Y-46025571D01*
X92281857Y-45525571D02*
X92853286Y-45525571D01*
X92496143Y-45025571D02*
X92496143Y-46311286D01*
X92567571Y-46454143D01*
X92710429Y-46525571D01*
X92853286Y-46525571D01*
X93353286Y-46525571D02*
X93353286Y-45525571D01*
X93353286Y-45811286D02*
X93424714Y-45668429D01*
X93496143Y-45597000D01*
X93639000Y-45525571D01*
X93781857Y-45525571D01*
X94496143Y-46525571D02*
X94353285Y-46454143D01*
X94281857Y-46382714D01*
X94210428Y-46239857D01*
X94210428Y-45811286D01*
X94281857Y-45668429D01*
X94353285Y-45597000D01*
X94496143Y-45525571D01*
X94710428Y-45525571D01*
X94853285Y-45597000D01*
X94924714Y-45668429D01*
X94996143Y-45811286D01*
X94996143Y-46239857D01*
X94924714Y-46382714D01*
X94853285Y-46454143D01*
X94710428Y-46525571D01*
X94496143Y-46525571D01*
X95639000Y-45525571D02*
X95639000Y-47025571D01*
X95639000Y-45597000D02*
X95781857Y-45525571D01*
X96067571Y-45525571D01*
X96210428Y-45597000D01*
X96281857Y-45668429D01*
X96353286Y-45811286D01*
X96353286Y-46239857D01*
X96281857Y-46382714D01*
X96210428Y-46454143D01*
X96067571Y-46525571D01*
X95781857Y-46525571D01*
X95639000Y-46454143D01*
X97567571Y-46454143D02*
X97424714Y-46525571D01*
X97139000Y-46525571D01*
X96996143Y-46454143D01*
X96924714Y-46311286D01*
X96924714Y-45739857D01*
X96996143Y-45597000D01*
X97139000Y-45525571D01*
X97424714Y-45525571D01*
X97567571Y-45597000D01*
X97639000Y-45739857D01*
X97639000Y-45882714D01*
X96924714Y-46025571D01*
X100139000Y-46525571D02*
X99424714Y-46525571D01*
X99424714Y-45025571D01*
X101281857Y-46525571D02*
X101281857Y-45739857D01*
X101210428Y-45597000D01*
X101067571Y-45525571D01*
X100781857Y-45525571D01*
X100639000Y-45597000D01*
X101281857Y-46454143D02*
X101139000Y-46525571D01*
X100781857Y-46525571D01*
X100639000Y-46454143D01*
X100567571Y-46311286D01*
X100567571Y-46168429D01*
X100639000Y-46025571D01*
X100781857Y-45954143D01*
X101139000Y-45954143D01*
X101281857Y-45882714D01*
X101996143Y-46525571D02*
X101996143Y-45025571D01*
X101996143Y-45597000D02*
X102139000Y-45525571D01*
X102424714Y-45525571D01*
X102567571Y-45597000D01*
X102639000Y-45668429D01*
X102710429Y-45811286D01*
X102710429Y-46239857D01*
X102639000Y-46382714D01*
X102567571Y-46454143D01*
X102424714Y-46525571D01*
X102139000Y-46525571D01*
X101996143Y-46454143D01*
X103281857Y-46454143D02*
X103424714Y-46525571D01*
X103710429Y-46525571D01*
X103853286Y-46454143D01*
X103924714Y-46311286D01*
X103924714Y-46239857D01*
X103853286Y-46097000D01*
X103710429Y-46025571D01*
X103496143Y-46025571D01*
X103353286Y-45954143D01*
X103281857Y-45811286D01*
X103281857Y-45739857D01*
X103353286Y-45597000D01*
X103496143Y-45525571D01*
X103710429Y-45525571D01*
X103853286Y-45597000D01*
X93567572Y-47568429D02*
X93639001Y-47497000D01*
X93781858Y-47425571D01*
X94139001Y-47425571D01*
X94281858Y-47497000D01*
X94353287Y-47568429D01*
X94424715Y-47711286D01*
X94424715Y-47854143D01*
X94353287Y-48068429D01*
X93496144Y-48925571D01*
X94424715Y-48925571D01*
X95353286Y-47425571D02*
X95496143Y-47425571D01*
X95639000Y-47497000D01*
X95710429Y-47568429D01*
X95781858Y-47711286D01*
X95853286Y-47997000D01*
X95853286Y-48354143D01*
X95781858Y-48639857D01*
X95710429Y-48782714D01*
X95639000Y-48854143D01*
X95496143Y-48925571D01*
X95353286Y-48925571D01*
X95210429Y-48854143D01*
X95139000Y-48782714D01*
X95067572Y-48639857D01*
X94996143Y-48354143D01*
X94996143Y-47997000D01*
X95067572Y-47711286D01*
X95139000Y-47568429D01*
X95210429Y-47497000D01*
X95353286Y-47425571D01*
X97281857Y-48925571D02*
X96424714Y-48925571D01*
X96853286Y-48925571D02*
X96853286Y-47425571D01*
X96710429Y-47639857D01*
X96567571Y-47782714D01*
X96424714Y-47854143D01*
X98639000Y-47425571D02*
X97924714Y-47425571D01*
X97853285Y-48139857D01*
X97924714Y-48068429D01*
X98067571Y-47997000D01*
X98424714Y-47997000D01*
X98567571Y-48068429D01*
X98639000Y-48139857D01*
X98710428Y-48282714D01*
X98710428Y-48639857D01*
X98639000Y-48782714D01*
X98567571Y-48854143D01*
X98424714Y-48925571D01*
X98067571Y-48925571D01*
X97924714Y-48854143D01*
X97853285Y-48782714D01*
D10*
X116179600Y-49174400D02*
X68021200Y-49174400D01*
X116179600Y-69342000D02*
X116179600Y-49174400D01*
X68021200Y-69342000D02*
X116179600Y-69342000D01*
X68021200Y-49174400D02*
X68021200Y-69342000D01*
X59994800Y-73828400D02*
X59994800Y-44653200D01*
X120040400Y-73828400D02*
X59994800Y-73828400D01*
X120040400Y-44653200D02*
X120040400Y-73828400D01*
X59994800Y-44653200D02*
X120040400Y-44653200D01*
D12*
X129966357Y-51244500D02*
X130038929Y-51026786D01*
X130038929Y-50663929D01*
X129966357Y-50518786D01*
X129893786Y-50446215D01*
X129748643Y-50373643D01*
X129603500Y-50373643D01*
X129458357Y-50446215D01*
X129385786Y-50518786D01*
X129313214Y-50663929D01*
X129240643Y-50954215D01*
X129168071Y-51099357D01*
X129095500Y-51171929D01*
X128950357Y-51244500D01*
X128805214Y-51244500D01*
X128660071Y-51171929D01*
X128587500Y-51099357D01*
X128514929Y-50954215D01*
X128514929Y-50591357D01*
X128587500Y-50373643D01*
X128514929Y-49865643D02*
X130038929Y-49502786D01*
X128950357Y-49212500D01*
X130038929Y-48922214D01*
X128514929Y-48559357D01*
X128660071Y-48051357D02*
X128587500Y-47978786D01*
X128514929Y-47833643D01*
X128514929Y-47470786D01*
X128587500Y-47325643D01*
X128660071Y-47253072D01*
X128805214Y-47180500D01*
X128950357Y-47180500D01*
X129168071Y-47253072D01*
X130038929Y-48123929D01*
X130038929Y-47180500D01*
X130474357Y-70104000D02*
X130546929Y-69886286D01*
X130546929Y-69523429D01*
X130474357Y-69378286D01*
X130401786Y-69305715D01*
X130256643Y-69233143D01*
X130111500Y-69233143D01*
X129966357Y-69305715D01*
X129893786Y-69378286D01*
X129821214Y-69523429D01*
X129748643Y-69813715D01*
X129676071Y-69958857D01*
X129603500Y-70031429D01*
X129458357Y-70104000D01*
X129313214Y-70104000D01*
X129168071Y-70031429D01*
X129095500Y-69958857D01*
X129022929Y-69813715D01*
X129022929Y-69450857D01*
X129095500Y-69233143D01*
X129022929Y-68725143D02*
X130546929Y-68362286D01*
X129458357Y-68072000D01*
X130546929Y-67781714D01*
X129022929Y-67418857D01*
X129022929Y-66983429D02*
X129022929Y-66040000D01*
X129603500Y-66548000D01*
X129603500Y-66330286D01*
X129676071Y-66185143D01*
X129748643Y-66112572D01*
X129893786Y-66040000D01*
X130256643Y-66040000D01*
X130401786Y-66112572D01*
X130474357Y-66185143D01*
X130546929Y-66330286D01*
X130546929Y-66765714D01*
X130474357Y-66910857D01*
X130401786Y-66983429D01*
M02*
