G04 #@! TF.FileFunction,Legend,Bot*
%FSLAX46Y46*%
G04 Gerber Fmt 4.6, Leading zero omitted, Abs format (unit mm)*
G04 Created by KiCad (PCBNEW (2015-04-29 BZR 5630)-product) date Tue 21 Jul 2015 17:06:27 BST*
%MOMM*%
G01*
G04 APERTURE LIST*
%ADD10C,0.150000*%
%ADD11C,0.200000*%
%ADD12C,0.300000*%
%ADD13C,0.200660*%
%ADD14C,0.152400*%
%ADD15C,0.099060*%
G04 APERTURE END LIST*
D10*
D11*
X116403191Y-67257762D02*
X116260334Y-67305381D01*
X116022238Y-67305381D01*
X115927000Y-67257762D01*
X115879381Y-67210143D01*
X115831762Y-67114905D01*
X115831762Y-67019667D01*
X115879381Y-66924429D01*
X115927000Y-66876810D01*
X116022238Y-66829190D01*
X116212715Y-66781571D01*
X116307953Y-66733952D01*
X116355572Y-66686333D01*
X116403191Y-66591095D01*
X116403191Y-66495857D01*
X116355572Y-66400619D01*
X116307953Y-66353000D01*
X116212715Y-66305381D01*
X115974619Y-66305381D01*
X115831762Y-66353000D01*
X115022238Y-67257762D02*
X115117476Y-67305381D01*
X115307953Y-67305381D01*
X115403191Y-67257762D01*
X115450810Y-67162524D01*
X115450810Y-66781571D01*
X115403191Y-66686333D01*
X115307953Y-66638714D01*
X115117476Y-66638714D01*
X115022238Y-66686333D01*
X114974619Y-66781571D01*
X114974619Y-66876810D01*
X115450810Y-66972048D01*
X114546048Y-67305381D02*
X114546048Y-66638714D01*
X114546048Y-66829190D02*
X114498429Y-66733952D01*
X114450810Y-66686333D01*
X114355572Y-66638714D01*
X114260333Y-66638714D01*
X113927000Y-67305381D02*
X113927000Y-66638714D01*
X113927000Y-66305381D02*
X113974619Y-66353000D01*
X113927000Y-66400619D01*
X113879381Y-66353000D01*
X113927000Y-66305381D01*
X113927000Y-66400619D01*
X113022238Y-67305381D02*
X113022238Y-66781571D01*
X113069857Y-66686333D01*
X113165095Y-66638714D01*
X113355572Y-66638714D01*
X113450810Y-66686333D01*
X113022238Y-67257762D02*
X113117476Y-67305381D01*
X113355572Y-67305381D01*
X113450810Y-67257762D01*
X113498429Y-67162524D01*
X113498429Y-67067286D01*
X113450810Y-66972048D01*
X113355572Y-66924429D01*
X113117476Y-66924429D01*
X113022238Y-66876810D01*
X112403191Y-67305381D02*
X112498429Y-67257762D01*
X112546048Y-67162524D01*
X112546048Y-66305381D01*
X118427000Y-67905381D02*
X117807952Y-67905381D01*
X118141286Y-68286333D01*
X117998428Y-68286333D01*
X117903190Y-68333952D01*
X117855571Y-68381571D01*
X117807952Y-68476810D01*
X117807952Y-68714905D01*
X117855571Y-68810143D01*
X117903190Y-68857762D01*
X117998428Y-68905381D01*
X118284143Y-68905381D01*
X118379381Y-68857762D01*
X118427000Y-68810143D01*
X117522238Y-67905381D02*
X117188905Y-68905381D01*
X116855571Y-67905381D01*
X116617476Y-67905381D02*
X115998428Y-67905381D01*
X116331762Y-68286333D01*
X116188904Y-68286333D01*
X116093666Y-68333952D01*
X116046047Y-68381571D01*
X115998428Y-68476810D01*
X115998428Y-68714905D01*
X116046047Y-68810143D01*
X116093666Y-68857762D01*
X116188904Y-68905381D01*
X116474619Y-68905381D01*
X116569857Y-68857762D01*
X116617476Y-68810143D01*
X114569857Y-69238714D02*
X114569857Y-67810143D01*
X112569856Y-67953000D02*
X112665094Y-67905381D01*
X112807951Y-67905381D01*
X112950809Y-67953000D01*
X113046047Y-68048238D01*
X113093666Y-68143476D01*
X113141285Y-68333952D01*
X113141285Y-68476810D01*
X113093666Y-68667286D01*
X113046047Y-68762524D01*
X112950809Y-68857762D01*
X112807951Y-68905381D01*
X112712713Y-68905381D01*
X112569856Y-68857762D01*
X112522237Y-68810143D01*
X112522237Y-68476810D01*
X112712713Y-68476810D01*
X112093666Y-68905381D02*
X112093666Y-67905381D01*
X111522237Y-68905381D01*
X111522237Y-67905381D01*
X111046047Y-68905381D02*
X111046047Y-67905381D01*
X110807952Y-67905381D01*
X110665094Y-67953000D01*
X110569856Y-68048238D01*
X110522237Y-68143476D01*
X110474618Y-68333952D01*
X110474618Y-68476810D01*
X110522237Y-68667286D01*
X110569856Y-68762524D01*
X110665094Y-68857762D01*
X110807952Y-68905381D01*
X111046047Y-68905381D01*
X118403191Y-69505381D02*
X117831762Y-69505381D01*
X118117477Y-70505381D02*
X118117477Y-69505381D01*
X117593667Y-69505381D02*
X116927000Y-70505381D01*
X116927000Y-69505381D02*
X117593667Y-70505381D01*
X116546048Y-70505381D02*
X116546048Y-69505381D01*
X116307953Y-69505381D01*
X116165095Y-69553000D01*
X116069857Y-69648238D01*
X116022238Y-69743476D01*
X115974619Y-69933952D01*
X115974619Y-70076810D01*
X116022238Y-70267286D01*
X116069857Y-70362524D01*
X116165095Y-70457762D01*
X116307953Y-70505381D01*
X116546048Y-70505381D01*
X114546048Y-70838714D02*
X114546048Y-69410143D01*
X112498428Y-70505381D02*
X112831762Y-70029190D01*
X113069857Y-70505381D02*
X113069857Y-69505381D01*
X112688904Y-69505381D01*
X112593666Y-69553000D01*
X112546047Y-69600619D01*
X112498428Y-69695857D01*
X112498428Y-69838714D01*
X112546047Y-69933952D01*
X112593666Y-69981571D01*
X112688904Y-70029190D01*
X113069857Y-70029190D01*
X112165095Y-69505381D02*
X111498428Y-70505381D01*
X111498428Y-69505381D02*
X112165095Y-70505381D01*
X111117476Y-70505381D02*
X111117476Y-69505381D01*
X110879381Y-69505381D01*
X110736523Y-69553000D01*
X110641285Y-69648238D01*
X110593666Y-69743476D01*
X110546047Y-69933952D01*
X110546047Y-70076810D01*
X110593666Y-70267286D01*
X110641285Y-70362524D01*
X110736523Y-70457762D01*
X110879381Y-70505381D01*
X111117476Y-70505381D01*
X116085714Y-57907381D02*
X116085714Y-56907381D01*
X115704761Y-56907381D01*
X115609523Y-56955000D01*
X115561904Y-57002619D01*
X115514285Y-57097857D01*
X115514285Y-57240714D01*
X115561904Y-57335952D01*
X115609523Y-57383571D01*
X115704761Y-57431190D01*
X116085714Y-57431190D01*
X114514285Y-57907381D02*
X114847619Y-57431190D01*
X115085714Y-57907381D02*
X115085714Y-56907381D01*
X114704761Y-56907381D01*
X114609523Y-56955000D01*
X114561904Y-57002619D01*
X114514285Y-57097857D01*
X114514285Y-57240714D01*
X114561904Y-57335952D01*
X114609523Y-57383571D01*
X114704761Y-57431190D01*
X115085714Y-57431190D01*
X113895238Y-56907381D02*
X113704761Y-56907381D01*
X113609523Y-56955000D01*
X113514285Y-57050238D01*
X113466666Y-57240714D01*
X113466666Y-57574048D01*
X113514285Y-57764524D01*
X113609523Y-57859762D01*
X113704761Y-57907381D01*
X113895238Y-57907381D01*
X113990476Y-57859762D01*
X114085714Y-57764524D01*
X114133333Y-57574048D01*
X114133333Y-57240714D01*
X114085714Y-57050238D01*
X113990476Y-56955000D01*
X113895238Y-56907381D01*
X112514285Y-56955000D02*
X112609523Y-56907381D01*
X112752380Y-56907381D01*
X112895238Y-56955000D01*
X112990476Y-57050238D01*
X113038095Y-57145476D01*
X113085714Y-57335952D01*
X113085714Y-57478810D01*
X113038095Y-57669286D01*
X112990476Y-57764524D01*
X112895238Y-57859762D01*
X112752380Y-57907381D01*
X112657142Y-57907381D01*
X112514285Y-57859762D01*
X112466666Y-57812143D01*
X112466666Y-57478810D01*
X112657142Y-57478810D01*
X118038095Y-58507381D02*
X117419047Y-58507381D01*
X117752381Y-58888333D01*
X117609523Y-58888333D01*
X117514285Y-58935952D01*
X117466666Y-58983571D01*
X117419047Y-59078810D01*
X117419047Y-59316905D01*
X117466666Y-59412143D01*
X117514285Y-59459762D01*
X117609523Y-59507381D01*
X117895238Y-59507381D01*
X117990476Y-59459762D01*
X118038095Y-59412143D01*
X117133333Y-58507381D02*
X116800000Y-59507381D01*
X116466666Y-58507381D01*
X116228571Y-58507381D02*
X115609523Y-58507381D01*
X115942857Y-58888333D01*
X115799999Y-58888333D01*
X115704761Y-58935952D01*
X115657142Y-58983571D01*
X115609523Y-59078810D01*
X115609523Y-59316905D01*
X115657142Y-59412143D01*
X115704761Y-59459762D01*
X115799999Y-59507381D01*
X116085714Y-59507381D01*
X116180952Y-59459762D01*
X116228571Y-59412143D01*
X114180952Y-59840714D02*
X114180952Y-58412143D01*
X112704761Y-59507381D02*
X112704761Y-58507381D01*
X112466666Y-58507381D01*
X112323808Y-58555000D01*
X112228570Y-58650238D01*
X112180951Y-58745476D01*
X112133332Y-58935952D01*
X112133332Y-59078810D01*
X112180951Y-59269286D01*
X112228570Y-59364524D01*
X112323808Y-59459762D01*
X112466666Y-59507381D01*
X112704761Y-59507381D01*
X111704761Y-59507381D02*
X111704761Y-58507381D01*
X111038095Y-58507381D02*
X110847618Y-58507381D01*
X110752380Y-58555000D01*
X110657142Y-58650238D01*
X110609523Y-58840714D01*
X110609523Y-59174048D01*
X110657142Y-59364524D01*
X110752380Y-59459762D01*
X110847618Y-59507381D01*
X111038095Y-59507381D01*
X111133333Y-59459762D01*
X111228571Y-59364524D01*
X111276190Y-59174048D01*
X111276190Y-58840714D01*
X111228571Y-58650238D01*
X111133333Y-58555000D01*
X111038095Y-58507381D01*
X117704762Y-60155000D02*
X117800000Y-60107381D01*
X117942857Y-60107381D01*
X118085715Y-60155000D01*
X118180953Y-60250238D01*
X118228572Y-60345476D01*
X118276191Y-60535952D01*
X118276191Y-60678810D01*
X118228572Y-60869286D01*
X118180953Y-60964524D01*
X118085715Y-61059762D01*
X117942857Y-61107381D01*
X117847619Y-61107381D01*
X117704762Y-61059762D01*
X117657143Y-61012143D01*
X117657143Y-60678810D01*
X117847619Y-60678810D01*
X117228572Y-61107381D02*
X117228572Y-60107381D01*
X116657143Y-61107381D01*
X116657143Y-60107381D01*
X116180953Y-61107381D02*
X116180953Y-60107381D01*
X115942858Y-60107381D01*
X115800000Y-60155000D01*
X115704762Y-60250238D01*
X115657143Y-60345476D01*
X115609524Y-60535952D01*
X115609524Y-60678810D01*
X115657143Y-60869286D01*
X115704762Y-60964524D01*
X115800000Y-61059762D01*
X115942858Y-61107381D01*
X116180953Y-61107381D01*
X114180953Y-61440714D02*
X114180953Y-60012143D01*
X112133333Y-61012143D02*
X112180952Y-61059762D01*
X112323809Y-61107381D01*
X112419047Y-61107381D01*
X112561905Y-61059762D01*
X112657143Y-60964524D01*
X112704762Y-60869286D01*
X112752381Y-60678810D01*
X112752381Y-60535952D01*
X112704762Y-60345476D01*
X112657143Y-60250238D01*
X112561905Y-60155000D01*
X112419047Y-60107381D01*
X112323809Y-60107381D01*
X112180952Y-60155000D01*
X112133333Y-60202619D01*
X111228571Y-61107381D02*
X111704762Y-61107381D01*
X111704762Y-60107381D01*
X110895238Y-61107381D02*
X110895238Y-60107381D01*
X110323809Y-61107381D02*
X110752381Y-60535952D01*
X110323809Y-60107381D02*
X110895238Y-60678810D01*
D12*
X94225428Y-46317857D02*
X94011142Y-46389286D01*
X93939714Y-46460714D01*
X93868285Y-46603571D01*
X93868285Y-46817857D01*
X93939714Y-46960714D01*
X94011142Y-47032143D01*
X94154000Y-47103571D01*
X94725428Y-47103571D01*
X94725428Y-45603571D01*
X94225428Y-45603571D01*
X94082571Y-45675000D01*
X94011142Y-45746429D01*
X93939714Y-45889286D01*
X93939714Y-46032143D01*
X94011142Y-46175000D01*
X94082571Y-46246429D01*
X94225428Y-46317857D01*
X94725428Y-46317857D01*
X93011142Y-47103571D02*
X93154000Y-47032143D01*
X93225428Y-46889286D01*
X93225428Y-45603571D01*
X91796857Y-46103571D02*
X91796857Y-47103571D01*
X92439714Y-46103571D02*
X92439714Y-46889286D01*
X92368286Y-47032143D01*
X92225428Y-47103571D01*
X92011143Y-47103571D01*
X91868286Y-47032143D01*
X91796857Y-46960714D01*
X90511143Y-47032143D02*
X90654000Y-47103571D01*
X90939714Y-47103571D01*
X91082571Y-47032143D01*
X91154000Y-46889286D01*
X91154000Y-46317857D01*
X91082571Y-46175000D01*
X90939714Y-46103571D01*
X90654000Y-46103571D01*
X90511143Y-46175000D01*
X90439714Y-46317857D01*
X90439714Y-46460714D01*
X91154000Y-46603571D01*
X90011143Y-46103571D02*
X89439714Y-46103571D01*
X89796857Y-45603571D02*
X89796857Y-46889286D01*
X89725429Y-47032143D01*
X89582571Y-47103571D01*
X89439714Y-47103571D01*
X88725428Y-47103571D02*
X88868286Y-47032143D01*
X88939714Y-46960714D01*
X89011143Y-46817857D01*
X89011143Y-46389286D01*
X88939714Y-46246429D01*
X88868286Y-46175000D01*
X88725428Y-46103571D01*
X88511143Y-46103571D01*
X88368286Y-46175000D01*
X88296857Y-46246429D01*
X88225428Y-46389286D01*
X88225428Y-46817857D01*
X88296857Y-46960714D01*
X88368286Y-47032143D01*
X88511143Y-47103571D01*
X88725428Y-47103571D01*
X87368285Y-47103571D02*
X87511143Y-47032143D01*
X87582571Y-46960714D01*
X87654000Y-46817857D01*
X87654000Y-46389286D01*
X87582571Y-46246429D01*
X87511143Y-46175000D01*
X87368285Y-46103571D01*
X87154000Y-46103571D01*
X87011143Y-46175000D01*
X86939714Y-46246429D01*
X86868285Y-46389286D01*
X86868285Y-46817857D01*
X86939714Y-46960714D01*
X87011143Y-47032143D01*
X87154000Y-47103571D01*
X87368285Y-47103571D01*
X86439714Y-46103571D02*
X85868285Y-46103571D01*
X86225428Y-45603571D02*
X86225428Y-46889286D01*
X86154000Y-47032143D01*
X86011142Y-47103571D01*
X85868285Y-47103571D01*
X85368285Y-47103571D02*
X85368285Y-45603571D01*
X84725428Y-47103571D02*
X84725428Y-46317857D01*
X84796857Y-46175000D01*
X84939714Y-46103571D01*
X85153999Y-46103571D01*
X85296857Y-46175000D01*
X85368285Y-46246429D01*
X98225428Y-48717857D02*
X97725428Y-48717857D01*
X97511142Y-49503571D02*
X98225428Y-49503571D01*
X98225428Y-48003571D01*
X97511142Y-48003571D01*
X96868285Y-48932143D02*
X95725428Y-48932143D01*
X95011142Y-49503571D02*
X95011142Y-48003571D01*
X94439714Y-48003571D01*
X94296856Y-48075000D01*
X94225428Y-48146429D01*
X94153999Y-48289286D01*
X94153999Y-48503571D01*
X94225428Y-48646429D01*
X94296856Y-48717857D01*
X94439714Y-48789286D01*
X95011142Y-48789286D01*
X92868285Y-49503571D02*
X92868285Y-48717857D01*
X92939714Y-48575000D01*
X93082571Y-48503571D01*
X93368285Y-48503571D01*
X93511142Y-48575000D01*
X92868285Y-49432143D02*
X93011142Y-49503571D01*
X93368285Y-49503571D01*
X93511142Y-49432143D01*
X93582571Y-49289286D01*
X93582571Y-49146429D01*
X93511142Y-49003571D01*
X93368285Y-48932143D01*
X93011142Y-48932143D01*
X92868285Y-48860714D01*
X92153999Y-48503571D02*
X92153999Y-50003571D01*
X92153999Y-48575000D02*
X92011142Y-48503571D01*
X91725428Y-48503571D01*
X91582571Y-48575000D01*
X91511142Y-48646429D01*
X91439713Y-48789286D01*
X91439713Y-49217857D01*
X91511142Y-49360714D01*
X91582571Y-49432143D01*
X91725428Y-49503571D01*
X92011142Y-49503571D01*
X92153999Y-49432143D01*
X90225428Y-49432143D02*
X90368285Y-49503571D01*
X90653999Y-49503571D01*
X90796856Y-49432143D01*
X90868285Y-49289286D01*
X90868285Y-48717857D01*
X90796856Y-48575000D01*
X90653999Y-48503571D01*
X90368285Y-48503571D01*
X90225428Y-48575000D01*
X90153999Y-48717857D01*
X90153999Y-48860714D01*
X90868285Y-49003571D01*
X89511142Y-49503571D02*
X89511142Y-48503571D01*
X89511142Y-48789286D02*
X89439714Y-48646429D01*
X89368285Y-48575000D01*
X89225428Y-48503571D01*
X89082571Y-48503571D01*
X87439714Y-49503571D02*
X87439714Y-48003571D01*
X87082571Y-48003571D01*
X86868286Y-48075000D01*
X86725428Y-48217857D01*
X86654000Y-48360714D01*
X86582571Y-48646429D01*
X86582571Y-48860714D01*
X86654000Y-49146429D01*
X86725428Y-49289286D01*
X86868286Y-49432143D01*
X87082571Y-49503571D01*
X87439714Y-49503571D01*
X85939714Y-49503571D02*
X85939714Y-48503571D01*
X85939714Y-48003571D02*
X86011143Y-48075000D01*
X85939714Y-48146429D01*
X85868286Y-48075000D01*
X85939714Y-48003571D01*
X85939714Y-48146429D01*
X85296857Y-49432143D02*
X85154000Y-49503571D01*
X84868285Y-49503571D01*
X84725428Y-49432143D01*
X84654000Y-49289286D01*
X84654000Y-49217857D01*
X84725428Y-49075000D01*
X84868285Y-49003571D01*
X85082571Y-49003571D01*
X85225428Y-48932143D01*
X85296857Y-48789286D01*
X85296857Y-48717857D01*
X85225428Y-48575000D01*
X85082571Y-48503571D01*
X84868285Y-48503571D01*
X84725428Y-48575000D01*
X84011142Y-48503571D02*
X84011142Y-50003571D01*
X84011142Y-48575000D02*
X83868285Y-48503571D01*
X83582571Y-48503571D01*
X83439714Y-48575000D01*
X83368285Y-48646429D01*
X83296856Y-48789286D01*
X83296856Y-49217857D01*
X83368285Y-49360714D01*
X83439714Y-49432143D01*
X83582571Y-49503571D01*
X83868285Y-49503571D01*
X84011142Y-49432143D01*
X82439713Y-49503571D02*
X82582571Y-49432143D01*
X82653999Y-49289286D01*
X82653999Y-48003571D01*
X81225428Y-49503571D02*
X81225428Y-48717857D01*
X81296857Y-48575000D01*
X81439714Y-48503571D01*
X81725428Y-48503571D01*
X81868285Y-48575000D01*
X81225428Y-49432143D02*
X81368285Y-49503571D01*
X81725428Y-49503571D01*
X81868285Y-49432143D01*
X81939714Y-49289286D01*
X81939714Y-49146429D01*
X81868285Y-49003571D01*
X81725428Y-48932143D01*
X81368285Y-48932143D01*
X81225428Y-48860714D01*
X80653999Y-48503571D02*
X80296856Y-49503571D01*
X79939714Y-48503571D02*
X80296856Y-49503571D01*
X80439714Y-49860714D01*
X80511142Y-49932143D01*
X80653999Y-50003571D01*
D11*
X131840668Y-72064571D02*
X131697811Y-72112190D01*
X131650192Y-72159810D01*
X131602573Y-72255048D01*
X131602573Y-72397905D01*
X131650192Y-72493143D01*
X131697811Y-72540762D01*
X131793049Y-72588381D01*
X132174002Y-72588381D01*
X132174002Y-71588381D01*
X131840668Y-71588381D01*
X131745430Y-71636000D01*
X131697811Y-71683619D01*
X131650192Y-71778857D01*
X131650192Y-71874095D01*
X131697811Y-71969333D01*
X131745430Y-72016952D01*
X131840668Y-72064571D01*
X132174002Y-72064571D01*
X131031145Y-72588381D02*
X131126383Y-72540762D01*
X131174002Y-72445524D01*
X131174002Y-71588381D01*
X130221620Y-71921714D02*
X130221620Y-72588381D01*
X130650192Y-71921714D02*
X130650192Y-72445524D01*
X130602573Y-72540762D01*
X130507335Y-72588381D01*
X130364477Y-72588381D01*
X130269239Y-72540762D01*
X130221620Y-72493143D01*
X129364477Y-72540762D02*
X129459715Y-72588381D01*
X129650192Y-72588381D01*
X129745430Y-72540762D01*
X129793049Y-72445524D01*
X129793049Y-72064571D01*
X129745430Y-71969333D01*
X129650192Y-71921714D01*
X129459715Y-71921714D01*
X129364477Y-71969333D01*
X129316858Y-72064571D01*
X129316858Y-72159810D01*
X129793049Y-72255048D01*
X129031144Y-71921714D02*
X128650192Y-71921714D01*
X128888287Y-71588381D02*
X128888287Y-72445524D01*
X128840668Y-72540762D01*
X128745430Y-72588381D01*
X128650192Y-72588381D01*
X128174001Y-72588381D02*
X128269239Y-72540762D01*
X128316858Y-72493143D01*
X128364477Y-72397905D01*
X128364477Y-72112190D01*
X128316858Y-72016952D01*
X128269239Y-71969333D01*
X128174001Y-71921714D01*
X128031143Y-71921714D01*
X127935905Y-71969333D01*
X127888286Y-72016952D01*
X127840667Y-72112190D01*
X127840667Y-72397905D01*
X127888286Y-72493143D01*
X127935905Y-72540762D01*
X128031143Y-72588381D01*
X128174001Y-72588381D01*
X127269239Y-72588381D02*
X127364477Y-72540762D01*
X127412096Y-72493143D01*
X127459715Y-72397905D01*
X127459715Y-72112190D01*
X127412096Y-72016952D01*
X127364477Y-71969333D01*
X127269239Y-71921714D01*
X127126381Y-71921714D01*
X127031143Y-71969333D01*
X126983524Y-72016952D01*
X126935905Y-72112190D01*
X126935905Y-72397905D01*
X126983524Y-72493143D01*
X127031143Y-72540762D01*
X127126381Y-72588381D01*
X127269239Y-72588381D01*
X126650191Y-71921714D02*
X126269239Y-71921714D01*
X126507334Y-71588381D02*
X126507334Y-72445524D01*
X126459715Y-72540762D01*
X126364477Y-72588381D01*
X126269239Y-72588381D01*
X125935905Y-72588381D02*
X125935905Y-71588381D01*
X125507333Y-72588381D02*
X125507333Y-72064571D01*
X125554952Y-71969333D01*
X125650190Y-71921714D01*
X125793048Y-71921714D01*
X125888286Y-71969333D01*
X125935905Y-72016952D01*
X124269238Y-72064571D02*
X123935904Y-72064571D01*
X123793047Y-72588381D02*
X124269238Y-72588381D01*
X124269238Y-71588381D01*
X123793047Y-71588381D01*
X123364476Y-72207429D02*
X122602571Y-72207429D01*
X122126381Y-72588381D02*
X122126381Y-71588381D01*
X121745428Y-71588381D01*
X121650190Y-71636000D01*
X121602571Y-71683619D01*
X121554952Y-71778857D01*
X121554952Y-71921714D01*
X121602571Y-72016952D01*
X121650190Y-72064571D01*
X121745428Y-72112190D01*
X122126381Y-72112190D01*
X120697809Y-72588381D02*
X120697809Y-72064571D01*
X120745428Y-71969333D01*
X120840666Y-71921714D01*
X121031143Y-71921714D01*
X121126381Y-71969333D01*
X120697809Y-72540762D02*
X120793047Y-72588381D01*
X121031143Y-72588381D01*
X121126381Y-72540762D01*
X121174000Y-72445524D01*
X121174000Y-72350286D01*
X121126381Y-72255048D01*
X121031143Y-72207429D01*
X120793047Y-72207429D01*
X120697809Y-72159810D01*
X120221619Y-71921714D02*
X120221619Y-72921714D01*
X120221619Y-71969333D02*
X120126381Y-71921714D01*
X119935904Y-71921714D01*
X119840666Y-71969333D01*
X119793047Y-72016952D01*
X119745428Y-72112190D01*
X119745428Y-72397905D01*
X119793047Y-72493143D01*
X119840666Y-72540762D01*
X119935904Y-72588381D01*
X120126381Y-72588381D01*
X120221619Y-72540762D01*
X118935904Y-72540762D02*
X119031142Y-72588381D01*
X119221619Y-72588381D01*
X119316857Y-72540762D01*
X119364476Y-72445524D01*
X119364476Y-72064571D01*
X119316857Y-71969333D01*
X119221619Y-71921714D01*
X119031142Y-71921714D01*
X118935904Y-71969333D01*
X118888285Y-72064571D01*
X118888285Y-72159810D01*
X119364476Y-72255048D01*
X118459714Y-72588381D02*
X118459714Y-71921714D01*
X118459714Y-72112190D02*
X118412095Y-72016952D01*
X118364476Y-71969333D01*
X118269238Y-71921714D01*
X118173999Y-71921714D01*
X117078761Y-72588381D02*
X117078761Y-71588381D01*
X116840666Y-71588381D01*
X116697808Y-71636000D01*
X116602570Y-71731238D01*
X116554951Y-71826476D01*
X116507332Y-72016952D01*
X116507332Y-72159810D01*
X116554951Y-72350286D01*
X116602570Y-72445524D01*
X116697808Y-72540762D01*
X116840666Y-72588381D01*
X117078761Y-72588381D01*
X116078761Y-72588381D02*
X116078761Y-71921714D01*
X116078761Y-71588381D02*
X116126380Y-71636000D01*
X116078761Y-71683619D01*
X116031142Y-71636000D01*
X116078761Y-71588381D01*
X116078761Y-71683619D01*
X115650190Y-72540762D02*
X115554952Y-72588381D01*
X115364476Y-72588381D01*
X115269237Y-72540762D01*
X115221618Y-72445524D01*
X115221618Y-72397905D01*
X115269237Y-72302667D01*
X115364476Y-72255048D01*
X115507333Y-72255048D01*
X115602571Y-72207429D01*
X115650190Y-72112190D01*
X115650190Y-72064571D01*
X115602571Y-71969333D01*
X115507333Y-71921714D01*
X115364476Y-71921714D01*
X115269237Y-71969333D01*
X114793047Y-71921714D02*
X114793047Y-72921714D01*
X114793047Y-71969333D02*
X114697809Y-71921714D01*
X114507332Y-71921714D01*
X114412094Y-71969333D01*
X114364475Y-72016952D01*
X114316856Y-72112190D01*
X114316856Y-72397905D01*
X114364475Y-72493143D01*
X114412094Y-72540762D01*
X114507332Y-72588381D01*
X114697809Y-72588381D01*
X114793047Y-72540762D01*
X113745428Y-72588381D02*
X113840666Y-72540762D01*
X113888285Y-72445524D01*
X113888285Y-71588381D01*
X112935903Y-72588381D02*
X112935903Y-72064571D01*
X112983522Y-71969333D01*
X113078760Y-71921714D01*
X113269237Y-71921714D01*
X113364475Y-71969333D01*
X112935903Y-72540762D02*
X113031141Y-72588381D01*
X113269237Y-72588381D01*
X113364475Y-72540762D01*
X113412094Y-72445524D01*
X113412094Y-72350286D01*
X113364475Y-72255048D01*
X113269237Y-72207429D01*
X113031141Y-72207429D01*
X112935903Y-72159810D01*
X112554951Y-71921714D02*
X112316856Y-72588381D01*
X112078760Y-71921714D02*
X112316856Y-72588381D01*
X112412094Y-72826476D01*
X112459713Y-72874095D01*
X112554951Y-72921714D01*
X132554954Y-73188381D02*
X131888287Y-73188381D01*
X132554954Y-74188381D01*
X131888287Y-74188381D01*
X131364478Y-74188381D02*
X131459716Y-74140762D01*
X131507335Y-74093143D01*
X131554954Y-73997905D01*
X131554954Y-73712190D01*
X131507335Y-73616952D01*
X131459716Y-73569333D01*
X131364478Y-73521714D01*
X131221620Y-73521714D01*
X131126382Y-73569333D01*
X131078763Y-73616952D01*
X131031144Y-73712190D01*
X131031144Y-73997905D01*
X131078763Y-74093143D01*
X131126382Y-74140762D01*
X131221620Y-74188381D01*
X131364478Y-74188381D01*
X130221620Y-74140762D02*
X130316858Y-74188381D01*
X130507335Y-74188381D01*
X130602573Y-74140762D01*
X130650192Y-74045524D01*
X130650192Y-73664571D01*
X130602573Y-73569333D01*
X130507335Y-73521714D01*
X130316858Y-73521714D01*
X130221620Y-73569333D01*
X130174001Y-73664571D01*
X130174001Y-73759810D01*
X130650192Y-73855048D01*
X129888287Y-73521714D02*
X129507335Y-73521714D01*
X129745430Y-73188381D02*
X129745430Y-74045524D01*
X129697811Y-74140762D01*
X129602573Y-74188381D01*
X129507335Y-74188381D01*
X129174001Y-74188381D02*
X129174001Y-73521714D01*
X129174001Y-73712190D02*
X129126382Y-73616952D01*
X129078763Y-73569333D01*
X128983525Y-73521714D01*
X128888286Y-73521714D01*
X128412096Y-74188381D02*
X128507334Y-74140762D01*
X128554953Y-74093143D01*
X128602572Y-73997905D01*
X128602572Y-73712190D01*
X128554953Y-73616952D01*
X128507334Y-73569333D01*
X128412096Y-73521714D01*
X128269238Y-73521714D01*
X128174000Y-73569333D01*
X128126381Y-73616952D01*
X128078762Y-73712190D01*
X128078762Y-73997905D01*
X128126381Y-74093143D01*
X128174000Y-74140762D01*
X128269238Y-74188381D01*
X128412096Y-74188381D01*
X127650191Y-73521714D02*
X127650191Y-74521714D01*
X127650191Y-73569333D02*
X127554953Y-73521714D01*
X127364476Y-73521714D01*
X127269238Y-73569333D01*
X127221619Y-73616952D01*
X127174000Y-73712190D01*
X127174000Y-73997905D01*
X127221619Y-74093143D01*
X127269238Y-74140762D01*
X127364476Y-74188381D01*
X127554953Y-74188381D01*
X127650191Y-74140762D01*
X126364476Y-74140762D02*
X126459714Y-74188381D01*
X126650191Y-74188381D01*
X126745429Y-74140762D01*
X126793048Y-74045524D01*
X126793048Y-73664571D01*
X126745429Y-73569333D01*
X126650191Y-73521714D01*
X126459714Y-73521714D01*
X126364476Y-73569333D01*
X126316857Y-73664571D01*
X126316857Y-73759810D01*
X126793048Y-73855048D01*
X124650190Y-74188381D02*
X125126381Y-74188381D01*
X125126381Y-73188381D01*
X123888285Y-74188381D02*
X123888285Y-73664571D01*
X123935904Y-73569333D01*
X124031142Y-73521714D01*
X124221619Y-73521714D01*
X124316857Y-73569333D01*
X123888285Y-74140762D02*
X123983523Y-74188381D01*
X124221619Y-74188381D01*
X124316857Y-74140762D01*
X124364476Y-74045524D01*
X124364476Y-73950286D01*
X124316857Y-73855048D01*
X124221619Y-73807429D01*
X123983523Y-73807429D01*
X123888285Y-73759810D01*
X123412095Y-74188381D02*
X123412095Y-73188381D01*
X123412095Y-73569333D02*
X123316857Y-73521714D01*
X123126380Y-73521714D01*
X123031142Y-73569333D01*
X122983523Y-73616952D01*
X122935904Y-73712190D01*
X122935904Y-73997905D01*
X122983523Y-74093143D01*
X123031142Y-74140762D01*
X123126380Y-74188381D01*
X123316857Y-74188381D01*
X123412095Y-74140762D01*
X122554952Y-74140762D02*
X122459714Y-74188381D01*
X122269238Y-74188381D01*
X122173999Y-74140762D01*
X122126380Y-74045524D01*
X122126380Y-73997905D01*
X122173999Y-73902667D01*
X122269238Y-73855048D01*
X122412095Y-73855048D01*
X122507333Y-73807429D01*
X122554952Y-73712190D01*
X122554952Y-73664571D01*
X122507333Y-73569333D01*
X122412095Y-73521714D01*
X122269238Y-73521714D01*
X122173999Y-73569333D01*
X120697809Y-74521714D02*
X120697809Y-73093143D01*
X119364475Y-73188381D02*
X119031142Y-74188381D01*
X118697808Y-73188381D01*
X118173999Y-73188381D02*
X118078760Y-73188381D01*
X117983522Y-73236000D01*
X117935903Y-73283619D01*
X117888284Y-73378857D01*
X117840665Y-73569333D01*
X117840665Y-73807429D01*
X117888284Y-73997905D01*
X117935903Y-74093143D01*
X117983522Y-74140762D01*
X118078760Y-74188381D01*
X118173999Y-74188381D01*
X118269237Y-74140762D01*
X118316856Y-74093143D01*
X118364475Y-73997905D01*
X118412094Y-73807429D01*
X118412094Y-73569333D01*
X118364475Y-73378857D01*
X118316856Y-73283619D01*
X118269237Y-73236000D01*
X118173999Y-73188381D01*
X117412094Y-74093143D02*
X117364475Y-74140762D01*
X117412094Y-74188381D01*
X117459713Y-74140762D01*
X117412094Y-74093143D01*
X117412094Y-74188381D01*
X116983523Y-73283619D02*
X116935904Y-73236000D01*
X116840666Y-73188381D01*
X116602570Y-73188381D01*
X116507332Y-73236000D01*
X116459713Y-73283619D01*
X116412094Y-73378857D01*
X116412094Y-73474095D01*
X116459713Y-73616952D01*
X117031142Y-74188381D01*
X116412094Y-74188381D01*
X115269237Y-73283619D02*
X115221618Y-73236000D01*
X115126380Y-73188381D01*
X114888284Y-73188381D01*
X114793046Y-73236000D01*
X114745427Y-73283619D01*
X114697808Y-73378857D01*
X114697808Y-73474095D01*
X114745427Y-73616952D01*
X115316856Y-74188381D01*
X114697808Y-74188381D01*
X114078761Y-73188381D02*
X113983522Y-73188381D01*
X113888284Y-73236000D01*
X113840665Y-73283619D01*
X113793046Y-73378857D01*
X113745427Y-73569333D01*
X113745427Y-73807429D01*
X113793046Y-73997905D01*
X113840665Y-74093143D01*
X113888284Y-74140762D01*
X113983522Y-74188381D01*
X114078761Y-74188381D01*
X114173999Y-74140762D01*
X114221618Y-74093143D01*
X114269237Y-73997905D01*
X114316856Y-73807429D01*
X114316856Y-73569333D01*
X114269237Y-73378857D01*
X114221618Y-73283619D01*
X114173999Y-73236000D01*
X114078761Y-73188381D01*
X112793046Y-74188381D02*
X113364475Y-74188381D01*
X113078761Y-74188381D02*
X113078761Y-73188381D01*
X113173999Y-73331238D01*
X113269237Y-73426476D01*
X113364475Y-73474095D01*
X111888284Y-73188381D02*
X112364475Y-73188381D01*
X112412094Y-73664571D01*
X112364475Y-73616952D01*
X112269237Y-73569333D01*
X112031141Y-73569333D01*
X111935903Y-73616952D01*
X111888284Y-73664571D01*
X111840665Y-73759810D01*
X111840665Y-73997905D01*
X111888284Y-74093143D01*
X111935903Y-74140762D01*
X112031141Y-74188381D01*
X112269237Y-74188381D01*
X112364475Y-74140762D01*
X112412094Y-74093143D01*
D12*
X119236142Y-45279571D02*
X118236142Y-45279571D01*
X119236142Y-46779571D01*
X118236142Y-46779571D01*
X117450428Y-46779571D02*
X117593286Y-46708143D01*
X117664714Y-46636714D01*
X117736143Y-46493857D01*
X117736143Y-46065286D01*
X117664714Y-45922429D01*
X117593286Y-45851000D01*
X117450428Y-45779571D01*
X117236143Y-45779571D01*
X117093286Y-45851000D01*
X117021857Y-45922429D01*
X116950428Y-46065286D01*
X116950428Y-46493857D01*
X117021857Y-46636714D01*
X117093286Y-46708143D01*
X117236143Y-46779571D01*
X117450428Y-46779571D01*
X115736143Y-46708143D02*
X115879000Y-46779571D01*
X116164714Y-46779571D01*
X116307571Y-46708143D01*
X116379000Y-46565286D01*
X116379000Y-45993857D01*
X116307571Y-45851000D01*
X116164714Y-45779571D01*
X115879000Y-45779571D01*
X115736143Y-45851000D01*
X115664714Y-45993857D01*
X115664714Y-46136714D01*
X116379000Y-46279571D01*
X115236143Y-45779571D02*
X114664714Y-45779571D01*
X115021857Y-45279571D02*
X115021857Y-46565286D01*
X114950429Y-46708143D01*
X114807571Y-46779571D01*
X114664714Y-46779571D01*
X114164714Y-46779571D02*
X114164714Y-45779571D01*
X114164714Y-46065286D02*
X114093286Y-45922429D01*
X114021857Y-45851000D01*
X113879000Y-45779571D01*
X113736143Y-45779571D01*
X113021857Y-46779571D02*
X113164715Y-46708143D01*
X113236143Y-46636714D01*
X113307572Y-46493857D01*
X113307572Y-46065286D01*
X113236143Y-45922429D01*
X113164715Y-45851000D01*
X113021857Y-45779571D01*
X112807572Y-45779571D01*
X112664715Y-45851000D01*
X112593286Y-45922429D01*
X112521857Y-46065286D01*
X112521857Y-46493857D01*
X112593286Y-46636714D01*
X112664715Y-46708143D01*
X112807572Y-46779571D01*
X113021857Y-46779571D01*
X111879000Y-45779571D02*
X111879000Y-47279571D01*
X111879000Y-45851000D02*
X111736143Y-45779571D01*
X111450429Y-45779571D01*
X111307572Y-45851000D01*
X111236143Y-45922429D01*
X111164714Y-46065286D01*
X111164714Y-46493857D01*
X111236143Y-46636714D01*
X111307572Y-46708143D01*
X111450429Y-46779571D01*
X111736143Y-46779571D01*
X111879000Y-46708143D01*
X109950429Y-46708143D02*
X110093286Y-46779571D01*
X110379000Y-46779571D01*
X110521857Y-46708143D01*
X110593286Y-46565286D01*
X110593286Y-45993857D01*
X110521857Y-45851000D01*
X110379000Y-45779571D01*
X110093286Y-45779571D01*
X109950429Y-45851000D01*
X109879000Y-45993857D01*
X109879000Y-46136714D01*
X110593286Y-46279571D01*
X107379000Y-46779571D02*
X108093286Y-46779571D01*
X108093286Y-45279571D01*
X106236143Y-46779571D02*
X106236143Y-45993857D01*
X106307572Y-45851000D01*
X106450429Y-45779571D01*
X106736143Y-45779571D01*
X106879000Y-45851000D01*
X106236143Y-46708143D02*
X106379000Y-46779571D01*
X106736143Y-46779571D01*
X106879000Y-46708143D01*
X106950429Y-46565286D01*
X106950429Y-46422429D01*
X106879000Y-46279571D01*
X106736143Y-46208143D01*
X106379000Y-46208143D01*
X106236143Y-46136714D01*
X105521857Y-46779571D02*
X105521857Y-45279571D01*
X105521857Y-45851000D02*
X105379000Y-45779571D01*
X105093286Y-45779571D01*
X104950429Y-45851000D01*
X104879000Y-45922429D01*
X104807571Y-46065286D01*
X104807571Y-46493857D01*
X104879000Y-46636714D01*
X104950429Y-46708143D01*
X105093286Y-46779571D01*
X105379000Y-46779571D01*
X105521857Y-46708143D01*
X104236143Y-46708143D02*
X104093286Y-46779571D01*
X103807571Y-46779571D01*
X103664714Y-46708143D01*
X103593286Y-46565286D01*
X103593286Y-46493857D01*
X103664714Y-46351000D01*
X103807571Y-46279571D01*
X104021857Y-46279571D01*
X104164714Y-46208143D01*
X104236143Y-46065286D01*
X104236143Y-45993857D01*
X104164714Y-45851000D01*
X104021857Y-45779571D01*
X103807571Y-45779571D01*
X103664714Y-45851000D01*
D10*
X78247240Y-45246340D02*
X78247240Y-45294600D01*
X77546200Y-48045320D02*
X78247240Y-48045320D01*
X78247240Y-48045320D02*
X78247240Y-47796400D01*
X78247240Y-45246340D02*
X78247240Y-45045680D01*
X78247240Y-45045680D02*
X77546200Y-45045680D01*
X79309800Y-57584240D02*
X76909800Y-57584240D01*
X79309800Y-55958840D02*
X76909800Y-55958840D01*
X73548240Y-44928840D02*
X73548240Y-44977100D01*
X72847200Y-47727820D02*
X73548240Y-47727820D01*
X73548240Y-47727820D02*
X73548240Y-47478900D01*
X73548240Y-44928840D02*
X73548240Y-44728180D01*
X73548240Y-44728180D02*
X72847200Y-44728180D01*
X66167000Y-66741500D02*
X65265300Y-66741500D01*
X66128900Y-50244200D02*
X65278000Y-50244200D01*
X66660000Y-66741000D02*
X66160000Y-66741000D01*
X65271000Y-66753700D02*
X65271000Y-67753700D01*
X65271000Y-67753700D02*
X64271000Y-67753700D01*
X64271000Y-67753700D02*
X64271000Y-49253700D01*
X64271000Y-49253700D02*
X64771000Y-49253700D01*
X64771000Y-49253700D02*
X65271000Y-49253700D01*
X65271000Y-49253700D02*
X65271000Y-50253700D01*
X66160000Y-50241000D02*
X66660000Y-50241000D01*
X70660000Y-64241000D02*
X70660000Y-48741000D01*
X70660000Y-64241000D02*
X70660000Y-68241000D01*
X70660000Y-48741000D02*
X66660000Y-48741000D01*
X66660000Y-48741000D02*
X66660000Y-52241000D01*
X70660000Y-68241000D02*
X66660000Y-68241000D01*
X66660000Y-68241000D02*
X66660000Y-52241000D01*
X79340000Y-68422000D02*
X79340000Y-67722000D01*
X78140000Y-67722000D02*
X78140000Y-68422000D01*
X110455000Y-50769000D02*
X110455000Y-50069000D01*
X109255000Y-50069000D02*
X109255000Y-50769000D01*
X61411600Y-64449400D02*
X60711600Y-64449400D01*
X60711600Y-65649400D02*
X61411600Y-65649400D01*
X61437000Y-61122000D02*
X60737000Y-61122000D01*
X60737000Y-62322000D02*
X61437000Y-62322000D01*
X61462400Y-59318600D02*
X60762400Y-59318600D01*
X60762400Y-60518600D02*
X61462400Y-60518600D01*
X76993000Y-51908000D02*
X77693000Y-51908000D01*
X77693000Y-50708000D02*
X76993000Y-50708000D01*
X76993000Y-53559000D02*
X77693000Y-53559000D01*
X77693000Y-52359000D02*
X76993000Y-52359000D01*
X60804500Y-53815500D02*
X60804500Y-54515500D01*
X62004500Y-54515500D02*
X62004500Y-53815500D01*
X72675000Y-66449500D02*
X73375000Y-66449500D01*
X73375000Y-65249500D02*
X72675000Y-65249500D01*
X131884420Y-66616580D02*
X132783580Y-66616580D01*
X132783580Y-66616580D02*
X132783580Y-67015360D01*
X131884420Y-67015360D02*
X132783580Y-67015360D01*
X131884420Y-66616580D02*
X131884420Y-67015360D01*
X131884420Y-65318640D02*
X132783580Y-65318640D01*
X132783580Y-65318640D02*
X132783580Y-65717420D01*
X131884420Y-65717420D02*
X132783580Y-65717420D01*
X131884420Y-65318640D02*
X131884420Y-65717420D01*
X131884420Y-66167000D02*
X132034280Y-66167000D01*
X132034280Y-66167000D02*
X132034280Y-66466720D01*
X131884420Y-66466720D02*
X132034280Y-66466720D01*
X131884420Y-66167000D02*
X131884420Y-66466720D01*
X132633720Y-66167000D02*
X132783580Y-66167000D01*
X132783580Y-66167000D02*
X132783580Y-66466720D01*
X132633720Y-66466720D02*
X132783580Y-66466720D01*
X132633720Y-66167000D02*
X132633720Y-66466720D01*
X132184140Y-66167000D02*
X132483860Y-66167000D01*
X132483860Y-66167000D02*
X132483860Y-66466720D01*
X132184140Y-66466720D02*
X132483860Y-66466720D01*
X132184140Y-66167000D02*
X132184140Y-66466720D01*
X131935220Y-66616580D02*
X131935220Y-65717420D01*
X132732780Y-66616580D02*
X132732780Y-65717420D01*
X133009000Y-69588000D02*
X133009000Y-68588000D01*
X131659000Y-68588000D02*
X131659000Y-69588000D01*
X119721000Y-62873000D02*
X119721000Y-63873000D01*
X121071000Y-63873000D02*
X121071000Y-62873000D01*
X74414000Y-48220000D02*
X73414000Y-48220000D01*
X73414000Y-49570000D02*
X74414000Y-49570000D01*
X121844000Y-62692000D02*
G75*
G03X121844000Y-62692000I-100000J0D01*
G01*
X121994000Y-63242000D02*
X121994000Y-62742000D01*
X124894000Y-63242000D02*
X121994000Y-63242000D01*
X124894000Y-62742000D02*
X124894000Y-63242000D01*
X121994000Y-62742000D02*
X124894000Y-62742000D01*
X95097600Y-72440800D02*
X83997800Y-72440800D01*
X83947000Y-72440800D02*
X83947000Y-73964800D01*
X83947000Y-73964800D02*
X95097600Y-73964800D01*
X95097600Y-73964800D02*
X95097600Y-72440800D01*
X96901000Y-59563000D02*
X81661000Y-59563000D01*
X81661000Y-59563000D02*
X81661000Y-74803000D01*
X81661000Y-74803000D02*
X96901000Y-74803000D01*
X96901000Y-74803000D02*
X96901000Y-59563000D01*
X117848200Y-49901400D02*
X117848200Y-50046400D01*
X113698200Y-49901400D02*
X113698200Y-50046400D01*
X113698200Y-55051400D02*
X113698200Y-54906400D01*
X117848200Y-55051400D02*
X117848200Y-54906400D01*
X117848200Y-49901400D02*
X113698200Y-49901400D01*
X117848200Y-55051400D02*
X113698200Y-55051400D01*
X117848200Y-50046400D02*
X119248200Y-50046400D01*
X60804500Y-49243500D02*
X60804500Y-49943500D01*
X62004500Y-49943500D02*
X62004500Y-49243500D01*
X72700400Y-62969700D02*
X73400400Y-62969700D01*
X73400400Y-61769700D02*
X72700400Y-61769700D01*
X72675000Y-64798500D02*
X73375000Y-64798500D01*
X73375000Y-63598500D02*
X72675000Y-63598500D01*
X76108000Y-67722000D02*
X76108000Y-68422000D01*
X77308000Y-68422000D02*
X77308000Y-67722000D01*
X64195200Y-43178200D02*
X62195200Y-43178200D01*
X62195200Y-46128200D02*
X64195200Y-46128200D01*
X76993000Y-55210000D02*
X77693000Y-55210000D01*
X77693000Y-54010000D02*
X76993000Y-54010000D01*
X61437000Y-62773000D02*
X60737000Y-62773000D01*
X60737000Y-63973000D02*
X61437000Y-63973000D01*
X124206000Y-56769000D02*
X121666000Y-56769000D01*
X127026000Y-56489000D02*
X125476000Y-56489000D01*
X124206000Y-56769000D02*
X124206000Y-59309000D01*
X125476000Y-59589000D02*
X127026000Y-59589000D01*
X127026000Y-59589000D02*
X127026000Y-56489000D01*
X124206000Y-59309000D02*
X121666000Y-59309000D01*
X121666000Y-59309000D02*
X121666000Y-56769000D01*
X126527000Y-63658000D02*
X126527000Y-64358000D01*
X127727000Y-64358000D02*
X127727000Y-63658000D01*
X128174000Y-54448000D02*
X128874000Y-54448000D01*
X128874000Y-53248000D02*
X128174000Y-53248000D01*
X128174000Y-52797000D02*
X128874000Y-52797000D01*
X128874000Y-51597000D02*
X128174000Y-51597000D01*
X72675000Y-68164000D02*
X73375000Y-68164000D01*
X73375000Y-66964000D02*
X72675000Y-66964000D01*
X67722000Y-44669000D02*
X68422000Y-44669000D01*
X68422000Y-43469000D02*
X67722000Y-43469000D01*
X67722000Y-46320000D02*
X68422000Y-46320000D01*
X68422000Y-45120000D02*
X67722000Y-45120000D01*
X73914000Y-53657500D02*
X73279000Y-53657500D01*
X73279000Y-53657500D02*
X73279000Y-52641500D01*
X75057000Y-52641500D02*
X75057000Y-53657500D01*
X75057000Y-53657500D02*
X74422000Y-53657500D01*
X73914000Y-53784500D02*
X73914000Y-53657500D01*
X74422000Y-53657500D02*
X74422000Y-53784500D01*
X73279000Y-52641500D02*
X75057000Y-52641500D01*
X74422000Y-53784500D02*
X73914000Y-53784500D01*
X104769920Y-72679560D02*
X109875320Y-72679560D01*
X109875320Y-72679560D02*
X109875320Y-67782440D01*
X109875320Y-67782440D02*
X104769920Y-67782440D01*
X104769920Y-67782440D02*
X104769920Y-72679560D01*
X109860080Y-58384440D02*
X104754680Y-58384440D01*
X104754680Y-58384440D02*
X104754680Y-63281560D01*
X104754680Y-63281560D02*
X109860080Y-63281560D01*
X109860080Y-63281560D02*
X109860080Y-58384440D01*
X104434000Y-66032000D02*
X104434000Y-65032000D01*
X103084000Y-65032000D02*
X103084000Y-66032000D01*
X133522720Y-45298360D02*
X136357360Y-45298360D01*
X136342120Y-45283120D02*
X136342120Y-47299880D01*
X136342120Y-47299880D02*
X133537960Y-47299880D01*
X133510000Y-42468800D02*
X129540000Y-42468800D01*
X129540000Y-42468800D02*
X129540000Y-50088800D01*
X129540000Y-50088800D02*
X133510000Y-50088800D01*
X133512560Y-50088800D02*
X133512560Y-42468800D01*
D13*
X134205980Y-54472840D02*
X134205980Y-62875160D01*
X134307580Y-54472840D02*
X134307580Y-62875160D01*
X134307580Y-62875160D02*
X134106920Y-62875160D01*
X134106920Y-62875160D02*
X134106920Y-54472840D01*
X134106920Y-54472840D02*
X134307580Y-54472840D01*
X134307580Y-54775100D02*
X129306320Y-54775100D01*
X129306320Y-54775100D02*
X129306320Y-62572900D01*
X129306320Y-62572900D02*
X134307580Y-62572900D01*
D10*
X78652619Y-44735762D02*
X78605000Y-44640524D01*
X78509762Y-44545286D01*
X78366905Y-44402429D01*
X78319286Y-44307190D01*
X78319286Y-44211952D01*
X78557381Y-44259571D02*
X78509762Y-44164333D01*
X78414524Y-44069095D01*
X78224048Y-44021476D01*
X77890714Y-44021476D01*
X77700238Y-44069095D01*
X77605000Y-44164333D01*
X77557381Y-44259571D01*
X77557381Y-44450048D01*
X77605000Y-44545286D01*
X77700238Y-44640524D01*
X77890714Y-44688143D01*
X78224048Y-44688143D01*
X78414524Y-44640524D01*
X78509762Y-44545286D01*
X78557381Y-44450048D01*
X78557381Y-44259571D01*
X78557381Y-45640524D02*
X78557381Y-45069095D01*
X78557381Y-45354809D02*
X77557381Y-45354809D01*
X77700238Y-45259571D01*
X77795476Y-45164333D01*
X77843095Y-45069095D01*
X82419415Y-57358541D02*
X82419415Y-56358541D01*
X82181320Y-56358541D01*
X82038462Y-56406160D01*
X81943224Y-56501398D01*
X81895605Y-56596636D01*
X81847986Y-56787112D01*
X81847986Y-56929970D01*
X81895605Y-57120446D01*
X81943224Y-57215684D01*
X82038462Y-57310922D01*
X82181320Y-57358541D01*
X82419415Y-57358541D01*
X81514653Y-56358541D02*
X80895605Y-56358541D01*
X81228939Y-56739493D01*
X81086081Y-56739493D01*
X80990843Y-56787112D01*
X80943224Y-56834731D01*
X80895605Y-56929970D01*
X80895605Y-57168065D01*
X80943224Y-57263303D01*
X80990843Y-57310922D01*
X81086081Y-57358541D01*
X81371796Y-57358541D01*
X81467034Y-57310922D01*
X81514653Y-57263303D01*
X74842619Y-44545262D02*
X74795000Y-44450024D01*
X74699762Y-44354786D01*
X74556905Y-44211929D01*
X74509286Y-44116690D01*
X74509286Y-44021452D01*
X74747381Y-44069071D02*
X74699762Y-43973833D01*
X74604524Y-43878595D01*
X74414048Y-43830976D01*
X74080714Y-43830976D01*
X73890238Y-43878595D01*
X73795000Y-43973833D01*
X73747381Y-44069071D01*
X73747381Y-44259548D01*
X73795000Y-44354786D01*
X73890238Y-44450024D01*
X74080714Y-44497643D01*
X74414048Y-44497643D01*
X74604524Y-44450024D01*
X74699762Y-44354786D01*
X74747381Y-44259548D01*
X74747381Y-44069071D01*
X73842619Y-44878595D02*
X73795000Y-44926214D01*
X73747381Y-45021452D01*
X73747381Y-45259548D01*
X73795000Y-45354786D01*
X73842619Y-45402405D01*
X73937857Y-45450024D01*
X74033095Y-45450024D01*
X74175952Y-45402405D01*
X74747381Y-44830976D01*
X74747381Y-45450024D01*
D14*
X71769514Y-57352572D02*
X71007514Y-57352572D01*
X71007514Y-57642857D01*
X71043800Y-57715429D01*
X71080086Y-57751714D01*
X71152657Y-57788000D01*
X71261514Y-57788000D01*
X71334086Y-57751714D01*
X71370371Y-57715429D01*
X71406657Y-57642857D01*
X71406657Y-57352572D01*
X71080086Y-58078286D02*
X71043800Y-58114572D01*
X71007514Y-58187143D01*
X71007514Y-58368572D01*
X71043800Y-58441143D01*
X71080086Y-58477429D01*
X71152657Y-58513714D01*
X71225229Y-58513714D01*
X71334086Y-58477429D01*
X71769514Y-58042000D01*
X71769514Y-58513714D01*
D10*
X79097143Y-70381834D02*
X79144762Y-70334215D01*
X79192381Y-70191358D01*
X79192381Y-70096120D01*
X79144762Y-69953262D01*
X79049524Y-69858024D01*
X78954286Y-69810405D01*
X78763810Y-69762786D01*
X78620952Y-69762786D01*
X78430476Y-69810405D01*
X78335238Y-69858024D01*
X78240000Y-69953262D01*
X78192381Y-70096120D01*
X78192381Y-70191358D01*
X78240000Y-70334215D01*
X78287619Y-70381834D01*
X78287619Y-70762786D02*
X78240000Y-70810405D01*
X78192381Y-70905643D01*
X78192381Y-71143739D01*
X78240000Y-71238977D01*
X78287619Y-71286596D01*
X78382857Y-71334215D01*
X78478095Y-71334215D01*
X78620952Y-71286596D01*
X79192381Y-70715167D01*
X79192381Y-71334215D01*
X108688143Y-49236334D02*
X108735762Y-49188715D01*
X108783381Y-49045858D01*
X108783381Y-48950620D01*
X108735762Y-48807762D01*
X108640524Y-48712524D01*
X108545286Y-48664905D01*
X108354810Y-48617286D01*
X108211952Y-48617286D01*
X108021476Y-48664905D01*
X107926238Y-48712524D01*
X107831000Y-48807762D01*
X107783381Y-48950620D01*
X107783381Y-49045858D01*
X107831000Y-49188715D01*
X107878619Y-49236334D01*
X108116714Y-50093477D02*
X108783381Y-50093477D01*
X107735762Y-49855381D02*
X108450048Y-49617286D01*
X108450048Y-50236334D01*
X63819066Y-65457343D02*
X63866685Y-65504962D01*
X64009542Y-65552581D01*
X64104780Y-65552581D01*
X64247638Y-65504962D01*
X64342876Y-65409724D01*
X64390495Y-65314486D01*
X64438114Y-65124010D01*
X64438114Y-64981152D01*
X64390495Y-64790676D01*
X64342876Y-64695438D01*
X64247638Y-64600200D01*
X64104780Y-64552581D01*
X64009542Y-64552581D01*
X63866685Y-64600200D01*
X63819066Y-64647819D01*
X63485733Y-64552581D02*
X62819066Y-64552581D01*
X63247638Y-65552581D01*
X63844466Y-62079143D02*
X63892085Y-62126762D01*
X64034942Y-62174381D01*
X64130180Y-62174381D01*
X64273038Y-62126762D01*
X64368276Y-62031524D01*
X64415895Y-61936286D01*
X64463514Y-61745810D01*
X64463514Y-61602952D01*
X64415895Y-61412476D01*
X64368276Y-61317238D01*
X64273038Y-61222000D01*
X64130180Y-61174381D01*
X64034942Y-61174381D01*
X63892085Y-61222000D01*
X63844466Y-61269619D01*
X63273038Y-61602952D02*
X63368276Y-61555333D01*
X63415895Y-61507714D01*
X63463514Y-61412476D01*
X63463514Y-61364857D01*
X63415895Y-61269619D01*
X63368276Y-61222000D01*
X63273038Y-61174381D01*
X63082561Y-61174381D01*
X62987323Y-61222000D01*
X62939704Y-61269619D01*
X62892085Y-61364857D01*
X62892085Y-61412476D01*
X62939704Y-61507714D01*
X62987323Y-61555333D01*
X63082561Y-61602952D01*
X63273038Y-61602952D01*
X63368276Y-61650571D01*
X63415895Y-61698190D01*
X63463514Y-61793429D01*
X63463514Y-61983905D01*
X63415895Y-62079143D01*
X63368276Y-62126762D01*
X63273038Y-62174381D01*
X63082561Y-62174381D01*
X62987323Y-62126762D01*
X62939704Y-62079143D01*
X62892085Y-61983905D01*
X62892085Y-61793429D01*
X62939704Y-61698190D01*
X62987323Y-61650571D01*
X63082561Y-61602952D01*
X63971466Y-60275743D02*
X64019085Y-60323362D01*
X64161942Y-60370981D01*
X64257180Y-60370981D01*
X64400038Y-60323362D01*
X64495276Y-60228124D01*
X64542895Y-60132886D01*
X64590514Y-59942410D01*
X64590514Y-59799552D01*
X64542895Y-59609076D01*
X64495276Y-59513838D01*
X64400038Y-59418600D01*
X64257180Y-59370981D01*
X64161942Y-59370981D01*
X64019085Y-59418600D01*
X63971466Y-59466219D01*
X63495276Y-60370981D02*
X63304800Y-60370981D01*
X63209561Y-60323362D01*
X63161942Y-60275743D01*
X63066704Y-60132886D01*
X63019085Y-59942410D01*
X63019085Y-59561457D01*
X63066704Y-59466219D01*
X63114323Y-59418600D01*
X63209561Y-59370981D01*
X63400038Y-59370981D01*
X63495276Y-59418600D01*
X63542895Y-59466219D01*
X63590514Y-59561457D01*
X63590514Y-59799552D01*
X63542895Y-59894790D01*
X63495276Y-59942410D01*
X63400038Y-59990029D01*
X63209561Y-59990029D01*
X63114323Y-59942410D01*
X63066704Y-59894790D01*
X63019085Y-59799552D01*
X80970357Y-51792143D02*
X81017976Y-51839762D01*
X81160833Y-51887381D01*
X81256071Y-51887381D01*
X81398929Y-51839762D01*
X81494167Y-51744524D01*
X81541786Y-51649286D01*
X81589405Y-51458810D01*
X81589405Y-51315952D01*
X81541786Y-51125476D01*
X81494167Y-51030238D01*
X81398929Y-50935000D01*
X81256071Y-50887381D01*
X81160833Y-50887381D01*
X81017976Y-50935000D01*
X80970357Y-50982619D01*
X80017976Y-51887381D02*
X80589405Y-51887381D01*
X80303691Y-51887381D02*
X80303691Y-50887381D01*
X80398929Y-51030238D01*
X80494167Y-51125476D01*
X80589405Y-51173095D01*
X79398929Y-50887381D02*
X79303690Y-50887381D01*
X79208452Y-50935000D01*
X79160833Y-50982619D01*
X79113214Y-51077857D01*
X79065595Y-51268333D01*
X79065595Y-51506429D01*
X79113214Y-51696905D01*
X79160833Y-51792143D01*
X79208452Y-51839762D01*
X79303690Y-51887381D01*
X79398929Y-51887381D01*
X79494167Y-51839762D01*
X79541786Y-51792143D01*
X79589405Y-51696905D01*
X79637024Y-51506429D01*
X79637024Y-51268333D01*
X79589405Y-51077857D01*
X79541786Y-50982619D01*
X79494167Y-50935000D01*
X79398929Y-50887381D01*
X81033857Y-53316143D02*
X81081476Y-53363762D01*
X81224333Y-53411381D01*
X81319571Y-53411381D01*
X81462429Y-53363762D01*
X81557667Y-53268524D01*
X81605286Y-53173286D01*
X81652905Y-52982810D01*
X81652905Y-52839952D01*
X81605286Y-52649476D01*
X81557667Y-52554238D01*
X81462429Y-52459000D01*
X81319571Y-52411381D01*
X81224333Y-52411381D01*
X81081476Y-52459000D01*
X81033857Y-52506619D01*
X80081476Y-53411381D02*
X80652905Y-53411381D01*
X80367191Y-53411381D02*
X80367191Y-52411381D01*
X80462429Y-52554238D01*
X80557667Y-52649476D01*
X80652905Y-52697095D01*
X79700524Y-52506619D02*
X79652905Y-52459000D01*
X79557667Y-52411381D01*
X79319571Y-52411381D01*
X79224333Y-52459000D01*
X79176714Y-52506619D01*
X79129095Y-52601857D01*
X79129095Y-52697095D01*
X79176714Y-52839952D01*
X79748143Y-53411381D01*
X79129095Y-53411381D01*
X63476143Y-53459143D02*
X63523762Y-53411524D01*
X63571381Y-53268667D01*
X63571381Y-53173429D01*
X63523762Y-53030571D01*
X63428524Y-52935333D01*
X63333286Y-52887714D01*
X63142810Y-52840095D01*
X62999952Y-52840095D01*
X62809476Y-52887714D01*
X62714238Y-52935333D01*
X62619000Y-53030571D01*
X62571381Y-53173429D01*
X62571381Y-53268667D01*
X62619000Y-53411524D01*
X62666619Y-53459143D01*
X63571381Y-54411524D02*
X63571381Y-53840095D01*
X63571381Y-54125809D02*
X62571381Y-54125809D01*
X62714238Y-54030571D01*
X62809476Y-53935333D01*
X62857095Y-53840095D01*
X62571381Y-54744857D02*
X62571381Y-55363905D01*
X62952333Y-55030571D01*
X62952333Y-55173429D01*
X62999952Y-55268667D01*
X63047571Y-55316286D01*
X63142810Y-55363905D01*
X63380905Y-55363905D01*
X63476143Y-55316286D01*
X63523762Y-55268667D01*
X63571381Y-55173429D01*
X63571381Y-54887714D01*
X63523762Y-54792476D01*
X63476143Y-54744857D01*
X76588857Y-66333643D02*
X76636476Y-66381262D01*
X76779333Y-66428881D01*
X76874571Y-66428881D01*
X77017429Y-66381262D01*
X77112667Y-66286024D01*
X77160286Y-66190786D01*
X77207905Y-66000310D01*
X77207905Y-65857452D01*
X77160286Y-65666976D01*
X77112667Y-65571738D01*
X77017429Y-65476500D01*
X76874571Y-65428881D01*
X76779333Y-65428881D01*
X76636476Y-65476500D01*
X76588857Y-65524119D01*
X75636476Y-66428881D02*
X76207905Y-66428881D01*
X75922191Y-66428881D02*
X75922191Y-65428881D01*
X76017429Y-65571738D01*
X76112667Y-65666976D01*
X76207905Y-65714595D01*
X74731714Y-65428881D02*
X75207905Y-65428881D01*
X75255524Y-65905071D01*
X75207905Y-65857452D01*
X75112667Y-65809833D01*
X74874571Y-65809833D01*
X74779333Y-65857452D01*
X74731714Y-65905071D01*
X74684095Y-66000310D01*
X74684095Y-66238405D01*
X74731714Y-66333643D01*
X74779333Y-66381262D01*
X74874571Y-66428881D01*
X75112667Y-66428881D01*
X75207905Y-66381262D01*
X75255524Y-66333643D01*
X131357595Y-66682881D02*
X131357595Y-65682881D01*
X131119500Y-65682881D01*
X130976642Y-65730500D01*
X130881404Y-65825738D01*
X130833785Y-65920976D01*
X130786166Y-66111452D01*
X130786166Y-66254310D01*
X130833785Y-66444786D01*
X130881404Y-66540024D01*
X130976642Y-66635262D01*
X131119500Y-66682881D01*
X131357595Y-66682881D01*
X129833785Y-66682881D02*
X130405214Y-66682881D01*
X130119500Y-66682881D02*
X130119500Y-65682881D01*
X130214738Y-65825738D01*
X130309976Y-65920976D01*
X130405214Y-65968595D01*
X130595666Y-69540381D02*
X130929000Y-69064190D01*
X131167095Y-69540381D02*
X131167095Y-68540381D01*
X130786142Y-68540381D01*
X130690904Y-68588000D01*
X130643285Y-68635619D01*
X130595666Y-68730857D01*
X130595666Y-68873714D01*
X130643285Y-68968952D01*
X130690904Y-69016571D01*
X130786142Y-69064190D01*
X131167095Y-69064190D01*
X129643285Y-69540381D02*
X130214714Y-69540381D01*
X129929000Y-69540381D02*
X129929000Y-68540381D01*
X130024238Y-68683238D01*
X130119476Y-68778476D01*
X130214714Y-68826095D01*
X119133881Y-63206334D02*
X118657690Y-62873000D01*
X119133881Y-62634905D02*
X118133881Y-62634905D01*
X118133881Y-63015858D01*
X118181500Y-63111096D01*
X118229119Y-63158715D01*
X118324357Y-63206334D01*
X118467214Y-63206334D01*
X118562452Y-63158715D01*
X118610071Y-63111096D01*
X118657690Y-63015858D01*
X118657690Y-62634905D01*
X118133881Y-63539667D02*
X118133881Y-64158715D01*
X118514833Y-63825381D01*
X118514833Y-63968239D01*
X118562452Y-64063477D01*
X118610071Y-64111096D01*
X118705310Y-64158715D01*
X118943405Y-64158715D01*
X119038643Y-64111096D01*
X119086262Y-64063477D01*
X119133881Y-63968239D01*
X119133881Y-63682524D01*
X119086262Y-63587286D01*
X119038643Y-63539667D01*
X74080666Y-48077381D02*
X74414000Y-47601190D01*
X74652095Y-48077381D02*
X74652095Y-47077381D01*
X74271142Y-47077381D01*
X74175904Y-47125000D01*
X74128285Y-47172619D01*
X74080666Y-47267857D01*
X74080666Y-47410714D01*
X74128285Y-47505952D01*
X74175904Y-47553571D01*
X74271142Y-47601190D01*
X74652095Y-47601190D01*
X73223523Y-47410714D02*
X73223523Y-48077381D01*
X73461619Y-47029762D02*
X73699714Y-47744048D01*
X73080666Y-47744048D01*
X124205905Y-65111381D02*
X124205905Y-65920905D01*
X124158286Y-66016143D01*
X124110667Y-66063762D01*
X124015429Y-66111381D01*
X123824952Y-66111381D01*
X123729714Y-66063762D01*
X123682095Y-66016143D01*
X123634476Y-65920905D01*
X123634476Y-65111381D01*
X123205905Y-65206619D02*
X123158286Y-65159000D01*
X123063048Y-65111381D01*
X122824952Y-65111381D01*
X122729714Y-65159000D01*
X122682095Y-65206619D01*
X122634476Y-65301857D01*
X122634476Y-65397095D01*
X122682095Y-65539952D01*
X123253524Y-66111381D01*
X122634476Y-66111381D01*
X96748505Y-58202581D02*
X96748505Y-59012105D01*
X96700886Y-59107343D01*
X96653267Y-59154962D01*
X96558029Y-59202581D01*
X96367552Y-59202581D01*
X96272314Y-59154962D01*
X96224695Y-59107343D01*
X96177076Y-59012105D01*
X96177076Y-58202581D01*
X95796124Y-58202581D02*
X95177076Y-58202581D01*
X95510410Y-58583533D01*
X95367552Y-58583533D01*
X95272314Y-58631152D01*
X95224695Y-58678771D01*
X95177076Y-58774010D01*
X95177076Y-59012105D01*
X95224695Y-59107343D01*
X95272314Y-59154962D01*
X95367552Y-59202581D01*
X95653267Y-59202581D01*
X95748505Y-59154962D01*
X95796124Y-59107343D01*
X116535105Y-48428781D02*
X116535105Y-49238305D01*
X116487486Y-49333543D01*
X116439867Y-49381162D01*
X116344629Y-49428781D01*
X116154152Y-49428781D01*
X116058914Y-49381162D01*
X116011295Y-49333543D01*
X115963676Y-49238305D01*
X115963676Y-48428781D01*
X115058914Y-48762114D02*
X115058914Y-49428781D01*
X115297010Y-48381162D02*
X115535105Y-49095448D01*
X114916057Y-49095448D01*
X63349143Y-49141143D02*
X63396762Y-49093524D01*
X63444381Y-48950667D01*
X63444381Y-48855429D01*
X63396762Y-48712571D01*
X63301524Y-48617333D01*
X63206286Y-48569714D01*
X63015810Y-48522095D01*
X62872952Y-48522095D01*
X62682476Y-48569714D01*
X62587238Y-48617333D01*
X62492000Y-48712571D01*
X62444381Y-48855429D01*
X62444381Y-48950667D01*
X62492000Y-49093524D01*
X62539619Y-49141143D01*
X63444381Y-50093524D02*
X63444381Y-49522095D01*
X63444381Y-49807809D02*
X62444381Y-49807809D01*
X62587238Y-49712571D01*
X62682476Y-49617333D01*
X62730095Y-49522095D01*
X62444381Y-50950667D02*
X62444381Y-50760190D01*
X62492000Y-50664952D01*
X62539619Y-50617333D01*
X62682476Y-50522095D01*
X62872952Y-50474476D01*
X63253905Y-50474476D01*
X63349143Y-50522095D01*
X63396762Y-50569714D01*
X63444381Y-50664952D01*
X63444381Y-50855429D01*
X63396762Y-50950667D01*
X63349143Y-50998286D01*
X63253905Y-51045905D01*
X63015810Y-51045905D01*
X62920571Y-50998286D01*
X62872952Y-50950667D01*
X62825333Y-50855429D01*
X62825333Y-50664952D01*
X62872952Y-50569714D01*
X62920571Y-50522095D01*
X63015810Y-50474476D01*
X76155486Y-62655414D02*
X76193581Y-62693510D01*
X76307867Y-62731605D01*
X76384057Y-62731605D01*
X76498343Y-62693510D01*
X76574534Y-62617319D01*
X76612629Y-62541129D01*
X76650724Y-62388748D01*
X76650724Y-62274462D01*
X76612629Y-62122081D01*
X76574534Y-62045890D01*
X76498343Y-61969700D01*
X76384057Y-61931605D01*
X76307867Y-61931605D01*
X76193581Y-61969700D01*
X76155486Y-62007795D01*
X75393581Y-62731605D02*
X75850724Y-62731605D01*
X75622153Y-62731605D02*
X75622153Y-61931605D01*
X75698343Y-62045890D01*
X75774534Y-62122081D01*
X75850724Y-62160176D01*
X75126914Y-61931605D02*
X74593581Y-61931605D01*
X74936438Y-62731605D01*
X76130086Y-64484214D02*
X76168181Y-64522310D01*
X76282467Y-64560405D01*
X76358657Y-64560405D01*
X76472943Y-64522310D01*
X76549134Y-64446119D01*
X76587229Y-64369929D01*
X76625324Y-64217548D01*
X76625324Y-64103262D01*
X76587229Y-63950881D01*
X76549134Y-63874690D01*
X76472943Y-63798500D01*
X76358657Y-63760405D01*
X76282467Y-63760405D01*
X76168181Y-63798500D01*
X76130086Y-63836595D01*
X75368181Y-64560405D02*
X75825324Y-64560405D01*
X75596753Y-64560405D02*
X75596753Y-63760405D01*
X75672943Y-63874690D01*
X75749134Y-63950881D01*
X75825324Y-63988976D01*
X74911038Y-64103262D02*
X74987229Y-64065167D01*
X75025324Y-64027071D01*
X75063419Y-63950881D01*
X75063419Y-63912786D01*
X75025324Y-63836595D01*
X74987229Y-63798500D01*
X74911038Y-63760405D01*
X74758657Y-63760405D01*
X74682467Y-63798500D01*
X74644371Y-63836595D01*
X74606276Y-63912786D01*
X74606276Y-63950881D01*
X74644371Y-64027071D01*
X74682467Y-64065167D01*
X74758657Y-64103262D01*
X74911038Y-64103262D01*
X74987229Y-64141357D01*
X75025324Y-64179452D01*
X75063419Y-64255643D01*
X75063419Y-64408024D01*
X75025324Y-64484214D01*
X74987229Y-64522310D01*
X74911038Y-64560405D01*
X74758657Y-64560405D01*
X74682467Y-64522310D01*
X74644371Y-64484214D01*
X74606276Y-64408024D01*
X74606276Y-64255643D01*
X74644371Y-64179452D01*
X74682467Y-64141357D01*
X74758657Y-64103262D01*
X77095314Y-70148514D02*
X77133410Y-70110419D01*
X77171505Y-69996133D01*
X77171505Y-69919943D01*
X77133410Y-69805657D01*
X77057219Y-69729466D01*
X76981029Y-69691371D01*
X76828648Y-69653276D01*
X76714362Y-69653276D01*
X76561981Y-69691371D01*
X76485790Y-69729466D01*
X76409600Y-69805657D01*
X76371505Y-69919943D01*
X76371505Y-69996133D01*
X76409600Y-70110419D01*
X76447695Y-70148514D01*
X77171505Y-70910419D02*
X77171505Y-70453276D01*
X77171505Y-70681847D02*
X76371505Y-70681847D01*
X76485790Y-70605657D01*
X76561981Y-70529466D01*
X76600076Y-70453276D01*
X77171505Y-71291371D02*
X77171505Y-71443752D01*
X77133410Y-71519943D01*
X77095314Y-71558038D01*
X76981029Y-71634229D01*
X76828648Y-71672324D01*
X76523886Y-71672324D01*
X76447695Y-71634229D01*
X76409600Y-71596133D01*
X76371505Y-71519943D01*
X76371505Y-71367562D01*
X76409600Y-71291371D01*
X76447695Y-71253276D01*
X76523886Y-71215181D01*
X76714362Y-71215181D01*
X76790552Y-71253276D01*
X76828648Y-71291371D01*
X76866743Y-71367562D01*
X76866743Y-71519943D01*
X76828648Y-71596133D01*
X76790552Y-71634229D01*
X76714362Y-71672324D01*
X63095166Y-47569381D02*
X63571357Y-47569381D01*
X63571357Y-46569381D01*
X62238023Y-47569381D02*
X62809452Y-47569381D01*
X62523738Y-47569381D02*
X62523738Y-46569381D01*
X62618976Y-46712238D01*
X62714214Y-46807476D01*
X62809452Y-46855095D01*
X80906857Y-55030643D02*
X80954476Y-55078262D01*
X81097333Y-55125881D01*
X81192571Y-55125881D01*
X81335429Y-55078262D01*
X81430667Y-54983024D01*
X81478286Y-54887786D01*
X81525905Y-54697310D01*
X81525905Y-54554452D01*
X81478286Y-54363976D01*
X81430667Y-54268738D01*
X81335429Y-54173500D01*
X81192571Y-54125881D01*
X81097333Y-54125881D01*
X80954476Y-54173500D01*
X80906857Y-54221119D01*
X79954476Y-55125881D02*
X80525905Y-55125881D01*
X80240191Y-55125881D02*
X80240191Y-54125881D01*
X80335429Y-54268738D01*
X80430667Y-54363976D01*
X80525905Y-54411595D01*
X79002095Y-55125881D02*
X79573524Y-55125881D01*
X79287810Y-55125881D02*
X79287810Y-54125881D01*
X79383048Y-54268738D01*
X79478286Y-54363976D01*
X79573524Y-54411595D01*
X64777857Y-63793643D02*
X64825476Y-63841262D01*
X64968333Y-63888881D01*
X65063571Y-63888881D01*
X65206429Y-63841262D01*
X65301667Y-63746024D01*
X65349286Y-63650786D01*
X65396905Y-63460310D01*
X65396905Y-63317452D01*
X65349286Y-63126976D01*
X65301667Y-63031738D01*
X65206429Y-62936500D01*
X65063571Y-62888881D01*
X64968333Y-62888881D01*
X64825476Y-62936500D01*
X64777857Y-62984119D01*
X63825476Y-63888881D02*
X64396905Y-63888881D01*
X64111191Y-63888881D02*
X64111191Y-62888881D01*
X64206429Y-63031738D01*
X64301667Y-63126976D01*
X64396905Y-63174595D01*
X62968333Y-63222214D02*
X62968333Y-63888881D01*
X63206429Y-62841262D02*
X63444524Y-63555548D01*
X62825476Y-63555548D01*
X120673714Y-57904071D02*
X120530857Y-57951690D01*
X120483238Y-57999310D01*
X120435619Y-58094548D01*
X120435619Y-58237405D01*
X120483238Y-58332643D01*
X120530857Y-58380262D01*
X120626095Y-58427881D01*
X121007048Y-58427881D01*
X121007048Y-57427881D01*
X120673714Y-57427881D01*
X120578476Y-57475500D01*
X120530857Y-57523119D01*
X120483238Y-57618357D01*
X120483238Y-57713595D01*
X120530857Y-57808833D01*
X120578476Y-57856452D01*
X120673714Y-57904071D01*
X121007048Y-57904071D01*
X120149905Y-57427881D02*
X119578476Y-57427881D01*
X119864191Y-58427881D02*
X119864191Y-57427881D01*
X118721333Y-58427881D02*
X119292762Y-58427881D01*
X119007048Y-58427881D02*
X119007048Y-57427881D01*
X119102286Y-57570738D01*
X119197524Y-57665976D01*
X119292762Y-57713595D01*
X129071643Y-63904834D02*
X129119262Y-63857215D01*
X129166881Y-63714358D01*
X129166881Y-63619120D01*
X129119262Y-63476262D01*
X129024024Y-63381024D01*
X128928786Y-63333405D01*
X128738310Y-63285786D01*
X128595452Y-63285786D01*
X128404976Y-63333405D01*
X128309738Y-63381024D01*
X128214500Y-63476262D01*
X128166881Y-63619120D01*
X128166881Y-63714358D01*
X128214500Y-63857215D01*
X128262119Y-63904834D01*
X129166881Y-64857215D02*
X129166881Y-64285786D01*
X129166881Y-64571500D02*
X128166881Y-64571500D01*
X128309738Y-64476262D01*
X128404976Y-64381024D01*
X128452595Y-64285786D01*
X131421166Y-53062143D02*
X131468785Y-53109762D01*
X131611642Y-53157381D01*
X131706880Y-53157381D01*
X131849738Y-53109762D01*
X131944976Y-53014524D01*
X131992595Y-52919286D01*
X132040214Y-52728810D01*
X132040214Y-52585952D01*
X131992595Y-52395476D01*
X131944976Y-52300238D01*
X131849738Y-52205000D01*
X131706880Y-52157381D01*
X131611642Y-52157381D01*
X131468785Y-52205000D01*
X131421166Y-52252619D01*
X131087833Y-52157381D02*
X130468785Y-52157381D01*
X130802119Y-52538333D01*
X130659261Y-52538333D01*
X130564023Y-52585952D01*
X130516404Y-52633571D01*
X130468785Y-52728810D01*
X130468785Y-52966905D01*
X130516404Y-53062143D01*
X130564023Y-53109762D01*
X130659261Y-53157381D01*
X130944976Y-53157381D01*
X131040214Y-53109762D01*
X131087833Y-53062143D01*
X131421166Y-51728643D02*
X131468785Y-51776262D01*
X131611642Y-51823881D01*
X131706880Y-51823881D01*
X131849738Y-51776262D01*
X131944976Y-51681024D01*
X131992595Y-51585786D01*
X132040214Y-51395310D01*
X132040214Y-51252452D01*
X131992595Y-51061976D01*
X131944976Y-50966738D01*
X131849738Y-50871500D01*
X131706880Y-50823881D01*
X131611642Y-50823881D01*
X131468785Y-50871500D01*
X131421166Y-50919119D01*
X130516404Y-50823881D02*
X130992595Y-50823881D01*
X131040214Y-51300071D01*
X130992595Y-51252452D01*
X130897357Y-51204833D01*
X130659261Y-51204833D01*
X130564023Y-51252452D01*
X130516404Y-51300071D01*
X130468785Y-51395310D01*
X130468785Y-51633405D01*
X130516404Y-51728643D01*
X130564023Y-51776262D01*
X130659261Y-51823881D01*
X130897357Y-51823881D01*
X130992595Y-51776262D01*
X131040214Y-51728643D01*
X73128166Y-69762643D02*
X73175785Y-69810262D01*
X73318642Y-69857881D01*
X73413880Y-69857881D01*
X73556738Y-69810262D01*
X73651976Y-69715024D01*
X73699595Y-69619786D01*
X73747214Y-69429310D01*
X73747214Y-69286452D01*
X73699595Y-69095976D01*
X73651976Y-69000738D01*
X73556738Y-68905500D01*
X73413880Y-68857881D01*
X73318642Y-68857881D01*
X73175785Y-68905500D01*
X73128166Y-68953119D01*
X72271023Y-68857881D02*
X72461500Y-68857881D01*
X72556738Y-68905500D01*
X72604357Y-68953119D01*
X72699595Y-69095976D01*
X72747214Y-69286452D01*
X72747214Y-69667405D01*
X72699595Y-69762643D01*
X72651976Y-69810262D01*
X72556738Y-69857881D01*
X72366261Y-69857881D01*
X72271023Y-69810262D01*
X72223404Y-69762643D01*
X72175785Y-69667405D01*
X72175785Y-69429310D01*
X72223404Y-69334071D01*
X72271023Y-69286452D01*
X72366261Y-69238833D01*
X72556738Y-69238833D01*
X72651976Y-69286452D01*
X72699595Y-69334071D01*
X72747214Y-69429310D01*
X71699357Y-44489643D02*
X71746976Y-44537262D01*
X71889833Y-44584881D01*
X71985071Y-44584881D01*
X72127929Y-44537262D01*
X72223167Y-44442024D01*
X72270786Y-44346786D01*
X72318405Y-44156310D01*
X72318405Y-44013452D01*
X72270786Y-43822976D01*
X72223167Y-43727738D01*
X72127929Y-43632500D01*
X71985071Y-43584881D01*
X71889833Y-43584881D01*
X71746976Y-43632500D01*
X71699357Y-43680119D01*
X71318405Y-43680119D02*
X71270786Y-43632500D01*
X71175548Y-43584881D01*
X70937452Y-43584881D01*
X70842214Y-43632500D01*
X70794595Y-43680119D01*
X70746976Y-43775357D01*
X70746976Y-43870595D01*
X70794595Y-44013452D01*
X71366024Y-44584881D01*
X70746976Y-44584881D01*
X70127929Y-43584881D02*
X70032690Y-43584881D01*
X69937452Y-43632500D01*
X69889833Y-43680119D01*
X69842214Y-43775357D01*
X69794595Y-43965833D01*
X69794595Y-44203929D01*
X69842214Y-44394405D01*
X69889833Y-44489643D01*
X69937452Y-44537262D01*
X70032690Y-44584881D01*
X70127929Y-44584881D01*
X70223167Y-44537262D01*
X70270786Y-44489643D01*
X70318405Y-44394405D01*
X70366024Y-44203929D01*
X70366024Y-43965833D01*
X70318405Y-43775357D01*
X70270786Y-43680119D01*
X70223167Y-43632500D01*
X70127929Y-43584881D01*
X68524357Y-47410643D02*
X68571976Y-47458262D01*
X68714833Y-47505881D01*
X68810071Y-47505881D01*
X68952929Y-47458262D01*
X69048167Y-47363024D01*
X69095786Y-47267786D01*
X69143405Y-47077310D01*
X69143405Y-46934452D01*
X69095786Y-46743976D01*
X69048167Y-46648738D01*
X68952929Y-46553500D01*
X68810071Y-46505881D01*
X68714833Y-46505881D01*
X68571976Y-46553500D01*
X68524357Y-46601119D01*
X68143405Y-46601119D02*
X68095786Y-46553500D01*
X68000548Y-46505881D01*
X67762452Y-46505881D01*
X67667214Y-46553500D01*
X67619595Y-46601119D01*
X67571976Y-46696357D01*
X67571976Y-46791595D01*
X67619595Y-46934452D01*
X68191024Y-47505881D01*
X67571976Y-47505881D01*
X66619595Y-47505881D02*
X67191024Y-47505881D01*
X66905310Y-47505881D02*
X66905310Y-46505881D01*
X67000548Y-46648738D01*
X67095786Y-46743976D01*
X67191024Y-46791595D01*
X74906095Y-51252381D02*
X74906095Y-50252381D01*
X74668000Y-50252381D01*
X74525142Y-50300000D01*
X74429904Y-50395238D01*
X74382285Y-50490476D01*
X74334666Y-50680952D01*
X74334666Y-50823810D01*
X74382285Y-51014286D01*
X74429904Y-51109524D01*
X74525142Y-51204762D01*
X74668000Y-51252381D01*
X74906095Y-51252381D01*
X73953714Y-50347619D02*
X73906095Y-50300000D01*
X73810857Y-50252381D01*
X73572761Y-50252381D01*
X73477523Y-50300000D01*
X73429904Y-50347619D01*
X73382285Y-50442857D01*
X73382285Y-50538095D01*
X73429904Y-50680952D01*
X74001333Y-51252381D01*
X73382285Y-51252381D01*
X110196381Y-72064667D02*
X110910667Y-72064667D01*
X111053524Y-72017047D01*
X111148762Y-71921809D01*
X111196381Y-71778952D01*
X111196381Y-71683714D01*
X111196381Y-72540857D02*
X110196381Y-72540857D01*
X110196381Y-72921810D01*
X110244000Y-73017048D01*
X110291619Y-73064667D01*
X110386857Y-73112286D01*
X110529714Y-73112286D01*
X110624952Y-73064667D01*
X110672571Y-73017048D01*
X110720190Y-72921810D01*
X110720190Y-72540857D01*
X111196381Y-74064667D02*
X111196381Y-73493238D01*
X111196381Y-73778952D02*
X110196381Y-73778952D01*
X110339238Y-73683714D01*
X110434476Y-73588476D01*
X110482095Y-73493238D01*
X111196381Y-62634905D02*
X110196381Y-62634905D01*
X110196381Y-63015858D01*
X110244000Y-63111096D01*
X110291619Y-63158715D01*
X110386857Y-63206334D01*
X110529714Y-63206334D01*
X110624952Y-63158715D01*
X110672571Y-63111096D01*
X110720190Y-63015858D01*
X110720190Y-62634905D01*
X111196381Y-64158715D02*
X111196381Y-63587286D01*
X111196381Y-63873000D02*
X110196381Y-63873000D01*
X110339238Y-63777762D01*
X110434476Y-63682524D01*
X110482095Y-63587286D01*
X102311381Y-65365334D02*
X101835190Y-65032000D01*
X102311381Y-64793905D02*
X101311381Y-64793905D01*
X101311381Y-65174858D01*
X101359000Y-65270096D01*
X101406619Y-65317715D01*
X101501857Y-65365334D01*
X101644714Y-65365334D01*
X101739952Y-65317715D01*
X101787571Y-65270096D01*
X101835190Y-65174858D01*
X101835190Y-64793905D01*
X101406619Y-65746286D02*
X101359000Y-65793905D01*
X101311381Y-65889143D01*
X101311381Y-66127239D01*
X101359000Y-66222477D01*
X101406619Y-66270096D01*
X101501857Y-66317715D01*
X101597095Y-66317715D01*
X101739952Y-66270096D01*
X102311381Y-65698667D01*
X102311381Y-66317715D01*
X128674762Y-44945467D02*
X128722381Y-45088324D01*
X128722381Y-45326420D01*
X128674762Y-45421658D01*
X128627143Y-45469277D01*
X128531905Y-45516896D01*
X128436667Y-45516896D01*
X128341429Y-45469277D01*
X128293810Y-45421658D01*
X128246190Y-45326420D01*
X128198571Y-45135943D01*
X128150952Y-45040705D01*
X128103333Y-44993086D01*
X128008095Y-44945467D01*
X127912857Y-44945467D01*
X127817619Y-44993086D01*
X127770000Y-45040705D01*
X127722381Y-45135943D01*
X127722381Y-45374039D01*
X127770000Y-45516896D01*
X127722381Y-45850229D02*
X128722381Y-46088324D01*
X128008095Y-46278801D01*
X128722381Y-46469277D01*
X127722381Y-46707372D01*
X128722381Y-47612134D02*
X128722381Y-47040705D01*
X128722381Y-47326419D02*
X127722381Y-47326419D01*
X127865238Y-47231181D01*
X127960476Y-47135943D01*
X128008095Y-47040705D01*
D15*
X134533942Y-58292758D02*
X134939012Y-58292758D01*
X134986667Y-58316586D01*
X135010495Y-58340413D01*
X135034322Y-58388069D01*
X135034322Y-58483379D01*
X135010495Y-58531034D01*
X134986667Y-58554862D01*
X134939012Y-58578690D01*
X134533942Y-58578690D01*
X135034322Y-59079070D02*
X135034322Y-58793138D01*
X135034322Y-58936104D02*
X134533942Y-58936104D01*
X134605425Y-58888449D01*
X134653080Y-58840794D01*
X134676908Y-58793138D01*
M02*
