solid OpenSCAD_Model
  facet normal -1 0 0
    outer loop
      vertex 0 -80 -13.5
      vertex 0 0 0
      vertex 0 -1.65327e-15 -13.5
    endloop
  endfacet
  facet normal -1 -0 0
    outer loop
      vertex 0 0 0
      vertex 0 -80 -13.5
      vertex 0 -80 9.79717e-15
    endloop
  endfacet
  facet normal 0 0 -1
    outer loop
      vertex 39 -80 -13.5
      vertex 33 -16 -13.5
      vertex 39 -1.65327e-15 -13.5
    endloop
  endfacet
  facet normal 0 0 -1
    outer loop
      vertex 39 -80 -13.5
      vertex 30 -68.5 -13.5
      vertex 33 -16 -13.5
    endloop
  endfacet
  facet normal 0 0 -1
    outer loop
      vertex 39 -80 -13.5
      vertex 10 -68.5 -13.5
      vertex 30 -68.5 -13.5
    endloop
  endfacet
  facet normal 0 0 -1
    outer loop
      vertex 10 -68.5 -13.5
      vertex 7.5 -16 -13.5
      vertex 10 -19.5 -13.5
    endloop
  endfacet
  facet normal 0 0 -1
    outer loop
      vertex 0 -1.65327e-15 -13.5
      vertex 7.5 -16 -13.5
      vertex 0 -80 -13.5
    endloop
  endfacet
  facet normal -0 0 -1
    outer loop
      vertex 10 -68.5 -13.5
      vertex 0 -80 -13.5
      vertex 7.5 -16 -13.5
    endloop
  endfacet
  facet normal 0 0 -1
    outer loop
      vertex 0 -80 -13.5
      vertex 10 -68.5 -13.5
      vertex 39 -80 -13.5
    endloop
  endfacet
  facet normal 0 0 -1
    outer loop
      vertex 33 -8.5 -13.5
      vertex 39 -1.65327e-15 -13.5
      vertex 33 -16 -13.5
    endloop
  endfacet
  facet normal 0 0 -1
    outer loop
      vertex 25.5 -8.5 -13.5
      vertex 39 -1.65327e-15 -13.5
      vertex 33 -8.5 -13.5
    endloop
  endfacet
  facet normal 0 0 -1
    outer loop
      vertex 15 -8.5 -13.5
      vertex 25.5 -8.5 -13.5
      vertex 15 -16 -13.5
    endloop
  endfacet
  facet normal 0 0 -1
    outer loop
      vertex 15 -8.5 -13.5
      vertex 39 -1.65327e-15 -13.5
      vertex 25.5 -8.5 -13.5
    endloop
  endfacet
  facet normal 0 0 -1
    outer loop
      vertex 0 -1.65327e-15 -13.5
      vertex 15 -8.5 -13.5
      vertex 7.5 -8.5 -13.5
    endloop
  endfacet
  facet normal 0 0 -1
    outer loop
      vertex 15 -8.5 -13.5
      vertex 0 -1.65327e-15 -13.5
      vertex 39 -1.65327e-15 -13.5
    endloop
  endfacet
  facet normal 0 0 -1
    outer loop
      vertex 7.5 -16 -13.5
      vertex 0 -1.65327e-15 -13.5
      vertex 7.5 -8.5 -13.5
    endloop
  endfacet
  facet normal 0 0 -1
    outer loop
      vertex 30 -19.5 -13.5
      vertex 33 -16 -13.5
      vertex 30 -68.5 -13.5
    endloop
  endfacet
  facet normal 0 0 -1
    outer loop
      vertex 30 -19.5 -13.5
      vertex 25.5 -16 -13.5
      vertex 33 -16 -13.5
    endloop
  endfacet
  facet normal 0 0 -1
    outer loop
      vertex 25.5 -16 -13.5
      vertex 15 -16 -13.5
      vertex 25.5 -8.5 -13.5
    endloop
  endfacet
  facet normal 0 0 -1
    outer loop
      vertex 30 -19.5 -13.5
      vertex 15 -16 -13.5
      vertex 25.5 -16 -13.5
    endloop
  endfacet
  facet normal 0 0 -1
    outer loop
      vertex 10 -19.5 -13.5
      vertex 15 -16 -13.5
      vertex 30 -19.5 -13.5
    endloop
  endfacet
  facet normal -0 0 -1
    outer loop
      vertex 15 -16 -13.5
      vertex 10 -19.5 -13.5
      vertex 7.5 -16 -13.5
    endloop
  endfacet
  facet normal 1 0 0
    outer loop
      vertex 39 -80 9.79717e-15
      vertex 39 -1.65327e-15 -13.5
      vertex 39 0 0
    endloop
  endfacet
  facet normal 1 0 0
    outer loop
      vertex 39 -1.65327e-15 -13.5
      vertex 39 -80 9.79717e-15
      vertex 39 -80 -13.5
    endloop
  endfacet
  facet normal 0 -1 0
    outer loop
      vertex 0 -80 -13.5
      vertex 39 -80 9.79717e-15
      vertex 0 -80 9.79717e-15
    endloop
  endfacet
  facet normal 0 -1 -0
    outer loop
      vertex 39 -80 9.79717e-15
      vertex 0 -80 -13.5
      vertex 39 -80 -13.5
    endloop
  endfacet
  facet normal 5.29396e-24 1.22465e-16 1
    outer loop
      vertex 39 0 0
      vertex 37 -2 2.44929e-16
      vertex 39 -80 9.79717e-15
    endloop
  endfacet
  facet normal 0 1.22465e-16 1
    outer loop
      vertex 39 0 0
      vertex 2 -2 2.44929e-16
      vertex 37 -2 2.44929e-16
    endloop
  endfacet
  facet normal -1.04486e-23 1.22465e-16 1
    outer loop
      vertex 2 -2 2.44929e-16
      vertex 0 0 0
      vertex 2 -78 9.55224e-15
    endloop
  endfacet
  facet normal -0 1.22465e-16 1
    outer loop
      vertex 0 0 0
      vertex 2 -2 2.44929e-16
      vertex 39 0 0
    endloop
  endfacet
  facet normal -1.95737e-22 1.22465e-16 1
    outer loop
      vertex 37 -78 9.55224e-15
      vertex 39 -80 9.79717e-15
      vertex 37 -2 2.44929e-16
    endloop
  endfacet
  facet normal -0 1.22465e-16 1
    outer loop
      vertex 2 -78 9.55224e-15
      vertex 39 -80 9.79717e-15
      vertex 37 -78 9.55224e-15
    endloop
  endfacet
  facet normal 0 1.22465e-16 1
    outer loop
      vertex 2 -78 9.55224e-15
      vertex 0 -80 9.79717e-15
      vertex 39 -80 9.79717e-15
    endloop
  endfacet
  facet normal 1.90582e-22 1.22465e-16 1
    outer loop
      vertex 0 -80 9.79717e-15
      vertex 2 -78 9.55224e-15
      vertex 0 0 0
    endloop
  endfacet
  facet normal 0 1 -1.22465e-16
    outer loop
      vertex 39 0 0
      vertex 24 -6.73556e-16 -5.5
      vertex 0 0 0
    endloop
  endfacet
  facet normal 0 1 -1.22465e-16
    outer loop
      vertex 29.5 -7.34788e-16 -6
      vertex 39 0 0
      vertex 34 -7.34788e-16 -6
    endloop
  endfacet
  facet normal 7.05861e-24 1 -1.22465e-16
    outer loop
      vertex 39 -1.65327e-15 -13.5
      vertex 34 -7.34788e-16 -6
      vertex 39 0 0
    endloop
  endfacet
  facet normal 0 1 -1.22465e-16
    outer loop
      vertex 39 -1.65327e-15 -13.5
      vertex 29.5 -1.04095e-15 -8.5
      vertex 34 -1.04095e-15 -8.5
    endloop
  endfacet
  facet normal 0 1 -1.22465e-16
    outer loop
      vertex 24 -1.22465e-15 -10
      vertex 39 -1.65327e-15 -13.5
      vertex 15 -1.22465e-15 -10
    endloop
  endfacet
  facet normal 3.80404e-24 1 -1.22465e-16
    outer loop
      vertex 29.5 -1.04095e-15 -8.5
      vertex 39 -1.65327e-15 -13.5
      vertex 24 -1.22465e-15 -10
    endloop
  endfacet
  facet normal -2.11758e-23 1 -1.22465e-16
    outer loop
      vertex 34 -7.34788e-16 -6
      vertex 39 -1.65327e-15 -13.5
      vertex 34 -1.04095e-15 -8.5
    endloop
  endfacet
  facet normal 0 1 -1.22465e-16
    outer loop
      vertex 15 -6.73556e-16 -5.5
      vertex 0 0 0
      vertex 24 -6.73556e-16 -5.5
    endloop
  endfacet
  facet normal -1.56858e-24 1 -1.22465e-16
    outer loop
      vertex 0 -1.65327e-15 -13.5
      vertex 15 -6.73556e-16 -5.5
      vertex 15 -1.22465e-15 -10
    endloop
  endfacet
  facet normal -1.56858e-24 1 -1.22465e-16
    outer loop
      vertex 15 -6.73556e-16 -5.5
      vertex 0 -1.65327e-15 -13.5
      vertex 0 0 0
    endloop
  endfacet
  facet normal 0 1 -1.22465e-16
    outer loop
      vertex 0 -1.65327e-15 -13.5
      vertex 15 -1.22465e-15 -10
      vertex 39 -1.65327e-15 -13.5
    endloop
  endfacet
  facet normal -1.40237e-24 1 -1.22465e-16
    outer loop
      vertex 39 0 0
      vertex 29.5 -7.34788e-16 -6
      vertex 24 -6.73556e-16 -5.5
    endloop
  endfacet
  facet normal -3.85015e-24 1 -1.22465e-16
    outer loop
      vertex 29.5 -1.04095e-15 -8.5
      vertex 24 -6.73556e-16 -5.5
      vertex 29.5 -7.34788e-16 -6
    endloop
  endfacet
  facet normal 6.41692e-24 1 -1.22465e-16
    outer loop
      vertex 24 -6.73556e-16 -5.5
      vertex 29.5 -1.04095e-15 -8.5
      vertex 24 -1.22465e-15 -10
    endloop
  endfacet
  facet normal 1 0 0
    outer loop
      vertex 2 -78 9.55224e-15
      vertex 2 -2 -12.4
      vertex 2 -2 2.44929e-16
    endloop
  endfacet
  facet normal 1 0 0
    outer loop
      vertex 2 -2 -12.4
      vertex 2 -78 9.55224e-15
      vertex 2 -78 -12.4
    endloop
  endfacet
  facet normal -0 0 1
    outer loop
      vertex 25.5 -16 -12.4
      vertex 30 -19.5 -12.4
      vertex 33 -16 -12.4
    endloop
  endfacet
  facet normal 0 0 1
    outer loop
      vertex 15 -16 -12.4
      vertex 25.5 -16 -12.4
      vertex 15 -8.5 -12.4
    endloop
  endfacet
  facet normal 0 0 1
    outer loop
      vertex 25.5 -16 -12.4
      vertex 15 -16 -12.4
      vertex 30 -19.5 -12.4
    endloop
  endfacet
  facet normal 0 0 1
    outer loop
      vertex 15 -16 -12.4
      vertex 10 -19.5 -12.4
      vertex 30 -19.5 -12.4
    endloop
  endfacet
  facet normal 0 0 1
    outer loop
      vertex 10 -19.5 -12.4
      vertex 7.5 -16 -12.4
      vertex 10 -68.5 -12.4
    endloop
  endfacet
  facet normal -0 0 1
    outer loop
      vertex 7.5 -16 -12.4
      vertex 10 -19.5 -12.4
      vertex 15 -16 -12.4
    endloop
  endfacet
  facet normal 0 0 1
    outer loop
      vertex 33 -16 -12.4
      vertex 37 -2 -12.4
      vertex 33 -8.5 -12.4
    endloop
  endfacet
  facet normal 0 0 1
    outer loop
      vertex 37 -2 -12.4
      vertex 25.5 -8.5 -12.4
      vertex 33 -8.5 -12.4
    endloop
  endfacet
  facet normal 0 0 1
    outer loop
      vertex 25.5 -8.5 -12.4
      vertex 15 -8.5 -12.4
      vertex 25.5 -16 -12.4
    endloop
  endfacet
  facet normal 0 0 1
    outer loop
      vertex 37 -2 -12.4
      vertex 15 -8.5 -12.4
      vertex 25.5 -8.5 -12.4
    endloop
  endfacet
  facet normal -0 0 1
    outer loop
      vertex 2 -2 -12.4
      vertex 15 -8.5 -12.4
      vertex 37 -2 -12.4
    endloop
  endfacet
  facet normal 0 0 1
    outer loop
      vertex 7.5 -8.5 -12.4
      vertex 2 -2 -12.4
      vertex 7.5 -16 -12.4
    endloop
  endfacet
  facet normal 0 0 1
    outer loop
      vertex 15 -8.5 -12.4
      vertex 2 -2 -12.4
      vertex 7.5 -8.5 -12.4
    endloop
  endfacet
  facet normal 0 0 1
    outer loop
      vertex 37 -2 -12.4
      vertex 33 -16 -12.4
      vertex 37 -78 -12.4
    endloop
  endfacet
  facet normal 0 0 1
    outer loop
      vertex 30 -68.5 -12.4
      vertex 33 -16 -12.4
      vertex 30 -19.5 -12.4
    endloop
  endfacet
  facet normal 0 0 1
    outer loop
      vertex 33 -16 -12.4
      vertex 30 -68.5 -12.4
      vertex 37 -78 -12.4
    endloop
  endfacet
  facet normal -0 0 1
    outer loop
      vertex 10 -68.5 -12.4
      vertex 37 -78 -12.4
      vertex 30 -68.5 -12.4
    endloop
  endfacet
  facet normal 0 0 1
    outer loop
      vertex 2 -78 -12.4
      vertex 7.5 -16 -12.4
      vertex 2 -2 -12.4
    endloop
  endfacet
  facet normal 0 0 1
    outer loop
      vertex 10 -68.5 -12.4
      vertex 2 -78 -12.4
      vertex 37 -78 -12.4
    endloop
  endfacet
  facet normal 0 0 1
    outer loop
      vertex 7.5 -16 -12.4
      vertex 2 -78 -12.4
      vertex 10 -68.5 -12.4
    endloop
  endfacet
  facet normal -1 0 0
    outer loop
      vertex 37 -78 -12.4
      vertex 37 -2 2.44929e-16
      vertex 37 -2 -12.4
    endloop
  endfacet
  facet normal -1 -0 0
    outer loop
      vertex 37 -2 2.44929e-16
      vertex 37 -78 -12.4
      vertex 37 -78 9.55224e-15
    endloop
  endfacet
  facet normal 0 -1 0
    outer loop
      vertex 24 -2 -5.5
      vertex 29.5 -2 -8.5
      vertex 29.5 -2 -6
    endloop
  endfacet
  facet normal 0 -1 0
    outer loop
      vertex 37 -2 -12.4
      vertex 29.5 -2 -8.5
      vertex 24 -2 -10
    endloop
  endfacet
  facet normal 0 -1 0
    outer loop
      vertex 24 -2 -10
      vertex 29.5 -2 -8.5
      vertex 24 -2 -5.5
    endloop
  endfacet
  facet normal 0 -1 0
    outer loop
      vertex 2 -2 2.44929e-16
      vertex 15 -2 -5.5
      vertex 37 -2 2.44929e-16
    endloop
  endfacet
  facet normal 0 -1 0
    outer loop
      vertex 2 -2 -12.4
      vertex 15 -2 -5.5
      vertex 2 -2 2.44929e-16
    endloop
  endfacet
  facet normal 0 -1 -0
    outer loop
      vertex 15 -2 -10
      vertex 2 -2 -12.4
      vertex 24 -2 -10
    endloop
  endfacet
  facet normal 0 -1 -0
    outer loop
      vertex 15 -2 -5.5
      vertex 2 -2 -12.4
      vertex 15 -2 -10
    endloop
  endfacet
  facet normal 0 -1 0
    outer loop
      vertex 24 -2 -5.5
      vertex 37 -2 2.44929e-16
      vertex 15 -2 -5.5
    endloop
  endfacet
  facet normal 0 -1 0
    outer loop
      vertex 29.5 -2 -6
      vertex 37 -2 2.44929e-16
      vertex 24 -2 -5.5
    endloop
  endfacet
  facet normal 0 -1 0
    outer loop
      vertex 34 -2 -6
      vertex 37 -2 2.44929e-16
      vertex 29.5 -2 -6
    endloop
  endfacet
  facet normal 0 -1 0
    outer loop
      vertex 37 -2 -12.4
      vertex 34 -2 -6
      vertex 34 -2 -8.5
    endloop
  endfacet
  facet normal 0 -1 0
    outer loop
      vertex 34 -2 -6
      vertex 37 -2 -12.4
      vertex 37 -2 2.44929e-16
    endloop
  endfacet
  facet normal 0 -1 0
    outer loop
      vertex 29.5 -2 -8.5
      vertex 37 -2 -12.4
      vertex 34 -2 -8.5
    endloop
  endfacet
  facet normal 0 -1 0
    outer loop
      vertex 37 -2 -12.4
      vertex 24 -2 -10
      vertex 2 -2 -12.4
    endloop
  endfacet
  facet normal 0 1 -0
    outer loop
      vertex 37 -78 -12.4
      vertex 2 -78 9.55224e-15
      vertex 37 -78 9.55224e-15
    endloop
  endfacet
  facet normal 0 1 0
    outer loop
      vertex 2 -78 9.55224e-15
      vertex 37 -78 -12.4
      vertex 2 -78 -12.4
    endloop
  endfacet
  facet normal 1 -0 0
    outer loop
      vertex 10 -68.5 -12.4
      vertex 10 -19.5 -13.5
      vertex 10 -19.5 -12.4
    endloop
  endfacet
  facet normal 1 0 0
    outer loop
      vertex 10 -19.5 -13.5
      vertex 10 -68.5 -12.4
      vertex 10 -68.5 -13.5
    endloop
  endfacet
  facet normal -1 0 0
    outer loop
      vertex 30 -68.5 -13.5
      vertex 30 -19.5 -12.4
      vertex 30 -19.5 -13.5
    endloop
  endfacet
  facet normal -1 -0 0
    outer loop
      vertex 30 -19.5 -12.4
      vertex 30 -68.5 -13.5
      vertex 30 -68.5 -12.4
    endloop
  endfacet
  facet normal 0 -1 0
    outer loop
      vertex 10 -19.5 -13.5
      vertex 30 -19.5 -12.4
      vertex 10 -19.5 -12.4
    endloop
  endfacet
  facet normal 0 -1 -0
    outer loop
      vertex 30 -19.5 -12.4
      vertex 10 -19.5 -13.5
      vertex 30 -19.5 -13.5
    endloop
  endfacet
  facet normal 0 1 -0
    outer loop
      vertex 30 -68.5 -13.5
      vertex 10 -68.5 -12.4
      vertex 30 -68.5 -12.4
    endloop
  endfacet
  facet normal 0 1 0
    outer loop
      vertex 10 -68.5 -12.4
      vertex 30 -68.5 -13.5
      vertex 10 -68.5 -13.5
    endloop
  endfacet
  facet normal 1 -0 0
    outer loop
      vertex 7.5 -16 -12.4
      vertex 7.5 -8.5 -13.5
      vertex 7.5 -8.5 -12.4
    endloop
  endfacet
  facet normal 1 0 0
    outer loop
      vertex 7.5 -8.5 -13.5
      vertex 7.5 -16 -12.4
      vertex 7.5 -16 -13.5
    endloop
  endfacet
  facet normal -1 0 0
    outer loop
      vertex 15 -16 -13.5
      vertex 15 -8.5 -12.4
      vertex 15 -8.5 -13.5
    endloop
  endfacet
  facet normal -1 -0 0
    outer loop
      vertex 15 -8.5 -12.4
      vertex 15 -16 -13.5
      vertex 15 -16 -12.4
    endloop
  endfacet
  facet normal 0 -1 0
    outer loop
      vertex 7.5 -8.5 -13.5
      vertex 15 -8.5 -12.4
      vertex 7.5 -8.5 -12.4
    endloop
  endfacet
  facet normal 0 -1 -0
    outer loop
      vertex 15 -8.5 -12.4
      vertex 7.5 -8.5 -13.5
      vertex 15 -8.5 -13.5
    endloop
  endfacet
  facet normal 0 1 -0
    outer loop
      vertex 15 -16 -13.5
      vertex 7.5 -16 -12.4
      vertex 15 -16 -12.4
    endloop
  endfacet
  facet normal 0 1 0
    outer loop
      vertex 7.5 -16 -12.4
      vertex 15 -16 -13.5
      vertex 7.5 -16 -13.5
    endloop
  endfacet
  facet normal 1 -0 0
    outer loop
      vertex 25.5 -16 -12.4
      vertex 25.5 -8.5 -13.5
      vertex 25.5 -8.5 -12.4
    endloop
  endfacet
  facet normal 1 0 0
    outer loop
      vertex 25.5 -8.5 -13.5
      vertex 25.5 -16 -12.4
      vertex 25.5 -16 -13.5
    endloop
  endfacet
  facet normal -1 0 0
    outer loop
      vertex 33 -16 -13.5
      vertex 33 -8.5 -12.4
      vertex 33 -8.5 -13.5
    endloop
  endfacet
  facet normal -1 -0 0
    outer loop
      vertex 33 -8.5 -12.4
      vertex 33 -16 -13.5
      vertex 33 -16 -12.4
    endloop
  endfacet
  facet normal 0 1 -0
    outer loop
      vertex 33 -16 -13.5
      vertex 25.5 -16 -12.4
      vertex 33 -16 -12.4
    endloop
  endfacet
  facet normal 0 1 0
    outer loop
      vertex 25.5 -16 -12.4
      vertex 33 -16 -13.5
      vertex 25.5 -16 -13.5
    endloop
  endfacet
  facet normal 0 -1 0
    outer loop
      vertex 25.5 -8.5 -13.5
      vertex 33 -8.5 -12.4
      vertex 25.5 -8.5 -12.4
    endloop
  endfacet
  facet normal 0 -1 -0
    outer loop
      vertex 33 -8.5 -12.4
      vertex 25.5 -8.5 -13.5
      vertex 33 -8.5 -13.5
    endloop
  endfacet
  facet normal 1 -0 0
    outer loop
      vertex 15 -2 -5.5
      vertex 15 -1.22465e-15 -10
      vertex 15 -6.73556e-16 -5.5
    endloop
  endfacet
  facet normal 1 0 0
    outer loop
      vertex 15 -1.22465e-15 -10
      vertex 15 -2 -5.5
      vertex 15 -2 -10
    endloop
  endfacet
  facet normal -0 0 1
    outer loop
      vertex 15 -1.22465e-15 -10
      vertex 24 -2 -10
      vertex 24 -1.22465e-15 -10
    endloop
  endfacet
  facet normal 0 0 1
    outer loop
      vertex 24 -2 -10
      vertex 15 -1.22465e-15 -10
      vertex 15 -2 -10
    endloop
  endfacet
  facet normal -1 0 0
    outer loop
      vertex 24 -2 -10
      vertex 24 -6.73556e-16 -5.5
      vertex 24 -1.22465e-15 -10
    endloop
  endfacet
  facet normal -1 -0 0
    outer loop
      vertex 24 -6.73556e-16 -5.5
      vertex 24 -2 -10
      vertex 24 -2 -5.5
    endloop
  endfacet
  facet normal 0 0 -1
    outer loop
      vertex 15 -2 -5.5
      vertex 24 -6.73556e-16 -5.5
      vertex 24 -2 -5.5
    endloop
  endfacet
  facet normal -0 0 -1
    outer loop
      vertex 24 -6.73556e-16 -5.5
      vertex 15 -2 -5.5
      vertex 15 -6.73556e-16 -5.5
    endloop
  endfacet
  facet normal 1 -0 0
    outer loop
      vertex 29.5 -2 -6
      vertex 29.5 -1.04095e-15 -8.5
      vertex 29.5 -7.34788e-16 -6
    endloop
  endfacet
  facet normal 1 0 0
    outer loop
      vertex 29.5 -1.04095e-15 -8.5
      vertex 29.5 -2 -6
      vertex 29.5 -2 -8.5
    endloop
  endfacet
  facet normal -0 0 1
    outer loop
      vertex 29.5 -1.04095e-15 -8.5
      vertex 34 -2 -8.5
      vertex 34 -1.04095e-15 -8.5
    endloop
  endfacet
  facet normal 0 0 1
    outer loop
      vertex 34 -2 -8.5
      vertex 29.5 -1.04095e-15 -8.5
      vertex 29.5 -2 -8.5
    endloop
  endfacet
  facet normal -1 0 0
    outer loop
      vertex 34 -2 -8.5
      vertex 34 -7.34788e-16 -6
      vertex 34 -1.04095e-15 -8.5
    endloop
  endfacet
  facet normal -1 -0 0
    outer loop
      vertex 34 -7.34788e-16 -6
      vertex 34 -2 -8.5
      vertex 34 -2 -6
    endloop
  endfacet
  facet normal 0 0 -1
    outer loop
      vertex 29.5 -2 -6
      vertex 34 -7.34788e-16 -6
      vertex 34 -2 -6
    endloop
  endfacet
  facet normal -0 0 -1
    outer loop
      vertex 34 -7.34788e-16 -6
      vertex 29.5 -2 -6
      vertex 29.5 -7.34788e-16 -6
    endloop
  endfacet
endsolid OpenSCAD_Model
