G04 #@! TF.FileFunction,Soldermask,Top*
%FSLAX46Y46*%
G04 Gerber Fmt 4.6, Leading zero omitted, Abs format (unit mm)*
G04 Created by KiCad (PCBNEW (2015-04-29 BZR 5630)-product) date Mon 29 Jun 2015 10:52:54 BST*
%MOMM*%
G01*
G04 APERTURE LIST*
%ADD10C,0.150000*%
%ADD11R,2.950160X2.899360*%
%ADD12R,1.197560X1.197560*%
%ADD13R,2.432000X2.127200*%
%ADD14O,2.432000X2.127200*%
%ADD15R,0.900000X1.300000*%
%ADD16R,1.300000X2.900000*%
%ADD17R,1.200100X1.200100*%
%ADD18R,1.797000X1.797000*%
%ADD19C,1.797000*%
%ADD20R,1.700480X3.498800*%
%ADD21C,2.200860*%
%ADD22R,2.432000X2.432000*%
%ADD23O,2.432000X2.432000*%
%ADD24R,2.127200X2.127200*%
%ADD25O,2.127200X2.127200*%
G04 APERTURE END LIST*
D10*
D11*
X92542360Y-44602400D03*
X87492840Y-44602400D03*
D12*
X113728500Y-46024800D03*
X112229900Y-46024800D03*
X71234300Y-45974000D03*
X72732900Y-45974000D03*
X83375500Y-45974000D03*
X84874100Y-45974000D03*
X96761300Y-45974000D03*
X95262700Y-45974000D03*
D13*
X96113600Y-78892400D03*
D14*
X96113600Y-76352400D03*
X96113600Y-73812400D03*
X96113600Y-71272400D03*
D15*
X113729200Y-44297600D03*
X112229200Y-44297600D03*
X72733600Y-44348400D03*
X71233600Y-44348400D03*
X84874800Y-44297600D03*
X83374800Y-44297600D03*
X99810000Y-45923200D03*
X98310000Y-45923200D03*
D12*
X108750100Y-45974000D03*
X107251500Y-45974000D03*
D13*
X95758000Y-61772800D03*
D14*
X95758000Y-59232800D03*
X95758000Y-56692800D03*
X95758000Y-54152800D03*
X95758000Y-51612800D03*
D16*
X77086800Y-45110400D03*
X79986800Y-45110400D03*
D17*
X102885200Y-46009560D03*
X104785200Y-46009560D03*
X103835200Y-44010580D03*
D15*
X107250800Y-44297600D03*
X108750800Y-44297600D03*
D18*
X131927600Y-48869600D03*
D19*
X131927600Y-46329600D03*
X131927600Y-43789600D03*
D20*
X124307600Y-48615600D03*
X124307600Y-56743600D03*
X128879600Y-56743600D03*
X128879600Y-48615600D03*
D21*
X124307600Y-55930800D03*
X124307600Y-49428400D03*
X128808480Y-55930800D03*
X128808480Y-49428400D03*
D20*
X124206000Y-66649600D03*
X124206000Y-74777600D03*
X128778000Y-74777600D03*
X128778000Y-66649600D03*
D21*
X124206000Y-73964800D03*
X124206000Y-67462400D03*
X128706880Y-73964800D03*
X128706880Y-67462400D03*
D22*
X128016000Y-44297600D03*
D23*
X125476000Y-44297600D03*
D24*
X85394800Y-60604400D03*
D25*
X82854800Y-60604400D03*
X85394800Y-63144400D03*
X82854800Y-63144400D03*
D22*
X125069600Y-79095600D03*
D23*
X127609600Y-79095600D03*
M02*
