G04 #@! TF.FileFunction,Legend,Top*
%FSLAX46Y46*%
G04 Gerber Fmt 4.6, Leading zero omitted, Abs format (unit mm)*
G04 Created by KiCad (PCBNEW (2015-04-29 BZR 5630)-product) date Mon 29 Jun 2015 10:52:54 BST*
%MOMM*%
G01*
G04 APERTURE LIST*
%ADD10C,0.150000*%
%ADD11C,0.300000*%
%ADD12C,0.200000*%
%ADD13C,0.304800*%
G04 APERTURE END LIST*
D10*
D11*
X61265086Y-78324971D02*
X61765086Y-79824971D01*
X62265086Y-78324971D01*
X63050800Y-78324971D02*
X63193657Y-78324971D01*
X63336514Y-78396400D01*
X63407943Y-78467829D01*
X63479372Y-78610686D01*
X63550800Y-78896400D01*
X63550800Y-79253543D01*
X63479372Y-79539257D01*
X63407943Y-79682114D01*
X63336514Y-79753543D01*
X63193657Y-79824971D01*
X63050800Y-79824971D01*
X62907943Y-79753543D01*
X62836514Y-79682114D01*
X62765086Y-79539257D01*
X62693657Y-79253543D01*
X62693657Y-78896400D01*
X62765086Y-78610686D01*
X62836514Y-78467829D01*
X62907943Y-78396400D01*
X63050800Y-78324971D01*
X64193657Y-79682114D02*
X64265085Y-79753543D01*
X64193657Y-79824971D01*
X64122228Y-79753543D01*
X64193657Y-79682114D01*
X64193657Y-79824971D01*
X65693657Y-79824971D02*
X64836514Y-79824971D01*
X65265086Y-79824971D02*
X65265086Y-78324971D01*
X65122229Y-78539257D01*
X64979371Y-78682114D01*
X64836514Y-78753543D01*
D12*
X100010532Y-78160571D02*
X100153389Y-78208190D01*
X100201008Y-78255810D01*
X100248627Y-78351048D01*
X100248627Y-78493905D01*
X100201008Y-78589143D01*
X100153389Y-78636762D01*
X100058151Y-78684381D01*
X99677198Y-78684381D01*
X99677198Y-77684381D01*
X100010532Y-77684381D01*
X100105770Y-77732000D01*
X100153389Y-77779619D01*
X100201008Y-77874857D01*
X100201008Y-77970095D01*
X100153389Y-78065333D01*
X100105770Y-78112952D01*
X100010532Y-78160571D01*
X99677198Y-78160571D01*
X100820055Y-78684381D02*
X100724817Y-78636762D01*
X100677198Y-78541524D01*
X100677198Y-77684381D01*
X101629580Y-78017714D02*
X101629580Y-78684381D01*
X101201008Y-78017714D02*
X101201008Y-78541524D01*
X101248627Y-78636762D01*
X101343865Y-78684381D01*
X101486723Y-78684381D01*
X101581961Y-78636762D01*
X101629580Y-78589143D01*
X102486723Y-78636762D02*
X102391485Y-78684381D01*
X102201008Y-78684381D01*
X102105770Y-78636762D01*
X102058151Y-78541524D01*
X102058151Y-78160571D01*
X102105770Y-78065333D01*
X102201008Y-78017714D01*
X102391485Y-78017714D01*
X102486723Y-78065333D01*
X102534342Y-78160571D01*
X102534342Y-78255810D01*
X102058151Y-78351048D01*
X102820056Y-78017714D02*
X103201008Y-78017714D01*
X102962913Y-77684381D02*
X102962913Y-78541524D01*
X103010532Y-78636762D01*
X103105770Y-78684381D01*
X103201008Y-78684381D01*
X103677199Y-78684381D02*
X103581961Y-78636762D01*
X103534342Y-78589143D01*
X103486723Y-78493905D01*
X103486723Y-78208190D01*
X103534342Y-78112952D01*
X103581961Y-78065333D01*
X103677199Y-78017714D01*
X103820057Y-78017714D01*
X103915295Y-78065333D01*
X103962914Y-78112952D01*
X104010533Y-78208190D01*
X104010533Y-78493905D01*
X103962914Y-78589143D01*
X103915295Y-78636762D01*
X103820057Y-78684381D01*
X103677199Y-78684381D01*
X104581961Y-78684381D02*
X104486723Y-78636762D01*
X104439104Y-78589143D01*
X104391485Y-78493905D01*
X104391485Y-78208190D01*
X104439104Y-78112952D01*
X104486723Y-78065333D01*
X104581961Y-78017714D01*
X104724819Y-78017714D01*
X104820057Y-78065333D01*
X104867676Y-78112952D01*
X104915295Y-78208190D01*
X104915295Y-78493905D01*
X104867676Y-78589143D01*
X104820057Y-78636762D01*
X104724819Y-78684381D01*
X104581961Y-78684381D01*
X105201009Y-78017714D02*
X105581961Y-78017714D01*
X105343866Y-77684381D02*
X105343866Y-78541524D01*
X105391485Y-78636762D01*
X105486723Y-78684381D01*
X105581961Y-78684381D01*
X105915295Y-78684381D02*
X105915295Y-77684381D01*
X106343867Y-78684381D02*
X106343867Y-78160571D01*
X106296248Y-78065333D01*
X106201010Y-78017714D01*
X106058152Y-78017714D01*
X105962914Y-78065333D01*
X105915295Y-78112952D01*
X107581962Y-78160571D02*
X107915296Y-78160571D01*
X108058153Y-78684381D02*
X107581962Y-78684381D01*
X107581962Y-77684381D01*
X108058153Y-77684381D01*
X108486724Y-78303429D02*
X109248629Y-78303429D01*
X109724819Y-78684381D02*
X109724819Y-77684381D01*
X110105772Y-77684381D01*
X110201010Y-77732000D01*
X110248629Y-77779619D01*
X110296248Y-77874857D01*
X110296248Y-78017714D01*
X110248629Y-78112952D01*
X110201010Y-78160571D01*
X110105772Y-78208190D01*
X109724819Y-78208190D01*
X111153391Y-78684381D02*
X111153391Y-78160571D01*
X111105772Y-78065333D01*
X111010534Y-78017714D01*
X110820057Y-78017714D01*
X110724819Y-78065333D01*
X111153391Y-78636762D02*
X111058153Y-78684381D01*
X110820057Y-78684381D01*
X110724819Y-78636762D01*
X110677200Y-78541524D01*
X110677200Y-78446286D01*
X110724819Y-78351048D01*
X110820057Y-78303429D01*
X111058153Y-78303429D01*
X111153391Y-78255810D01*
X111629581Y-78017714D02*
X111629581Y-79017714D01*
X111629581Y-78065333D02*
X111724819Y-78017714D01*
X111915296Y-78017714D01*
X112010534Y-78065333D01*
X112058153Y-78112952D01*
X112105772Y-78208190D01*
X112105772Y-78493905D01*
X112058153Y-78589143D01*
X112010534Y-78636762D01*
X111915296Y-78684381D01*
X111724819Y-78684381D01*
X111629581Y-78636762D01*
X112915296Y-78636762D02*
X112820058Y-78684381D01*
X112629581Y-78684381D01*
X112534343Y-78636762D01*
X112486724Y-78541524D01*
X112486724Y-78160571D01*
X112534343Y-78065333D01*
X112629581Y-78017714D01*
X112820058Y-78017714D01*
X112915296Y-78065333D01*
X112962915Y-78160571D01*
X112962915Y-78255810D01*
X112486724Y-78351048D01*
X113391486Y-78684381D02*
X113391486Y-78017714D01*
X113391486Y-78208190D02*
X113439105Y-78112952D01*
X113486724Y-78065333D01*
X113581962Y-78017714D01*
X113677201Y-78017714D01*
X114772439Y-78684381D02*
X114772439Y-77684381D01*
X115010534Y-77684381D01*
X115153392Y-77732000D01*
X115248630Y-77827238D01*
X115296249Y-77922476D01*
X115343868Y-78112952D01*
X115343868Y-78255810D01*
X115296249Y-78446286D01*
X115248630Y-78541524D01*
X115153392Y-78636762D01*
X115010534Y-78684381D01*
X114772439Y-78684381D01*
X115772439Y-78684381D02*
X115772439Y-78017714D01*
X115772439Y-77684381D02*
X115724820Y-77732000D01*
X115772439Y-77779619D01*
X115820058Y-77732000D01*
X115772439Y-77684381D01*
X115772439Y-77779619D01*
X116201010Y-78636762D02*
X116296248Y-78684381D01*
X116486724Y-78684381D01*
X116581963Y-78636762D01*
X116629582Y-78541524D01*
X116629582Y-78493905D01*
X116581963Y-78398667D01*
X116486724Y-78351048D01*
X116343867Y-78351048D01*
X116248629Y-78303429D01*
X116201010Y-78208190D01*
X116201010Y-78160571D01*
X116248629Y-78065333D01*
X116343867Y-78017714D01*
X116486724Y-78017714D01*
X116581963Y-78065333D01*
X117058153Y-78017714D02*
X117058153Y-79017714D01*
X117058153Y-78065333D02*
X117153391Y-78017714D01*
X117343868Y-78017714D01*
X117439106Y-78065333D01*
X117486725Y-78112952D01*
X117534344Y-78208190D01*
X117534344Y-78493905D01*
X117486725Y-78589143D01*
X117439106Y-78636762D01*
X117343868Y-78684381D01*
X117153391Y-78684381D01*
X117058153Y-78636762D01*
X118105772Y-78684381D02*
X118010534Y-78636762D01*
X117962915Y-78541524D01*
X117962915Y-77684381D01*
X118915297Y-78684381D02*
X118915297Y-78160571D01*
X118867678Y-78065333D01*
X118772440Y-78017714D01*
X118581963Y-78017714D01*
X118486725Y-78065333D01*
X118915297Y-78636762D02*
X118820059Y-78684381D01*
X118581963Y-78684381D01*
X118486725Y-78636762D01*
X118439106Y-78541524D01*
X118439106Y-78446286D01*
X118486725Y-78351048D01*
X118581963Y-78303429D01*
X118820059Y-78303429D01*
X118915297Y-78255810D01*
X119296249Y-78017714D02*
X119534344Y-78684381D01*
X119772440Y-78017714D02*
X119534344Y-78684381D01*
X119439106Y-78922476D01*
X119391487Y-78970095D01*
X119296249Y-79017714D01*
X99296246Y-79284381D02*
X99962913Y-79284381D01*
X99296246Y-80284381D01*
X99962913Y-80284381D01*
X100486722Y-80284381D02*
X100391484Y-80236762D01*
X100343865Y-80189143D01*
X100296246Y-80093905D01*
X100296246Y-79808190D01*
X100343865Y-79712952D01*
X100391484Y-79665333D01*
X100486722Y-79617714D01*
X100629580Y-79617714D01*
X100724818Y-79665333D01*
X100772437Y-79712952D01*
X100820056Y-79808190D01*
X100820056Y-80093905D01*
X100772437Y-80189143D01*
X100724818Y-80236762D01*
X100629580Y-80284381D01*
X100486722Y-80284381D01*
X101629580Y-80236762D02*
X101534342Y-80284381D01*
X101343865Y-80284381D01*
X101248627Y-80236762D01*
X101201008Y-80141524D01*
X101201008Y-79760571D01*
X101248627Y-79665333D01*
X101343865Y-79617714D01*
X101534342Y-79617714D01*
X101629580Y-79665333D01*
X101677199Y-79760571D01*
X101677199Y-79855810D01*
X101201008Y-79951048D01*
X101962913Y-79617714D02*
X102343865Y-79617714D01*
X102105770Y-79284381D02*
X102105770Y-80141524D01*
X102153389Y-80236762D01*
X102248627Y-80284381D01*
X102343865Y-80284381D01*
X102677199Y-80284381D02*
X102677199Y-79617714D01*
X102677199Y-79808190D02*
X102724818Y-79712952D01*
X102772437Y-79665333D01*
X102867675Y-79617714D01*
X102962914Y-79617714D01*
X103439104Y-80284381D02*
X103343866Y-80236762D01*
X103296247Y-80189143D01*
X103248628Y-80093905D01*
X103248628Y-79808190D01*
X103296247Y-79712952D01*
X103343866Y-79665333D01*
X103439104Y-79617714D01*
X103581962Y-79617714D01*
X103677200Y-79665333D01*
X103724819Y-79712952D01*
X103772438Y-79808190D01*
X103772438Y-80093905D01*
X103724819Y-80189143D01*
X103677200Y-80236762D01*
X103581962Y-80284381D01*
X103439104Y-80284381D01*
X104201009Y-79617714D02*
X104201009Y-80617714D01*
X104201009Y-79665333D02*
X104296247Y-79617714D01*
X104486724Y-79617714D01*
X104581962Y-79665333D01*
X104629581Y-79712952D01*
X104677200Y-79808190D01*
X104677200Y-80093905D01*
X104629581Y-80189143D01*
X104581962Y-80236762D01*
X104486724Y-80284381D01*
X104296247Y-80284381D01*
X104201009Y-80236762D01*
X105486724Y-80236762D02*
X105391486Y-80284381D01*
X105201009Y-80284381D01*
X105105771Y-80236762D01*
X105058152Y-80141524D01*
X105058152Y-79760571D01*
X105105771Y-79665333D01*
X105201009Y-79617714D01*
X105391486Y-79617714D01*
X105486724Y-79665333D01*
X105534343Y-79760571D01*
X105534343Y-79855810D01*
X105058152Y-79951048D01*
X107201010Y-80284381D02*
X106724819Y-80284381D01*
X106724819Y-79284381D01*
X107962915Y-80284381D02*
X107962915Y-79760571D01*
X107915296Y-79665333D01*
X107820058Y-79617714D01*
X107629581Y-79617714D01*
X107534343Y-79665333D01*
X107962915Y-80236762D02*
X107867677Y-80284381D01*
X107629581Y-80284381D01*
X107534343Y-80236762D01*
X107486724Y-80141524D01*
X107486724Y-80046286D01*
X107534343Y-79951048D01*
X107629581Y-79903429D01*
X107867677Y-79903429D01*
X107962915Y-79855810D01*
X108439105Y-80284381D02*
X108439105Y-79284381D01*
X108439105Y-79665333D02*
X108534343Y-79617714D01*
X108724820Y-79617714D01*
X108820058Y-79665333D01*
X108867677Y-79712952D01*
X108915296Y-79808190D01*
X108915296Y-80093905D01*
X108867677Y-80189143D01*
X108820058Y-80236762D01*
X108724820Y-80284381D01*
X108534343Y-80284381D01*
X108439105Y-80236762D01*
X109296248Y-80236762D02*
X109391486Y-80284381D01*
X109581962Y-80284381D01*
X109677201Y-80236762D01*
X109724820Y-80141524D01*
X109724820Y-80093905D01*
X109677201Y-79998667D01*
X109581962Y-79951048D01*
X109439105Y-79951048D01*
X109343867Y-79903429D01*
X109296248Y-79808190D01*
X109296248Y-79760571D01*
X109343867Y-79665333D01*
X109439105Y-79617714D01*
X109581962Y-79617714D01*
X109677201Y-79665333D01*
X111153391Y-80617714D02*
X111153391Y-79189143D01*
X112486725Y-79284381D02*
X112820058Y-80284381D01*
X113153392Y-79284381D01*
X113677201Y-79284381D02*
X113772440Y-79284381D01*
X113867678Y-79332000D01*
X113915297Y-79379619D01*
X113962916Y-79474857D01*
X114010535Y-79665333D01*
X114010535Y-79903429D01*
X113962916Y-80093905D01*
X113915297Y-80189143D01*
X113867678Y-80236762D01*
X113772440Y-80284381D01*
X113677201Y-80284381D01*
X113581963Y-80236762D01*
X113534344Y-80189143D01*
X113486725Y-80093905D01*
X113439106Y-79903429D01*
X113439106Y-79665333D01*
X113486725Y-79474857D01*
X113534344Y-79379619D01*
X113581963Y-79332000D01*
X113677201Y-79284381D01*
X114439106Y-80189143D02*
X114486725Y-80236762D01*
X114439106Y-80284381D01*
X114391487Y-80236762D01*
X114439106Y-80189143D01*
X114439106Y-80284381D01*
X115439106Y-80284381D02*
X114867677Y-80284381D01*
X115153391Y-80284381D02*
X115153391Y-79284381D01*
X115058153Y-79427238D01*
X114962915Y-79522476D01*
X114867677Y-79570095D01*
X116581963Y-79379619D02*
X116629582Y-79332000D01*
X116724820Y-79284381D01*
X116962916Y-79284381D01*
X117058154Y-79332000D01*
X117105773Y-79379619D01*
X117153392Y-79474857D01*
X117153392Y-79570095D01*
X117105773Y-79712952D01*
X116534344Y-80284381D01*
X117153392Y-80284381D01*
X117772439Y-79284381D02*
X117867678Y-79284381D01*
X117962916Y-79332000D01*
X118010535Y-79379619D01*
X118058154Y-79474857D01*
X118105773Y-79665333D01*
X118105773Y-79903429D01*
X118058154Y-80093905D01*
X118010535Y-80189143D01*
X117962916Y-80236762D01*
X117867678Y-80284381D01*
X117772439Y-80284381D01*
X117677201Y-80236762D01*
X117629582Y-80189143D01*
X117581963Y-80093905D01*
X117534344Y-79903429D01*
X117534344Y-79665333D01*
X117581963Y-79474857D01*
X117629582Y-79379619D01*
X117677201Y-79332000D01*
X117772439Y-79284381D01*
X119058154Y-80284381D02*
X118486725Y-80284381D01*
X118772439Y-80284381D02*
X118772439Y-79284381D01*
X118677201Y-79427238D01*
X118581963Y-79522476D01*
X118486725Y-79570095D01*
X119962916Y-79284381D02*
X119486725Y-79284381D01*
X119439106Y-79760571D01*
X119486725Y-79712952D01*
X119581963Y-79665333D01*
X119820059Y-79665333D01*
X119915297Y-79712952D01*
X119962916Y-79760571D01*
X120010535Y-79855810D01*
X120010535Y-80093905D01*
X119962916Y-80189143D01*
X119915297Y-80236762D01*
X119820059Y-80284381D01*
X119581963Y-80284381D01*
X119486725Y-80236762D01*
X119439106Y-80189143D01*
D11*
X76787600Y-65107657D02*
X77001886Y-65179086D01*
X77073314Y-65250514D01*
X77144743Y-65393371D01*
X77144743Y-65607657D01*
X77073314Y-65750514D01*
X77001886Y-65821943D01*
X76859028Y-65893371D01*
X76287600Y-65893371D01*
X76287600Y-64393371D01*
X76787600Y-64393371D01*
X76930457Y-64464800D01*
X77001886Y-64536229D01*
X77073314Y-64679086D01*
X77073314Y-64821943D01*
X77001886Y-64964800D01*
X76930457Y-65036229D01*
X76787600Y-65107657D01*
X76287600Y-65107657D01*
X78001886Y-65893371D02*
X77859028Y-65821943D01*
X77787600Y-65679086D01*
X77787600Y-64393371D01*
X79216171Y-64893371D02*
X79216171Y-65893371D01*
X78573314Y-64893371D02*
X78573314Y-65679086D01*
X78644742Y-65821943D01*
X78787600Y-65893371D01*
X79001885Y-65893371D01*
X79144742Y-65821943D01*
X79216171Y-65750514D01*
X80501885Y-65821943D02*
X80359028Y-65893371D01*
X80073314Y-65893371D01*
X79930457Y-65821943D01*
X79859028Y-65679086D01*
X79859028Y-65107657D01*
X79930457Y-64964800D01*
X80073314Y-64893371D01*
X80359028Y-64893371D01*
X80501885Y-64964800D01*
X80573314Y-65107657D01*
X80573314Y-65250514D01*
X79859028Y-65393371D01*
X81001885Y-64893371D02*
X81573314Y-64893371D01*
X81216171Y-64393371D02*
X81216171Y-65679086D01*
X81287599Y-65821943D01*
X81430457Y-65893371D01*
X81573314Y-65893371D01*
X82287600Y-65893371D02*
X82144742Y-65821943D01*
X82073314Y-65750514D01*
X82001885Y-65607657D01*
X82001885Y-65179086D01*
X82073314Y-65036229D01*
X82144742Y-64964800D01*
X82287600Y-64893371D01*
X82501885Y-64893371D01*
X82644742Y-64964800D01*
X82716171Y-65036229D01*
X82787600Y-65179086D01*
X82787600Y-65607657D01*
X82716171Y-65750514D01*
X82644742Y-65821943D01*
X82501885Y-65893371D01*
X82287600Y-65893371D01*
X83644743Y-65893371D02*
X83501885Y-65821943D01*
X83430457Y-65750514D01*
X83359028Y-65607657D01*
X83359028Y-65179086D01*
X83430457Y-65036229D01*
X83501885Y-64964800D01*
X83644743Y-64893371D01*
X83859028Y-64893371D01*
X84001885Y-64964800D01*
X84073314Y-65036229D01*
X84144743Y-65179086D01*
X84144743Y-65607657D01*
X84073314Y-65750514D01*
X84001885Y-65821943D01*
X83859028Y-65893371D01*
X83644743Y-65893371D01*
X84573314Y-64893371D02*
X85144743Y-64893371D01*
X84787600Y-64393371D02*
X84787600Y-65679086D01*
X84859028Y-65821943D01*
X85001886Y-65893371D01*
X85144743Y-65893371D01*
X85644743Y-65893371D02*
X85644743Y-64393371D01*
X86287600Y-65893371D02*
X86287600Y-65107657D01*
X86216171Y-64964800D01*
X86073314Y-64893371D01*
X85859029Y-64893371D01*
X85716171Y-64964800D01*
X85644743Y-65036229D01*
X88144743Y-65107657D02*
X88644743Y-65107657D01*
X88859029Y-65893371D02*
X88144743Y-65893371D01*
X88144743Y-64393371D01*
X88859029Y-64393371D01*
X89501886Y-65321943D02*
X90644743Y-65321943D01*
X91359029Y-65893371D02*
X91359029Y-64393371D01*
X91930457Y-64393371D01*
X92073315Y-64464800D01*
X92144743Y-64536229D01*
X92216172Y-64679086D01*
X92216172Y-64893371D01*
X92144743Y-65036229D01*
X92073315Y-65107657D01*
X91930457Y-65179086D01*
X91359029Y-65179086D01*
X93501886Y-65893371D02*
X93501886Y-65107657D01*
X93430457Y-64964800D01*
X93287600Y-64893371D01*
X93001886Y-64893371D01*
X92859029Y-64964800D01*
X93501886Y-65821943D02*
X93359029Y-65893371D01*
X93001886Y-65893371D01*
X92859029Y-65821943D01*
X92787600Y-65679086D01*
X92787600Y-65536229D01*
X92859029Y-65393371D01*
X93001886Y-65321943D01*
X93359029Y-65321943D01*
X93501886Y-65250514D01*
X94216172Y-64893371D02*
X94216172Y-66393371D01*
X94216172Y-64964800D02*
X94359029Y-64893371D01*
X94644743Y-64893371D01*
X94787600Y-64964800D01*
X94859029Y-65036229D01*
X94930458Y-65179086D01*
X94930458Y-65607657D01*
X94859029Y-65750514D01*
X94787600Y-65821943D01*
X94644743Y-65893371D01*
X94359029Y-65893371D01*
X94216172Y-65821943D01*
X96144743Y-65821943D02*
X96001886Y-65893371D01*
X95716172Y-65893371D01*
X95573315Y-65821943D01*
X95501886Y-65679086D01*
X95501886Y-65107657D01*
X95573315Y-64964800D01*
X95716172Y-64893371D01*
X96001886Y-64893371D01*
X96144743Y-64964800D01*
X96216172Y-65107657D01*
X96216172Y-65250514D01*
X95501886Y-65393371D01*
X96859029Y-65893371D02*
X96859029Y-64893371D01*
X96859029Y-65179086D02*
X96930457Y-65036229D01*
X97001886Y-64964800D01*
X97144743Y-64893371D01*
X97287600Y-64893371D01*
X98930457Y-65893371D02*
X98930457Y-64393371D01*
X99287600Y-64393371D01*
X99501885Y-64464800D01*
X99644743Y-64607657D01*
X99716171Y-64750514D01*
X99787600Y-65036229D01*
X99787600Y-65250514D01*
X99716171Y-65536229D01*
X99644743Y-65679086D01*
X99501885Y-65821943D01*
X99287600Y-65893371D01*
X98930457Y-65893371D01*
X100430457Y-65893371D02*
X100430457Y-64893371D01*
X100430457Y-64393371D02*
X100359028Y-64464800D01*
X100430457Y-64536229D01*
X100501885Y-64464800D01*
X100430457Y-64393371D01*
X100430457Y-64536229D01*
X101073314Y-65821943D02*
X101216171Y-65893371D01*
X101501886Y-65893371D01*
X101644743Y-65821943D01*
X101716171Y-65679086D01*
X101716171Y-65607657D01*
X101644743Y-65464800D01*
X101501886Y-65393371D01*
X101287600Y-65393371D01*
X101144743Y-65321943D01*
X101073314Y-65179086D01*
X101073314Y-65107657D01*
X101144743Y-64964800D01*
X101287600Y-64893371D01*
X101501886Y-64893371D01*
X101644743Y-64964800D01*
X102359029Y-64893371D02*
X102359029Y-66393371D01*
X102359029Y-64964800D02*
X102501886Y-64893371D01*
X102787600Y-64893371D01*
X102930457Y-64964800D01*
X103001886Y-65036229D01*
X103073315Y-65179086D01*
X103073315Y-65607657D01*
X103001886Y-65750514D01*
X102930457Y-65821943D01*
X102787600Y-65893371D01*
X102501886Y-65893371D01*
X102359029Y-65821943D01*
X103930458Y-65893371D02*
X103787600Y-65821943D01*
X103716172Y-65679086D01*
X103716172Y-64393371D01*
X105144743Y-65893371D02*
X105144743Y-65107657D01*
X105073314Y-64964800D01*
X104930457Y-64893371D01*
X104644743Y-64893371D01*
X104501886Y-64964800D01*
X105144743Y-65821943D02*
X105001886Y-65893371D01*
X104644743Y-65893371D01*
X104501886Y-65821943D01*
X104430457Y-65679086D01*
X104430457Y-65536229D01*
X104501886Y-65393371D01*
X104644743Y-65321943D01*
X105001886Y-65321943D01*
X105144743Y-65250514D01*
X105716172Y-64893371D02*
X106073315Y-65893371D01*
X106430457Y-64893371D02*
X106073315Y-65893371D01*
X105930457Y-66250514D01*
X105859029Y-66321943D01*
X105716172Y-66393371D01*
X83430458Y-66793371D02*
X84430458Y-66793371D01*
X83430458Y-68293371D01*
X84430458Y-68293371D01*
X85216172Y-68293371D02*
X85073314Y-68221943D01*
X85001886Y-68150514D01*
X84930457Y-68007657D01*
X84930457Y-67579086D01*
X85001886Y-67436229D01*
X85073314Y-67364800D01*
X85216172Y-67293371D01*
X85430457Y-67293371D01*
X85573314Y-67364800D01*
X85644743Y-67436229D01*
X85716172Y-67579086D01*
X85716172Y-68007657D01*
X85644743Y-68150514D01*
X85573314Y-68221943D01*
X85430457Y-68293371D01*
X85216172Y-68293371D01*
X86930457Y-68221943D02*
X86787600Y-68293371D01*
X86501886Y-68293371D01*
X86359029Y-68221943D01*
X86287600Y-68079086D01*
X86287600Y-67507657D01*
X86359029Y-67364800D01*
X86501886Y-67293371D01*
X86787600Y-67293371D01*
X86930457Y-67364800D01*
X87001886Y-67507657D01*
X87001886Y-67650514D01*
X86287600Y-67793371D01*
X87430457Y-67293371D02*
X88001886Y-67293371D01*
X87644743Y-66793371D02*
X87644743Y-68079086D01*
X87716171Y-68221943D01*
X87859029Y-68293371D01*
X88001886Y-68293371D01*
X88501886Y-68293371D02*
X88501886Y-67293371D01*
X88501886Y-67579086D02*
X88573314Y-67436229D01*
X88644743Y-67364800D01*
X88787600Y-67293371D01*
X88930457Y-67293371D01*
X89644743Y-68293371D02*
X89501885Y-68221943D01*
X89430457Y-68150514D01*
X89359028Y-68007657D01*
X89359028Y-67579086D01*
X89430457Y-67436229D01*
X89501885Y-67364800D01*
X89644743Y-67293371D01*
X89859028Y-67293371D01*
X90001885Y-67364800D01*
X90073314Y-67436229D01*
X90144743Y-67579086D01*
X90144743Y-68007657D01*
X90073314Y-68150514D01*
X90001885Y-68221943D01*
X89859028Y-68293371D01*
X89644743Y-68293371D01*
X90787600Y-67293371D02*
X90787600Y-68793371D01*
X90787600Y-67364800D02*
X90930457Y-67293371D01*
X91216171Y-67293371D01*
X91359028Y-67364800D01*
X91430457Y-67436229D01*
X91501886Y-67579086D01*
X91501886Y-68007657D01*
X91430457Y-68150514D01*
X91359028Y-68221943D01*
X91216171Y-68293371D01*
X90930457Y-68293371D01*
X90787600Y-68221943D01*
X92716171Y-68221943D02*
X92573314Y-68293371D01*
X92287600Y-68293371D01*
X92144743Y-68221943D01*
X92073314Y-68079086D01*
X92073314Y-67507657D01*
X92144743Y-67364800D01*
X92287600Y-67293371D01*
X92573314Y-67293371D01*
X92716171Y-67364800D01*
X92787600Y-67507657D01*
X92787600Y-67650514D01*
X92073314Y-67793371D01*
X95287600Y-68293371D02*
X94573314Y-68293371D01*
X94573314Y-66793371D01*
X96430457Y-68293371D02*
X96430457Y-67507657D01*
X96359028Y-67364800D01*
X96216171Y-67293371D01*
X95930457Y-67293371D01*
X95787600Y-67364800D01*
X96430457Y-68221943D02*
X96287600Y-68293371D01*
X95930457Y-68293371D01*
X95787600Y-68221943D01*
X95716171Y-68079086D01*
X95716171Y-67936229D01*
X95787600Y-67793371D01*
X95930457Y-67721943D01*
X96287600Y-67721943D01*
X96430457Y-67650514D01*
X97144743Y-68293371D02*
X97144743Y-66793371D01*
X97144743Y-67364800D02*
X97287600Y-67293371D01*
X97573314Y-67293371D01*
X97716171Y-67364800D01*
X97787600Y-67436229D01*
X97859029Y-67579086D01*
X97859029Y-68007657D01*
X97787600Y-68150514D01*
X97716171Y-68221943D01*
X97573314Y-68293371D01*
X97287600Y-68293371D01*
X97144743Y-68221943D01*
X98430457Y-68221943D02*
X98573314Y-68293371D01*
X98859029Y-68293371D01*
X99001886Y-68221943D01*
X99073314Y-68079086D01*
X99073314Y-68007657D01*
X99001886Y-67864800D01*
X98859029Y-67793371D01*
X98644743Y-67793371D01*
X98501886Y-67721943D01*
X98430457Y-67579086D01*
X98430457Y-67507657D01*
X98501886Y-67364800D01*
X98644743Y-67293371D01*
X98859029Y-67293371D01*
X99001886Y-67364800D01*
X88716172Y-69336229D02*
X88787601Y-69264800D01*
X88930458Y-69193371D01*
X89287601Y-69193371D01*
X89430458Y-69264800D01*
X89501887Y-69336229D01*
X89573315Y-69479086D01*
X89573315Y-69621943D01*
X89501887Y-69836229D01*
X88644744Y-70693371D01*
X89573315Y-70693371D01*
X90501886Y-69193371D02*
X90644743Y-69193371D01*
X90787600Y-69264800D01*
X90859029Y-69336229D01*
X90930458Y-69479086D01*
X91001886Y-69764800D01*
X91001886Y-70121943D01*
X90930458Y-70407657D01*
X90859029Y-70550514D01*
X90787600Y-70621943D01*
X90644743Y-70693371D01*
X90501886Y-70693371D01*
X90359029Y-70621943D01*
X90287600Y-70550514D01*
X90216172Y-70407657D01*
X90144743Y-70121943D01*
X90144743Y-69764800D01*
X90216172Y-69479086D01*
X90287600Y-69336229D01*
X90359029Y-69264800D01*
X90501886Y-69193371D01*
X92430457Y-70693371D02*
X91573314Y-70693371D01*
X92001886Y-70693371D02*
X92001886Y-69193371D01*
X91859029Y-69407657D01*
X91716171Y-69550514D01*
X91573314Y-69621943D01*
X93787600Y-69193371D02*
X93073314Y-69193371D01*
X93001885Y-69907657D01*
X93073314Y-69836229D01*
X93216171Y-69764800D01*
X93573314Y-69764800D01*
X93716171Y-69836229D01*
X93787600Y-69907657D01*
X93859028Y-70050514D01*
X93859028Y-70407657D01*
X93787600Y-70550514D01*
X93716171Y-70621943D01*
X93573314Y-70693371D01*
X93216171Y-70693371D01*
X93073314Y-70621943D01*
X93001885Y-70550514D01*
D10*
X116128800Y-51511200D02*
X67970400Y-51511200D01*
X116128800Y-71678800D02*
X116128800Y-51511200D01*
X67970400Y-71678800D02*
X116128800Y-71678800D01*
X67970400Y-51511200D02*
X67970400Y-71678800D01*
X59944000Y-77165200D02*
X59944000Y-46990000D01*
X119989600Y-77165200D02*
X59944000Y-77165200D01*
X119989600Y-46990000D02*
X119989600Y-77165200D01*
X59944000Y-46990000D02*
X119989600Y-46990000D01*
X85717380Y-42903140D02*
X85717380Y-46301660D01*
X93017340Y-46301660D02*
X87017860Y-46301660D01*
X93017340Y-42903140D02*
X87017860Y-42903140D01*
X85016340Y-41549320D02*
X85016340Y-42649140D01*
X84416900Y-42049700D02*
X85615780Y-42049700D01*
X112529620Y-46474380D02*
X112529620Y-45575220D01*
X112529620Y-45575220D02*
X112130840Y-45575220D01*
X112130840Y-46474380D02*
X112130840Y-45575220D01*
X112529620Y-46474380D02*
X112130840Y-46474380D01*
X113827560Y-46474380D02*
X113827560Y-45575220D01*
X113827560Y-45575220D02*
X113428780Y-45575220D01*
X113428780Y-46474380D02*
X113428780Y-45575220D01*
X113827560Y-46474380D02*
X113428780Y-46474380D01*
X112979200Y-46474380D02*
X112979200Y-46324520D01*
X112979200Y-46324520D02*
X112679480Y-46324520D01*
X112679480Y-46474380D02*
X112679480Y-46324520D01*
X112979200Y-46474380D02*
X112679480Y-46474380D01*
X112979200Y-45725080D02*
X112979200Y-45575220D01*
X112979200Y-45575220D02*
X112679480Y-45575220D01*
X112679480Y-45725080D02*
X112679480Y-45575220D01*
X112979200Y-45725080D02*
X112679480Y-45725080D01*
X112979200Y-46174660D02*
X112979200Y-45874940D01*
X112979200Y-45874940D02*
X112679480Y-45874940D01*
X112679480Y-46174660D02*
X112679480Y-45874940D01*
X112979200Y-46174660D02*
X112679480Y-46174660D01*
X112529620Y-46423580D02*
X113428780Y-46423580D01*
X112529620Y-45626020D02*
X113428780Y-45626020D01*
X72433180Y-45524420D02*
X72433180Y-46423580D01*
X72433180Y-46423580D02*
X72831960Y-46423580D01*
X72831960Y-45524420D02*
X72831960Y-46423580D01*
X72433180Y-45524420D02*
X72831960Y-45524420D01*
X71135240Y-45524420D02*
X71135240Y-46423580D01*
X71135240Y-46423580D02*
X71534020Y-46423580D01*
X71534020Y-45524420D02*
X71534020Y-46423580D01*
X71135240Y-45524420D02*
X71534020Y-45524420D01*
X71983600Y-45524420D02*
X71983600Y-45674280D01*
X71983600Y-45674280D02*
X72283320Y-45674280D01*
X72283320Y-45524420D02*
X72283320Y-45674280D01*
X71983600Y-45524420D02*
X72283320Y-45524420D01*
X71983600Y-46273720D02*
X71983600Y-46423580D01*
X71983600Y-46423580D02*
X72283320Y-46423580D01*
X72283320Y-46273720D02*
X72283320Y-46423580D01*
X71983600Y-46273720D02*
X72283320Y-46273720D01*
X71983600Y-45824140D02*
X71983600Y-46123860D01*
X71983600Y-46123860D02*
X72283320Y-46123860D01*
X72283320Y-45824140D02*
X72283320Y-46123860D01*
X71983600Y-45824140D02*
X72283320Y-45824140D01*
X72433180Y-45575220D02*
X71534020Y-45575220D01*
X72433180Y-46372780D02*
X71534020Y-46372780D01*
X84574380Y-45524420D02*
X84574380Y-46423580D01*
X84574380Y-46423580D02*
X84973160Y-46423580D01*
X84973160Y-45524420D02*
X84973160Y-46423580D01*
X84574380Y-45524420D02*
X84973160Y-45524420D01*
X83276440Y-45524420D02*
X83276440Y-46423580D01*
X83276440Y-46423580D02*
X83675220Y-46423580D01*
X83675220Y-45524420D02*
X83675220Y-46423580D01*
X83276440Y-45524420D02*
X83675220Y-45524420D01*
X84124800Y-45524420D02*
X84124800Y-45674280D01*
X84124800Y-45674280D02*
X84424520Y-45674280D01*
X84424520Y-45524420D02*
X84424520Y-45674280D01*
X84124800Y-45524420D02*
X84424520Y-45524420D01*
X84124800Y-46273720D02*
X84124800Y-46423580D01*
X84124800Y-46423580D02*
X84424520Y-46423580D01*
X84424520Y-46273720D02*
X84424520Y-46423580D01*
X84124800Y-46273720D02*
X84424520Y-46273720D01*
X84124800Y-45824140D02*
X84124800Y-46123860D01*
X84124800Y-46123860D02*
X84424520Y-46123860D01*
X84424520Y-45824140D02*
X84424520Y-46123860D01*
X84124800Y-45824140D02*
X84424520Y-45824140D01*
X84574380Y-45575220D02*
X83675220Y-45575220D01*
X84574380Y-46372780D02*
X83675220Y-46372780D01*
X95562420Y-46423580D02*
X95562420Y-45524420D01*
X95562420Y-45524420D02*
X95163640Y-45524420D01*
X95163640Y-46423580D02*
X95163640Y-45524420D01*
X95562420Y-46423580D02*
X95163640Y-46423580D01*
X96860360Y-46423580D02*
X96860360Y-45524420D01*
X96860360Y-45524420D02*
X96461580Y-45524420D01*
X96461580Y-46423580D02*
X96461580Y-45524420D01*
X96860360Y-46423580D02*
X96461580Y-46423580D01*
X96012000Y-46423580D02*
X96012000Y-46273720D01*
X96012000Y-46273720D02*
X95712280Y-46273720D01*
X95712280Y-46423580D02*
X95712280Y-46273720D01*
X96012000Y-46423580D02*
X95712280Y-46423580D01*
X96012000Y-45674280D02*
X96012000Y-45524420D01*
X96012000Y-45524420D02*
X95712280Y-45524420D01*
X95712280Y-45674280D02*
X95712280Y-45524420D01*
X96012000Y-45674280D02*
X95712280Y-45674280D01*
X96012000Y-46123860D02*
X96012000Y-45824140D01*
X96012000Y-45824140D02*
X95712280Y-45824140D01*
X95712280Y-46123860D02*
X95712280Y-45824140D01*
X96012000Y-46123860D02*
X95712280Y-46123860D01*
X95562420Y-46372780D02*
X96461580Y-46372780D01*
X95562420Y-45575220D02*
X96461580Y-45575220D01*
X112479200Y-43622600D02*
X113479200Y-43622600D01*
X113479200Y-44972600D02*
X112479200Y-44972600D01*
X71483600Y-43673400D02*
X72483600Y-43673400D01*
X72483600Y-45023400D02*
X71483600Y-45023400D01*
X83624800Y-43622600D02*
X84624800Y-43622600D01*
X84624800Y-44972600D02*
X83624800Y-44972600D01*
X98560000Y-45248200D02*
X99560000Y-45248200D01*
X99560000Y-46598200D02*
X98560000Y-46598200D01*
X107551220Y-46423580D02*
X107551220Y-45524420D01*
X107551220Y-45524420D02*
X107152440Y-45524420D01*
X107152440Y-46423580D02*
X107152440Y-45524420D01*
X107551220Y-46423580D02*
X107152440Y-46423580D01*
X108849160Y-46423580D02*
X108849160Y-45524420D01*
X108849160Y-45524420D02*
X108450380Y-45524420D01*
X108450380Y-46423580D02*
X108450380Y-45524420D01*
X108849160Y-46423580D02*
X108450380Y-46423580D01*
X108000800Y-46423580D02*
X108000800Y-46273720D01*
X108000800Y-46273720D02*
X107701080Y-46273720D01*
X107701080Y-46423580D02*
X107701080Y-46273720D01*
X108000800Y-46423580D02*
X107701080Y-46423580D01*
X108000800Y-45674280D02*
X108000800Y-45524420D01*
X108000800Y-45524420D02*
X107701080Y-45524420D01*
X107701080Y-45674280D02*
X107701080Y-45524420D01*
X108000800Y-45674280D02*
X107701080Y-45674280D01*
X108000800Y-46123860D02*
X108000800Y-45824140D01*
X108000800Y-45824140D02*
X107701080Y-45824140D01*
X107701080Y-46123860D02*
X107701080Y-45824140D01*
X108000800Y-46123860D02*
X107701080Y-46123860D01*
X107551220Y-46372780D02*
X108450380Y-46372780D01*
X107551220Y-45575220D02*
X108450380Y-45575220D01*
X79536800Y-46585400D02*
X77536800Y-46585400D01*
X77536800Y-43635400D02*
X79536800Y-43635400D01*
X105134360Y-44358560D02*
X105086100Y-44358560D01*
X102335380Y-45059600D02*
X102335380Y-44358560D01*
X102335380Y-44358560D02*
X102584300Y-44358560D01*
X105134360Y-44358560D02*
X105335020Y-44358560D01*
X105335020Y-44358560D02*
X105335020Y-45059600D01*
X108500800Y-44972600D02*
X107500800Y-44972600D01*
X107500800Y-43622600D02*
X108500800Y-43622600D01*
X89952534Y-47956743D02*
X89904915Y-48004362D01*
X89762058Y-48051981D01*
X89666820Y-48051981D01*
X89523962Y-48004362D01*
X89428724Y-47909124D01*
X89381105Y-47813886D01*
X89333486Y-47623410D01*
X89333486Y-47480552D01*
X89381105Y-47290076D01*
X89428724Y-47194838D01*
X89523962Y-47099600D01*
X89666820Y-47051981D01*
X89762058Y-47051981D01*
X89904915Y-47099600D01*
X89952534Y-47147219D01*
X90857296Y-47051981D02*
X90381105Y-47051981D01*
X90333486Y-47528171D01*
X90381105Y-47480552D01*
X90476343Y-47432933D01*
X90714439Y-47432933D01*
X90809677Y-47480552D01*
X90857296Y-47528171D01*
X90904915Y-47623410D01*
X90904915Y-47861505D01*
X90857296Y-47956743D01*
X90809677Y-48004362D01*
X90714439Y-48051981D01*
X90476343Y-48051981D01*
X90381105Y-48004362D01*
X90333486Y-47956743D01*
X87045848Y-47315429D02*
X87807753Y-47315429D01*
X87426801Y-47696381D02*
X87426801Y-46934476D01*
X112291905Y-48305981D02*
X112291905Y-47305981D01*
X112530000Y-47305981D01*
X112672858Y-47353600D01*
X112768096Y-47448838D01*
X112815715Y-47544076D01*
X112863334Y-47734552D01*
X112863334Y-47877410D01*
X112815715Y-48067886D01*
X112768096Y-48163124D01*
X112672858Y-48258362D01*
X112530000Y-48305981D01*
X112291905Y-48305981D01*
X113244286Y-47401219D02*
X113291905Y-47353600D01*
X113387143Y-47305981D01*
X113625239Y-47305981D01*
X113720477Y-47353600D01*
X113768096Y-47401219D01*
X113815715Y-47496457D01*
X113815715Y-47591695D01*
X113768096Y-47734552D01*
X113196667Y-48305981D01*
X113815715Y-48305981D01*
X68857905Y-44851581D02*
X68857905Y-43851581D01*
X69096000Y-43851581D01*
X69238858Y-43899200D01*
X69334096Y-43994438D01*
X69381715Y-44089676D01*
X69429334Y-44280152D01*
X69429334Y-44423010D01*
X69381715Y-44613486D01*
X69334096Y-44708724D01*
X69238858Y-44803962D01*
X69096000Y-44851581D01*
X68857905Y-44851581D01*
X69762667Y-43851581D02*
X70381715Y-43851581D01*
X70048381Y-44232533D01*
X70191239Y-44232533D01*
X70286477Y-44280152D01*
X70334096Y-44327771D01*
X70381715Y-44423010D01*
X70381715Y-44661105D01*
X70334096Y-44756343D01*
X70286477Y-44803962D01*
X70191239Y-44851581D01*
X69905524Y-44851581D01*
X69810286Y-44803962D01*
X69762667Y-44756343D01*
X81100705Y-44699181D02*
X81100705Y-43699181D01*
X81338800Y-43699181D01*
X81481658Y-43746800D01*
X81576896Y-43842038D01*
X81624515Y-43937276D01*
X81672134Y-44127752D01*
X81672134Y-44270610D01*
X81624515Y-44461086D01*
X81576896Y-44556324D01*
X81481658Y-44651562D01*
X81338800Y-44699181D01*
X81100705Y-44699181D01*
X82529277Y-44032514D02*
X82529277Y-44699181D01*
X82291181Y-43651562D02*
X82053086Y-44365848D01*
X82672134Y-44365848D01*
X95324705Y-48305981D02*
X95324705Y-47305981D01*
X95562800Y-47305981D01*
X95705658Y-47353600D01*
X95800896Y-47448838D01*
X95848515Y-47544076D01*
X95896134Y-47734552D01*
X95896134Y-47877410D01*
X95848515Y-48067886D01*
X95800896Y-48163124D01*
X95705658Y-48258362D01*
X95562800Y-48305981D01*
X95324705Y-48305981D01*
X96800896Y-47305981D02*
X96324705Y-47305981D01*
X96277086Y-47782171D01*
X96324705Y-47734552D01*
X96419943Y-47686933D01*
X96658039Y-47686933D01*
X96753277Y-47734552D01*
X96800896Y-47782171D01*
X96848515Y-47877410D01*
X96848515Y-48115505D01*
X96800896Y-48210743D01*
X96753277Y-48258362D01*
X96658039Y-48305981D01*
X96419943Y-48305981D01*
X96324705Y-48258362D01*
X96277086Y-48210743D01*
X112336343Y-43479981D02*
X112003009Y-43003790D01*
X111764914Y-43479981D02*
X111764914Y-42479981D01*
X112145867Y-42479981D01*
X112241105Y-42527600D01*
X112288724Y-42575219D01*
X112336343Y-42670457D01*
X112336343Y-42813314D01*
X112288724Y-42908552D01*
X112241105Y-42956171D01*
X112145867Y-43003790D01*
X111764914Y-43003790D01*
X113288724Y-43479981D02*
X112717295Y-43479981D01*
X113003009Y-43479981D02*
X113003009Y-42479981D01*
X112907771Y-42622838D01*
X112812533Y-42718076D01*
X112717295Y-42765695D01*
X113907771Y-42479981D02*
X114003010Y-42479981D01*
X114098248Y-42527600D01*
X114145867Y-42575219D01*
X114193486Y-42670457D01*
X114241105Y-42860933D01*
X114241105Y-43099029D01*
X114193486Y-43289505D01*
X114145867Y-43384743D01*
X114098248Y-43432362D01*
X114003010Y-43479981D01*
X113907771Y-43479981D01*
X113812533Y-43432362D01*
X113764914Y-43384743D01*
X113717295Y-43289505D01*
X113669676Y-43099029D01*
X113669676Y-42860933D01*
X113717295Y-42670457D01*
X113764914Y-42575219D01*
X113812533Y-42527600D01*
X113907771Y-42479981D01*
X68495943Y-46477181D02*
X68162609Y-46000990D01*
X67924514Y-46477181D02*
X67924514Y-45477181D01*
X68305467Y-45477181D01*
X68400705Y-45524800D01*
X68448324Y-45572419D01*
X68495943Y-45667657D01*
X68495943Y-45810514D01*
X68448324Y-45905752D01*
X68400705Y-45953371D01*
X68305467Y-46000990D01*
X67924514Y-46000990D01*
X69448324Y-46477181D02*
X68876895Y-46477181D01*
X69162609Y-46477181D02*
X69162609Y-45477181D01*
X69067371Y-45620038D01*
X68972133Y-45715276D01*
X68876895Y-45762895D01*
X69829276Y-45572419D02*
X69876895Y-45524800D01*
X69972133Y-45477181D01*
X70210229Y-45477181D01*
X70305467Y-45524800D01*
X70353086Y-45572419D01*
X70400705Y-45667657D01*
X70400705Y-45762895D01*
X70353086Y-45905752D01*
X69781657Y-46477181D01*
X70400705Y-46477181D01*
X83532743Y-48356781D02*
X83199409Y-47880590D01*
X82961314Y-48356781D02*
X82961314Y-47356781D01*
X83342267Y-47356781D01*
X83437505Y-47404400D01*
X83485124Y-47452019D01*
X83532743Y-47547257D01*
X83532743Y-47690114D01*
X83485124Y-47785352D01*
X83437505Y-47832971D01*
X83342267Y-47880590D01*
X82961314Y-47880590D01*
X84485124Y-48356781D02*
X83913695Y-48356781D01*
X84199409Y-48356781D02*
X84199409Y-47356781D01*
X84104171Y-47499638D01*
X84008933Y-47594876D01*
X83913695Y-47642495D01*
X84818457Y-47356781D02*
X85437505Y-47356781D01*
X85104171Y-47737733D01*
X85247029Y-47737733D01*
X85342267Y-47785352D01*
X85389886Y-47832971D01*
X85437505Y-47928210D01*
X85437505Y-48166305D01*
X85389886Y-48261543D01*
X85342267Y-48309162D01*
X85247029Y-48356781D01*
X84961314Y-48356781D01*
X84866076Y-48309162D01*
X84818457Y-48261543D01*
X98467943Y-48356781D02*
X98134609Y-47880590D01*
X97896514Y-48356781D02*
X97896514Y-47356781D01*
X98277467Y-47356781D01*
X98372705Y-47404400D01*
X98420324Y-47452019D01*
X98467943Y-47547257D01*
X98467943Y-47690114D01*
X98420324Y-47785352D01*
X98372705Y-47832971D01*
X98277467Y-47880590D01*
X97896514Y-47880590D01*
X99420324Y-48356781D02*
X98848895Y-48356781D01*
X99134609Y-48356781D02*
X99134609Y-47356781D01*
X99039371Y-47499638D01*
X98944133Y-47594876D01*
X98848895Y-47642495D01*
X100277467Y-47690114D02*
X100277467Y-48356781D01*
X100039371Y-47309162D02*
X99801276Y-48023448D01*
X100420324Y-48023448D01*
X107262705Y-48305981D02*
X107262705Y-47305981D01*
X107500800Y-47305981D01*
X107643658Y-47353600D01*
X107738896Y-47448838D01*
X107786515Y-47544076D01*
X107834134Y-47734552D01*
X107834134Y-47877410D01*
X107786515Y-48067886D01*
X107738896Y-48163124D01*
X107643658Y-48258362D01*
X107500800Y-48305981D01*
X107262705Y-48305981D01*
X108405562Y-47734552D02*
X108310324Y-47686933D01*
X108262705Y-47639314D01*
X108215086Y-47544076D01*
X108215086Y-47496457D01*
X108262705Y-47401219D01*
X108310324Y-47353600D01*
X108405562Y-47305981D01*
X108596039Y-47305981D01*
X108691277Y-47353600D01*
X108738896Y-47401219D01*
X108786515Y-47496457D01*
X108786515Y-47544076D01*
X108738896Y-47639314D01*
X108691277Y-47686933D01*
X108596039Y-47734552D01*
X108405562Y-47734552D01*
X108310324Y-47782171D01*
X108262705Y-47829790D01*
X108215086Y-47925029D01*
X108215086Y-48115505D01*
X108262705Y-48210743D01*
X108310324Y-48258362D01*
X108405562Y-48305981D01*
X108596039Y-48305981D01*
X108691277Y-48258362D01*
X108738896Y-48210743D01*
X108786515Y-48115505D01*
X108786515Y-47925029D01*
X108738896Y-47829790D01*
X108691277Y-47782171D01*
X108596039Y-47734552D01*
X78441562Y-48502819D02*
X78346324Y-48455200D01*
X78251086Y-48359962D01*
X78108229Y-48217105D01*
X78012990Y-48169486D01*
X77917752Y-48169486D01*
X77965371Y-48407581D02*
X77870133Y-48359962D01*
X77774895Y-48264724D01*
X77727276Y-48074248D01*
X77727276Y-47740914D01*
X77774895Y-47550438D01*
X77870133Y-47455200D01*
X77965371Y-47407581D01*
X78155848Y-47407581D01*
X78251086Y-47455200D01*
X78346324Y-47550438D01*
X78393943Y-47740914D01*
X78393943Y-48074248D01*
X78346324Y-48264724D01*
X78251086Y-48359962D01*
X78155848Y-48407581D01*
X77965371Y-48407581D01*
X79346324Y-48407581D02*
X78774895Y-48407581D01*
X79060609Y-48407581D02*
X79060609Y-47407581D01*
X78965371Y-47550438D01*
X78870133Y-47645676D01*
X78774895Y-47693295D01*
X103841562Y-48502819D02*
X103746324Y-48455200D01*
X103651086Y-48359962D01*
X103508229Y-48217105D01*
X103412990Y-48169486D01*
X103317752Y-48169486D01*
X103365371Y-48407581D02*
X103270133Y-48359962D01*
X103174895Y-48264724D01*
X103127276Y-48074248D01*
X103127276Y-47740914D01*
X103174895Y-47550438D01*
X103270133Y-47455200D01*
X103365371Y-47407581D01*
X103555848Y-47407581D01*
X103651086Y-47455200D01*
X103746324Y-47550438D01*
X103793943Y-47740914D01*
X103793943Y-48074248D01*
X103746324Y-48264724D01*
X103651086Y-48359962D01*
X103555848Y-48407581D01*
X103365371Y-48407581D01*
X104174895Y-47502819D02*
X104222514Y-47455200D01*
X104317752Y-47407581D01*
X104555848Y-47407581D01*
X104651086Y-47455200D01*
X104698705Y-47502819D01*
X104746324Y-47598057D01*
X104746324Y-47693295D01*
X104698705Y-47836152D01*
X104127276Y-48407581D01*
X104746324Y-48407581D01*
X107408743Y-43378381D02*
X107075409Y-42902190D01*
X106837314Y-43378381D02*
X106837314Y-42378381D01*
X107218267Y-42378381D01*
X107313505Y-42426000D01*
X107361124Y-42473619D01*
X107408743Y-42568857D01*
X107408743Y-42711714D01*
X107361124Y-42806952D01*
X107313505Y-42854571D01*
X107218267Y-42902190D01*
X106837314Y-42902190D01*
X108361124Y-43378381D02*
X107789695Y-43378381D01*
X108075409Y-43378381D02*
X108075409Y-42378381D01*
X107980171Y-42521238D01*
X107884933Y-42616476D01*
X107789695Y-42664095D01*
X109218267Y-42378381D02*
X109027790Y-42378381D01*
X108932552Y-42426000D01*
X108884933Y-42473619D01*
X108789695Y-42616476D01*
X108742076Y-42806952D01*
X108742076Y-43187905D01*
X108789695Y-43283143D01*
X108837314Y-43330762D01*
X108932552Y-43378381D01*
X109123029Y-43378381D01*
X109218267Y-43330762D01*
X109265886Y-43283143D01*
X109313505Y-43187905D01*
X109313505Y-42949810D01*
X109265886Y-42854571D01*
X109218267Y-42806952D01*
X109123029Y-42759333D01*
X108932552Y-42759333D01*
X108837314Y-42806952D01*
X108789695Y-42854571D01*
X108742076Y-42949810D01*
D13*
X122282857Y-54559200D02*
X122355429Y-54341486D01*
X122355429Y-53978629D01*
X122282857Y-53833486D01*
X122210286Y-53760915D01*
X122065143Y-53688343D01*
X121920000Y-53688343D01*
X121774857Y-53760915D01*
X121702286Y-53833486D01*
X121629714Y-53978629D01*
X121557143Y-54268915D01*
X121484571Y-54414057D01*
X121412000Y-54486629D01*
X121266857Y-54559200D01*
X121121714Y-54559200D01*
X120976571Y-54486629D01*
X120904000Y-54414057D01*
X120831429Y-54268915D01*
X120831429Y-53906057D01*
X120904000Y-53688343D01*
X120831429Y-53180343D02*
X122355429Y-52817486D01*
X121266857Y-52527200D01*
X122355429Y-52236914D01*
X120831429Y-51874057D01*
X120976571Y-51366057D02*
X120904000Y-51293486D01*
X120831429Y-51148343D01*
X120831429Y-50785486D01*
X120904000Y-50640343D01*
X120976571Y-50567772D01*
X121121714Y-50495200D01*
X121266857Y-50495200D01*
X121484571Y-50567772D01*
X122355429Y-51438629D01*
X122355429Y-50495200D01*
X122384457Y-72390000D02*
X122457029Y-72172286D01*
X122457029Y-71809429D01*
X122384457Y-71664286D01*
X122311886Y-71591715D01*
X122166743Y-71519143D01*
X122021600Y-71519143D01*
X121876457Y-71591715D01*
X121803886Y-71664286D01*
X121731314Y-71809429D01*
X121658743Y-72099715D01*
X121586171Y-72244857D01*
X121513600Y-72317429D01*
X121368457Y-72390000D01*
X121223314Y-72390000D01*
X121078171Y-72317429D01*
X121005600Y-72244857D01*
X120933029Y-72099715D01*
X120933029Y-71736857D01*
X121005600Y-71519143D01*
X120933029Y-71011143D02*
X122457029Y-70648286D01*
X121368457Y-70358000D01*
X122457029Y-70067714D01*
X120933029Y-69704857D01*
X120933029Y-69269429D02*
X120933029Y-68326000D01*
X121513600Y-68834000D01*
X121513600Y-68616286D01*
X121586171Y-68471143D01*
X121658743Y-68398572D01*
X121803886Y-68326000D01*
X122166743Y-68326000D01*
X122311886Y-68398572D01*
X122384457Y-68471143D01*
X122457029Y-68616286D01*
X122457029Y-69051714D01*
X122384457Y-69196857D01*
X122311886Y-69269429D01*
M02*
