M48
;DRILL file {KiCad (2015-04-29 BZR 5630)-product} date Mon 29 Jun 2015 10:39:46 BST
;FORMAT={-:-/ absolute / inch / decimal}
FMAT,2
INCH,TZ
T1C0.016
T2C0.024
T3C0.031
T4C0.032
T5C0.039
T6C0.040
%
G90
G05
M72
T1
X2.404Y-2.808
X2.408Y-2.992
X2.41Y-2.
X2.526Y-2.45
X2.528Y-2.324
X2.592Y-2.362
X2.592Y-2.498
X2.64Y-2.478
X2.712Y-3.128
X2.752Y-1.886
X2.82Y-2.294
X2.83Y-2.892
X2.954Y-3.128
X2.964Y-2.47
X3.026Y-2.98
X3.104Y-2.98
X3.138Y-2.06
X3.152Y-2.978
X3.162Y-2.696
X3.162Y-2.81
X3.214Y-1.784
X3.26Y-2.278
X3.262Y-2.662
X3.286Y-2.806
X3.286Y-2.928
X3.312Y-2.664
X3.426Y-2.678
X3.428Y-2.438
X3.44Y-2.97
X3.4446Y-1.756
X3.458Y-2.4
X3.464Y-2.676
X3.51Y-2.244
X3.51Y-2.42
X3.55Y-1.79
X3.57Y-1.934
X3.608Y-2.33
X3.664Y-3.108
X3.834Y-1.876
X3.898Y-3.104
X3.928Y-2.148
X4.02Y-2.092
X4.072Y-2.032
X4.126Y-2.198
X4.14Y-2.992
X4.144Y-2.948
X4.21Y-2.178
X4.21Y-2.404
X4.21Y-2.588
X4.21Y-2.794
X4.296Y-1.916
X4.31Y-1.964
X4.332Y-2.994
X4.364Y-2.9
X4.374Y-2.098
X4.4Y-2.794
X4.406Y-2.588
X4.408Y-1.916
X4.512Y-1.7
X4.636Y-2.982
X4.708Y-3.082
X4.73Y-2.298
X4.788Y-2.142
X4.79Y-3.148
X4.812Y-1.886
X5.142Y-3.114
X5.168Y-2.954
X5.176Y-2.182
T2
X2.772Y-2.588
X2.79Y-2.642
X3.048Y-2.306
X3.054Y-2.52
X3.986Y-1.836
X4.162Y-1.728
T3
X3.988Y-1.778
X4.992Y-2.314
T4
X5.194Y-1.724
X5.194Y-1.824
X5.194Y-1.924
T5
X4.89Y-2.656
X4.89Y-2.912
X4.894Y-1.946
X4.894Y-2.202
X5.0672Y-2.656
X5.0672Y-2.912
X5.0712Y-1.946
X5.0712Y-2.202
T6
X3.262Y-2.386
X3.262Y-2.486
X3.362Y-2.386
X3.362Y-2.486
X3.77Y-2.032
X3.77Y-2.132
X3.77Y-2.232
X3.77Y-2.332
X3.77Y-2.432
X3.784Y-2.806
X3.784Y-2.906
X3.784Y-3.006
X3.784Y-3.106
X4.924Y-3.114
X4.94Y-1.744
X5.024Y-3.114
X5.04Y-1.744
T0
M30
